<?xml version="1.0" encoding="utf-8"?>
<!-- Generator: Adobe Illustrator 25.2.0, SVG Export Plug-In . SVG Version: 6.00 Build 0)  -->
<svg version="1.1" id="Layer_1" xmlns="http://www.w3.org/2000/svg" xmlns:xlink="http://www.w3.org/1999/xlink" x="0px" y="0px"
	 viewBox="0 0 1000 749.5" style="enable-background:new 0 0 1000 749.5;" xml:space="preserve">
<style type="text/css">
	.st0{fill:url(#SVGID_1_);}
	.st1{fill:none;stroke:#FFFFFF;stroke-miterlimit:10;}
	.st2{fill:url(#SVGID_2_);}
	.st3{opacity:0.1;fill:#FFFFFF;}
</style>
<image style="overflow:visible;" width="750" height="554" xlink:href="B84E0B98.jpg"  transform="matrix(1 0 0 1 3407.2786 1686.6719)">
</image>
<linearGradient id="SVGID_1_" gradientUnits="userSpaceOnUse" x1="1854.6389" y1="1968.6016" x2="2521.5464" y2="1968.6016">
	<stop  offset="0" style="stop-color:#DF4634"/>
	<stop  offset="1" style="stop-color:#E55938"/>
</linearGradient>
<rect x="1854.6" y="1718.7" class="st0" width="666.9" height="499.9"/>
<image style="overflow:visible;" width="750" height="554" xlink:href="B84E0B99.jpg"  transform="matrix(1 0 0 1 1817.6315 1686.6719)">
</image>
<circle class="st1" cx="2188.1" cy="1968.6" r="399.4"/>
<circle class="st1" cx="2188.1" cy="1968.6" r="343"/>
<circle class="st1" cx="2188.1" cy="1968.6" r="287.2"/>
<circle class="st1" cx="2188.1" cy="1968.6" r="233.5"/>
<circle class="st1" cx="2188.1" cy="1968.6" r="180.6"/>
<g>
	<linearGradient id="SVGID_2_" gradientUnits="userSpaceOnUse" x1="0" y1="374.7639" x2="1000" y2="374.7639">
		<stop  offset="0" style="stop-color:#DF4634"/>
		<stop  offset="1" style="stop-color:#E55938"/>
	</linearGradient>
	<rect class="st2" width="1000" height="749.5"/>
	<g>
		<path class="st3" d="M1000,44.9v659.7c-10.2,15.5-21.2,30.5-32.8,44.9H32.8C21.2,735.1,10.2,720.1,0,704.6V44.9
			C10.2,29.4,21.2,14.4,32.8,0h934.4C978.8,14.4,989.8,29.4,1000,44.9z"/>
		<path class="st3" d="M1000,254.1v241.3c-23.8,98.9-76.1,186.7-147.9,254.1H147.9C76.1,682.1,23.8,594.4,0,495.5V254.1
			C23.8,155.2,76.1,67.4,147.8,0h704.3C923.9,67.4,976.2,155.2,1000,254.1z"/>
		<path class="st3" d="M930.6,374.8c0,160.7-88,300.8-218.4,374.8H287.7c-130.4-74-218.4-214.1-218.4-374.8S157.3,74,287.7,0h424.5
			C842.7,74,930.6,214.1,930.6,374.8z"/>
		<circle class="st3" cx="500" cy="374.8" r="350.2"/>
		<circle class="st3" cx="500" cy="374.8" r="270.8"/>
	</g>
</g>
</svg>
