<svg xmlns="http://www.w3.org/2000/svg" viewBox="0 0 500 500"><g id="freepik--Floor--inject-5"><path id="freepik--floor--inject-5" d="M91.46,439c88.76,45.38,232.66,45.39,321.42,0s88.76-119,0-164.34-232.66-45.38-321.42,0S2.7,393.65,91.46,439Z" style="fill:#f5f5f5"></path></g><g id="freepik--Shadows--inject-5"><polyline id="freepik--Shadow--inject-5" points="148.53 388.87 100.61 361.39 163.75 325.88 148.82 389.37" style="fill:#e0e0e0"></polyline><ellipse id="freepik--shadow--inject-5" cx="414.65" cy="346.24" rx="47.48" ry="25.81" style="fill:#e0e0e0"></ellipse><path id="freepik--shadow--inject-5" d="M237.62,364.25l42.67,24.64a11.37,11.37,0,0,0,10.26,0l86-49.64c2.83-1.64,2.83-4.29,0-5.92l-42.67-24.64a11.37,11.37,0,0,0-10.26,0l-86,49.64C234.78,360,234.78,362.62,237.62,364.25Z" style="fill:#e0e0e0"></path></g><g id="freepik--Plants--inject-5"><g id="freepik--plants--inject-5"><path d="M78.52,345.41c-.63-7.77-4.19-20.54-13.23-32.7-9.67-13-21.47-21.14-30.23-17.34-8.16,3.55-5.07,14.81,9,25.93,9.85,7.79,20.07,17.94,25.57,30.19l8.91,15.59Z" style="fill:#ECEFF1"></path><g style="opacity:0.1"><path d="M78.52,345.41c-.63-7.77-4.19-20.54-13.23-32.7-9.67-13-21.47-21.14-30.23-17.34-8.16,3.55-5.07,14.81,9,25.93,9.85,7.79,20.07,17.94,25.57,30.19l8.91,15.59Z"></path></g><path d="M77.73,351.34a.55.55,0,0,1-.52-.37c-7.83-21.55-24.13-43.36-37.92-50.73a.55.55,0,1,1,.52-1c14,7.49,30.53,29.55,38.44,51.34a.55.55,0,0,1-.33.7A.46.46,0,0,1,77.73,351.34Z" style="fill:#fff"></path><path d="M77.73,372a32.79,32.79,0,0,1-15.6,6.68C52.3,380.22,48,375.52,48,375.52s3.87-9.22,9.46-11.81a54.79,54.79,0,0,0-17.06,7s-6,.09-8.39-9.07c0,0,3.55-5.51,15.48-8.49,0,0-7.25-1.83-17.71.84-.79.31-4.13-11.53-5.14-17s1.18-5.41,5.44-6.55,18.76-1.85,21.43.5,4,10.35,4,10.35,2.55-4.53,1.94-8.58a15.22,15.22,0,0,1,9.06.22c4.79,1.66,4.48,4,4.48,7.48a36.75,36.75,0,0,1-1.43,10.37s3.31-2.86,3.42-13.4c0,0,6.47,5.53,9.07,10.29S84,364.88,77.73,372Z" style="fill:#ECEFF1"></path><path d="M77.73,372.53a.55.55,0,0,1-.5-.31c-7.93-16.48-37.42-35.62-48-37.68a.56.56,0,0,1-.44-.65.55.55,0,0,1,.65-.43C40.2,335.55,70.17,355,78.23,371.74a.56.56,0,0,1-.26.74A.52.52,0,0,1,77.73,372.53Z" style="fill:#fff"></path></g></g><g id="freepik--Documents--inject-5"><g id="freepik--Folder--inject-5"><polygon points="75.69 197.2 75.69 376.72 243.22 279.99 243.22 117.97 128.78 183.99 124.48 168.97 75.69 197.2" style="fill:#37474f"></polygon><polygon points="75.69 376.72 84.28 219.08 251.81 122.36 243.22 279.99 75.69 376.72" style="fill:#f0f0f0"></polygon><polygon points="75.69 376.72 90.86 223.47 258.39 126.75 243.22 279.99 75.69 376.72" style="fill:#455a64"></polygon></g><path d="M148.21,389.57c-.47,0-.54-.54-.54-.86V158.07a3.87,3.87,0,0,1,1.73-3L311.26,61.69a1.25,1.25,0,0,1,.61-.2c.46,0,.53.54.53.86V293a3.87,3.87,0,0,1-1.73,3L148.82,389.37A1.31,1.31,0,0,1,148.21,389.57Z" style="fill:#fafafa"></path><path d="M311.79,62.09a.79.79,0,0,1,0,.26V293a3.37,3.37,0,0,1-1.44,2.49L148.53,388.87a.84.84,0,0,1-.25.1,1.42,1.42,0,0,1,0-.26V158.07a3.34,3.34,0,0,1,1.43-2.49L311.55,62.19a.94.94,0,0,1,.24-.1m.08-1.18a1.78,1.78,0,0,0-.9.27L149.11,154.57a4.46,4.46,0,0,0-2,3.5V388.71c0,.91.45,1.44,1.12,1.44a1.88,1.88,0,0,0,.9-.27L311,296.49a4.5,4.5,0,0,0,2-3.5V62.35c0-.92-.46-1.44-1.12-1.44Z" style="fill:#e6e6e6"></path><polygon points="161.31 163.95 208.71 136.58 208.71 191.31 161.31 218.68 161.31 163.95" style="fill:#ECEFF1"></polygon><path d="M201.6,150.26v16.42l-1.49.83v-5c0-2.78-2.26-3.72-5.05-2.11L175,172c-2.79,1.61-5.06,5.17-5.06,7.94v5l-1.48.89V169.42Z" style="fill:#fafafa"></path><path d="M192.46,192.11c-2.44,1.41-4.41-.07-4.41-3.29V162.48L182,165.8v26.54c0,3.22-2,7-4.41,8.37l-4.4,2.54V205l23.7-13.69v-1.74Z" style="fill:#fafafa"></path><path d="M218.19,133.85c0,1.51,1.36,2,3,1l74.52-43a6.09,6.09,0,0,0,3-4.49c0-1.51-1.36-1.95-3-1l-74.52,43A6.06,6.06,0,0,0,218.19,133.85Z" style="fill:#e0e0e0"></path><path d="M218.19,150.26c0,1.52,1.36,2,3,1l74.52-43a6.09,6.09,0,0,0,3-4.49c0-1.51-1.36-2-3-1l-74.52,43A6.06,6.06,0,0,0,218.19,150.26Z" style="fill:#e0e0e0"></path><path d="M218.19,166.68c0,1.52,1.36,2,3,1l74.52-43a6.09,6.09,0,0,0,3-4.49c0-1.51-1.36-2-3-1l-74.52,43A6.06,6.06,0,0,0,218.19,166.68Z" style="fill:#e0e0e0"></path><path d="M218.19,183.1c0,1.51,1.36,2,3,1l74.52-43a6.09,6.09,0,0,0,3-4.49c0-1.51-1.36-1.95-3-1l-74.52,43A6.06,6.06,0,0,0,218.19,183.1Z" style="fill:#e0e0e0"></path><path d="M161.31,232.37c0,1.51,1.36,1.95,3,1l131.4-75.8a6.09,6.09,0,0,0,3-4.49c0-1.51-1.36-1.95-3-1l-131.4,75.81A6.09,6.09,0,0,0,161.31,232.37Z" style="fill:#e0e0e0"></path><path d="M161.31,248.79c0,1.51,1.36,2,3,1L295.74,174a6.09,6.09,0,0,0,3-4.49c0-1.51-1.36-1.95-3-1L164.34,244.3A6.09,6.09,0,0,0,161.31,248.79Z" style="fill:#e0e0e0"></path><path d="M161.31,265.21c0,1.51,1.36,2,3,1l131.4-75.8a6.09,6.09,0,0,0,3-4.49c0-1.51-1.36-2-3-1l-131.4,75.81A6.09,6.09,0,0,0,161.31,265.21Z" style="fill:#e0e0e0"></path><path d="M161.31,281.62c0,1.51,1.36,2,3,1l131.4-75.81a6.06,6.06,0,0,0,3-4.48c0-1.52-1.36-2-3-1l-131.4,75.81A6.06,6.06,0,0,0,161.31,281.62Z" style="fill:#e0e0e0"></path><path d="M161.31,298c0,1.51,1.36,1.95,3,1l131.4-75.81a6.09,6.09,0,0,0,3-4.49c0-1.51-1.36-1.95-3-1l-131.4,75.8A6.09,6.09,0,0,0,161.31,298Z" style="fill:#e0e0e0"></path><path d="M161.31,314.46c0,1.51,1.36,2,3,1l131.4-75.8a6.09,6.09,0,0,0,3-4.49c0-1.51-1.36-2-3-1L164.34,310A6.09,6.09,0,0,0,161.31,314.46Z" style="fill:#e0e0e0"></path><path d="M161.31,330.87c0,1.51,1.36,2,3,1l131.4-75.81a6.06,6.06,0,0,0,3-4.48c0-1.52-1.36-2-3-1l-131.4,75.81A6.06,6.06,0,0,0,161.31,330.87Z" style="fill:#e0e0e0"></path><path d="M161.31,347.29c0,1.51,1.36,1.95,3,1l131.4-75.81a6.09,6.09,0,0,0,3-4.49c0-1.51-1.36-2-3-1l-131.4,75.8A6.09,6.09,0,0,0,161.31,347.29Z" style="fill:#e0e0e0"></path><path d="M161.31,363.71c0,1.51,1.36,2,3,1l131.4-75.8a6.09,6.09,0,0,0,3-4.49c0-1.51-1.36-1.95-3-1l-131.4,75.81A6.09,6.09,0,0,0,161.31,363.71Z" style="fill:#e0e0e0"></path></g><g id="freepik--Padlock--inject-5"><path d="M363.67,245.46a31.32,31.32,0,0,1,4.8-16.46v-9.29a2.94,2.94,0,0,0-1.05-2.52h0a1.64,1.64,0,0,0-.29-.16L337,199.6l0,0,0,0h0a2.87,2.87,0,0,0-2.82.3l-23.75,13.71a9.13,9.13,0,0,0-3.93,7c-.27,6.8-2.49,19.39-14.5,26.32s-14.26-3.22-14.51-9.7c-.1-2.58-1.69-3.62-3.92-2.33l-23.76,13.71a8.93,8.93,0,0,0-4,7v9.29s4.8,1.34,4.8,10.92-7.42,26.95-7.42,51.06c0,12.07,3.83,22.15,11.87,26.78h0l30.19,17.42h0c8,4.72,20.26,4,37.13-5.78,33.58-19.39,48.84-53.21,48.84-77.31S363.67,255,363.67,245.46Z" style="fill:#ECEFF1"></path><path d="M334.08,199.87l-23.75,13.71a9.11,9.11,0,0,0-3.93,7c-.25,6.27-2.15,17.45-11.85,24.58l-18.27-10.55-.1-.05a2.68,2.68,0,0,0-2.71.31l-23.76,13.71a5.9,5.9,0,0,0-.93.67,8.85,8.85,0,0,0-1.93,2.34,8.41,8.41,0,0,0-1.18,4v9.29l1.31.76c1.44,1.16,3.49,3.9,3.49,10.15,0,9.58-7.42,27-7.42,51.06,0,12.07,3.83,22.17,11.87,26.8L285,371c-7.89-4.69-11.64-14.69-11.64-26.65,0-24.11,7.41-41.49,7.41-51.07s-4.8-10.91-4.8-10.91v-9.29a9,9,0,0,1,4-7l23.76-13.71a2.74,2.74,0,0,1,2.62-.36l.1,0a3,3,0,0,1,1.2,2.63c.24,6.49,2.42,16.69,14.51,9.71s14.23-19.52,14.51-26.32a9.09,9.09,0,0,1,3.92-7l23.75-13.71a2.9,2.9,0,0,1,2.71-.35L337,199.6A2.88,2.88,0,0,0,334.08,199.87Z" style="fill:#ECEFF1"></path><path d="M247,265.63h0l0,0,29,16.73v-9.29a8.2,8.2,0,0,1,1.19-4h0L246.85,251.6a8.37,8.37,0,0,0-1.18,4v9.29h0Z" style="opacity:0.1"></path><path d="M294.55,245.16l-18.27-10.55-.1-.05a2.68,2.68,0,0,0-2.71.31l-23.76,13.71a5.9,5.9,0,0,0-.93.67,8.85,8.85,0,0,0-1.93,2.34l30.35,17.52a8.23,8.23,0,0,1,2.85-3l23.76-13.71a2.74,2.74,0,0,1,2.62-.36Z" style="fill:#fff;opacity:0.4"></path><path d="M367.13,217,337,199.6a2.88,2.88,0,0,0-2.88.27l-23.75,13.71a7.79,7.79,0,0,0-2.76,3l30.34,17.51a7.79,7.79,0,0,1,2.76-3l23.75-13.71A2.9,2.9,0,0,1,367.13,217Z" style="fill:#fff;opacity:0.4"></path><path d="M337.91,234.1a9.51,9.51,0,0,0-1.17,4c-.27,6.8-2.5,19.39-14.5,26.32s-14.27-3.22-14.51-9.71a3,3,0,0,0-1.2-2.63l-.1,0-11.88-6.86c9.7-7.13,11.6-18.31,11.85-24.58a9.41,9.41,0,0,1,1.17-4Z" style="opacity:0.1"></path><path d="M285,371l-30.12-17.37c-8-4.63-11.87-14.73-11.87-26.8,0-24.1,7.42-41.48,7.42-51.06,0-6.2-2-8.94-3.45-10.13l29,16.73s4.8,1.34,4.8,10.91-7.41,27-7.41,51.07C273.4,356.32,277.15,366.32,285,371Z" style="opacity:0.2"></path><path d="M329.13,329.74l-13,7.5,2-23.51c-1.56-.82-2.55-2.84-2.55-5.74,0-5.18,3.15-11.19,7-13.44s7,.14,7,5.32a17.73,17.73,0,0,1-2.54,8.69Z" style="fill:#455a64"></path><polygon points="329.13 329.74 317.36 322.94 316.13 337.24 329.13 329.74" style="fill:#37474f"></polygon><path d="M322.63,294.55c-2.54,1.47-4.76,4.55-6,8l10.48,6.05h0a17.73,17.73,0,0,0,2.54-8.69C329.66,294.69,326.51,292.31,322.63,294.55Z" style="fill:#37474f"></path><path d="M337.32,157.87c-6.43-3.71-14.5-3.29-22.17,1.13l-28.33,16.36c-12.28,7.09-21.54,23.13-21.54,37.3v38.25h0c0,1.58,1.06,3.17,3.15,4.38a16.76,16.76,0,0,0,15.17,0c2.09-1.21,3.15-2.8,3.15-4.38h0V212.66c0-6.52,5.15-15.44,10.8-18.7l28.33-16.36.07,0v38.32h0c0,1.59,1.06,3.17,3.15,4.38a16.76,16.76,0,0,0,15.17,0c2.09-1.21,3.15-2.79,3.15-4.38h0V177.64C347.42,168.78,343.74,161.58,337.32,157.87Z" style="fill:#37474f"></path><path d="M326,177.64v38.24c0,1.59,1.06,3.17,3.15,4.38a13,13,0,0,0,3.16,1.26v-47.6L326,177.56Z" style="fill:#263238"></path></g></svg>