<svg id="Layer_1" data-name="Layer 1" xmlns="http://www.w3.org/2000/svg" xmlns:xlink="http://www.w3.org/1999/xlink" viewBox="0 0 1024.03 558"><defs><style>.cls-1{fill:none;}.cls-2{clip-path:url(#clip-path);}.cls-3{fill:url(#linear-gradient);}.cls-4{clip-path:url(#clip-path-2);}</style><clipPath id="clip-path" transform="translate(26.55 -261)"><path class="cls-1" d="M241.26,556.84v20h-18.5v3.23H272.9V556.84Zm0-57v23.28H272.9v-20h21.45l-.17-.18c-2-2.05-4.75-3.05-8.4-3.05Zm-48.15-28.4v31.37h5.78v-8.26h86.9q7.63,0,12.17,4.65t4.54,12.28q0,7.63-4.54,12.28t-12.17,4.64h-51.6q-17.15,0-28.59,11.46t-11.45,28.58v40h134V577.15h-5.78v8.26H217.47V568.48q0-7.63,4.54-12.28c3-3.09,7.08-4.64,12.18-4.64h51.6q17.11,0,28.48-11.46t11.35-28.58q0-17.13-11.35-28.59t-28.48-11.45Zm114.67,0A44.11,44.11,0,0,1,318,479.21a43.35,43.35,0,0,1,12.22,23.9h8.17q27.69,0,44.63,17.23T400,565.25q0,27.68-16.95,44.91t-44.63,17.23H272.9V613.81H241.27v37H230.81V659H338.42q40.68,0,66.94-26.55t26.28-67.22q0-40.66-26.28-67.22t-66.94-26.56ZM175.73,421q-40.66,0-66.93,26.55T82.53,514.75q0,40.68,26.27,67.22t66.93,26.56h13.13V576.89H175.73q-27.66,0-44.62-17.23t-17-44.91q0-27.67,17-44.91t44.62-17.23h65.53v13.58H272.9v-37h10.44V421Z"/></clipPath><linearGradient id="linear-gradient" y1="1080" x2="1" y2="1080" gradientTransform="matrix(0, 454.79, 454.79, 0, -490921.05, 285.82)" gradientUnits="userSpaceOnUse"><stop offset="0" stop-color="orange"/><stop offset="1" stop-color="#f94c66"/></linearGradient><clipPath id="clip-path-2" transform="translate(26.55 -261)"><rect class="cls-1" width="1080" height="1080"/></clipPath></defs><title>D2D Logo Design</title><g class="cls-2"><rect class="cls-3" x="61.9" y="328.77" width="390.37" height="422.46" transform="translate(-308.97 198.3) rotate(-56.79)"/></g><g class="cls-4"><path d="M535.81,504.14q0,14.72-9.45,24.37t-24.08,9.65H464.76V471.59h37.52q14.72,0,24.13,9t9.4,23.58m-11.6,1q0-9.66-6.18-15.79t-15.75-6.14h-26v43.37h26q9.56,0,15.75-5.95t6.18-15.49" transform="translate(26.55 -261)"/><path d="M630.83,538.16l-14.91-.1-11.21-18.62H573.14l7-11.5h17.64l-11.59-19.2-30,49.32H541.27l36.15-60.13a15.55,15.55,0,0,1,3.81-4.29,9,9,0,0,1,5.26-2.24,8.61,8.61,0,0,1,5.26,2.14,15.18,15.18,0,0,1,3.8,4.39Z" transform="translate(26.55 -261)"/><polygon points="712.16 210.59 679.12 255.13 679.12 277.16 667.62 277.16 667.62 254.94 633.71 210.59 648.62 210.59 673.66 243.34 697.15 210.59 712.16 210.59"/><path d="M760.94,489.91a16.85,16.85,0,0,1-6.24,13.65,22.23,22.23,0,0,1-14.52,4.77h-24a16.59,16.59,0,0,0-8.19,1.95,7.51,7.51,0,0,0-4.09,6.73v9.55h55.55v11.6H693.4V517a18.48,18.48,0,0,1,6.92-14.91q6.43-5.37,15.89-5.36h24a9.14,9.14,0,0,0,5.65-1.76,5.85,5.85,0,0,0,2.34-5,6,6,0,0,0-2.34-5,8.84,8.84,0,0,0-5.65-1.85H694.47v-11.6h45.71a22.18,22.18,0,0,1,14.52,4.78,16.73,16.73,0,0,1,6.24,13.54" transform="translate(26.55 -261)"/><path d="M847.68,504.14q0,14.72-9.46,24.37t-24.07,9.65H776.63V471.59h37.52q14.72,0,24.12,9t9.41,23.58m-11.6,1q0-9.66-6.19-15.79a21.43,21.43,0,0,0-15.74-6.14h-26v43.37h26q9.55,0,15.74-5.95t6.19-15.49" transform="translate(26.55 -261)"/><path d="M942.7,538.16l-14.91-.1-11.21-18.62H885l7-11.5h17.64l-11.6-19.2-30,49.32H853.13l36.16-60.13a15.67,15.67,0,0,1,3.8-4.29,9,9,0,0,1,5.26-2.24,8.63,8.63,0,0,1,5.27,2.14,15.33,15.33,0,0,1,3.8,4.39Z" transform="translate(26.55 -261)"/><polygon points="1024.03 210.59 990.99 255.13 990.99 277.16 979.49 277.16 979.49 254.94 945.57 210.59 960.48 210.59 985.53 243.34 1009.02 210.59 1024.03 210.59"/><polygon points="491.32 297.74 498.19 297.74 508.96 339.6 520.86 297.74 528.08 297.74 539.42 339.46 550.26 297.74 557.2 297.74 542.89 347.11 535.66 347.11 524.19 307.37 512.29 347.11 505.13 347.18 491.32 297.74"/><polygon points="613.59 324.73 588.44 324.73 588.44 347.11 581.99 347.11 581.99 297.74 588.44 297.74 588.44 319.41 613.59 319.41 613.59 297.74 620.03 297.74 620.03 347.11 613.59 347.11 613.59 324.73"/><path d="M644.48,608.6c-13.88,0-24.79-10.41-24.79-25.21s10.91-25.22,24.79-25.22,24.8,10.41,24.8,25.22-10.84,25.21-24.8,25.21m0-5.59c10.42,0,18.21-7.58,18.21-19.62s-7.79-19.63-18.21-19.63-18.2,7.51-18.2,19.63S634.07,603,644.48,603" transform="translate(26.55 -261)"/><polygon points="728.49 297.74 728.49 341.87 745.77 341.87 745.77 347.11 722.04 347.11 722.04 297.74 728.49 297.74"/><polygon points="796.92 302.98 776.8 302.98 776.8 319.48 794.79 319.48 794.79 324.8 776.8 324.8 776.8 341.8 796.92 341.8 796.92 347.11 770.35 347.11 770.35 297.67 796.92 297.67 796.92 302.98"/><path d="M813.5,608.6c-9.92,0-16.93-5.52-17.07-13.67h6.87c.43,4.11,3.33,8.22,10.2,8.22,6.24,0,9.92-3.54,9.92-8.22,0-13.31-26.71-4.81-26.71-23.16,0-8.15,6.59-13.67,16.37-13.67,9.42,0,15.58,5.17,16.36,12.68h-7.08c-.43-3.33-3.55-7.09-9.57-7.16-5.31-.14-9.49,2.62-9.49,7.94,0,12.75,26.64,4.81,26.64,23.09,0,7-5.74,14-16.44,14" transform="translate(26.55 -261)"/><path d="M886.33,597.13H864.79l-4,11H854L871.87,559h7.44l17.78,49.09h-6.8ZM875.56,567l-8.93,24.94h17.85Z" transform="translate(26.55 -261)"/><polygon points="955.6 297.74 955.6 341.87 972.88 341.87 972.88 347.11 949.15 347.11 949.15 297.74 955.6 297.74"/><polygon points="1024.03 302.98 1003.91 302.98 1003.91 319.48 1021.9 319.48 1021.9 324.8 1003.91 324.8 1003.91 341.8 1024.03 341.8 1024.03 347.11 997.46 347.11 997.46 297.67 1024.03 297.67 1024.03 302.98"/></g></svg>