<svg id="Layer_1" data-name="Layer 1" xmlns="http://www.w3.org/2000/svg" xmlns:xlink="http://www.w3.org/1999/xlink" viewBox="0 0 567.27 587.2"><defs><style>.cls-1{fill:none;}.cls-2{clip-path:url(#clip-path);}.cls-3{fill:url(#linear-gradient);}</style><clipPath id="clip-path" transform="translate(-259.5 -107.72)"><path class="cls-1" d="M527.32,403.57v20H508.81v3.24H559V403.57Zm0-57v23.27H559v-20H580.4l-.16-.18c-2-2.06-4.75-3.05-8.4-3.05ZM479.17,318.2v31.37H485v-8.25h86.89q7.63,0,12.18,4.64t4.54,12.28q0,7.63-4.54,12.28t-12.18,4.65h-51.6q-17.13,0-28.58,11.45T480.2,415.21v40h134V423.88h-5.77v8.25H503.53V415.21q0-7.63,4.54-12.28t12.17-4.65h51.6q17.13,0,28.49-11.45t11.35-28.59q0-17.13-11.35-28.58T571.84,318.2Zm114.66,0a44.41,44.41,0,0,1,22.47,31.64h8.18q27.67,0,44.63,17.23T686.06,412q0,27.67-16.95,44.9t-44.63,17.23H559V460.54H527.32v37H516.87v8.18H624.48q40.68,0,66.94-26.55T717.69,412q0-40.68-26.27-67.23T624.48,318.2Zm-132-50.49q-40.68,0-66.94,26.55t-26.26,67.22q0,40.66,26.26,67.22t66.94,26.55h13.13V423.61H461.79q-27.68,0-44.62-17.22t-16.95-44.91q0-27.68,16.95-44.91t44.62-17.23h65.53v13.57H559v-37H569.4v-8.19Z"/></clipPath><linearGradient id="linear-gradient" x1="0.34" y1="1080.63" x2="1.34" y2="1080.63" gradientTransform="matrix(0, 454.79, 454.79, 0, -490919.92, -22.82)" gradientUnits="userSpaceOnUse"><stop offset="0" stop-color="orange"/><stop offset="1" stop-color="#f94c66"/></linearGradient></defs><title>D2D Logo Design2</title><g class="cls-2"><rect class="cls-3" x="347.95" y="175.5" width="390.37" height="422.46" transform="translate(-337.42 521.59) rotate(-56.79)"/></g><path d="M347.83,590.46q0,14.73-9.45,24.37t-24.07,9.65H276.79V557.91h37.52q14.71,0,24.12,9t9.4,23.58m-11.59,1q0-9.65-6.19-15.79a21.44,21.44,0,0,0-15.74-6.14h-26v43.37h26q9.54,0,15.74-6t6.19-15.49" transform="translate(-259.5 -107.72)"/><path d="M442.86,624.48l-14.92-.1-11.2-18.61H385.16l7-11.5h17.64l-11.6-19.2-30,49.31H353.29l36.16-60.13a15.5,15.5,0,0,1,3.8-4.29,9,9,0,0,1,5.26-2.24,8.61,8.61,0,0,1,5.26,2.14,15.5,15.5,0,0,1,3.81,4.39Z" transform="translate(-259.5 -107.72)"/><polygon points="238.12 450.19 205.09 494.73 205.09 516.75 193.59 516.75 193.59 494.53 159.67 450.19 174.58 450.19 199.63 482.94 223.12 450.19 238.12 450.19"/><path d="M573,576.24a16.85,16.85,0,0,1-6.23,13.64,22.24,22.24,0,0,1-14.53,4.78h-24A16.7,16.7,0,0,0,520,596.6a7.51,7.51,0,0,0-4.09,6.73v9.55H571.5v11.6H505.42V603.33a18.48,18.48,0,0,1,6.92-14.91,24,24,0,0,1,15.89-5.36h24a9.17,9.17,0,0,0,5.66-1.76,5.83,5.83,0,0,0,2.33-5,6,6,0,0,0-2.33-5,8.87,8.87,0,0,0-5.66-1.85H506.49v-11.6H552.2a22.24,22.24,0,0,1,14.53,4.78A16.75,16.75,0,0,1,573,576.24" transform="translate(-259.5 -107.72)"/><path d="M659.7,590.46q0,14.73-9.45,24.37t-24.08,9.65H588.65V557.91h37.52q14.72,0,24.12,9t9.41,23.58m-11.6,1q0-9.65-6.19-15.79t-15.74-6.14h-26v43.37h26q9.55,0,15.74-6t6.19-15.49" transform="translate(-259.5 -107.72)"/><path d="M754.72,624.48l-14.91-.1L728.6,605.77H697l7-11.5h17.64l-11.6-19.2-30,49.31H665.16l36.15-60.13a15.67,15.67,0,0,1,3.8-4.29,9.07,9.07,0,0,1,5.27-2.24,8.61,8.61,0,0,1,5.26,2.14,15.31,15.31,0,0,1,3.8,4.39Z" transform="translate(-259.5 -107.72)"/><polygon points="549.99 450.19 516.95 494.73 516.95 516.75 505.45 516.75 505.45 494.53 471.54 450.19 486.45 450.19 511.49 482.94 534.98 450.19 549.99 450.19"/><polygon points="17.28 537.33 24.16 537.33 34.92 579.2 46.82 537.33 54.05 537.33 65.38 579.06 76.22 537.33 83.16 537.33 68.85 586.71 61.63 586.71 50.15 546.97 38.25 586.71 31.1 586.78 17.28 537.33"/><polygon points="139.55 564.32 114.4 564.32 114.4 586.71 107.96 586.71 107.96 537.33 114.4 537.33 114.4 559.01 139.55 559.01 139.55 537.33 146 537.33 146 586.71 139.55 586.71 139.55 564.32"/><path d="M456.51,694.93c-13.89,0-24.8-10.42-24.8-25.22s10.91-25.22,24.8-25.22,24.79,10.41,24.79,25.22-10.84,25.22-24.79,25.22m0-5.6c10.41,0,18.2-7.58,18.2-19.62s-7.79-19.62-18.2-19.62-18.21,7.51-18.21,19.62,7.79,19.62,18.21,19.62" transform="translate(-259.5 -107.72)"/><polygon points="254.45 537.33 254.45 581.47 271.74 581.47 271.74 586.71 248.01 586.71 248.01 537.33 254.45 537.33"/><polygon points="322.88 542.58 302.76 542.58 302.76 559.08 320.76 559.08 320.76 564.39 302.76 564.39 302.76 581.39 322.88 581.39 322.88 586.71 296.32 586.71 296.32 537.26 322.88 537.26 322.88 542.58"/><path d="M625.53,694.93c-9.92,0-16.94-5.53-17.08-13.67h6.87c.43,4.1,3.33,8.21,10.21,8.21,6.23,0,9.91-3.54,9.91-8.21,0-13.32-26.7-4.82-26.7-23.17,0-8.15,6.58-13.67,16.36-13.67,9.42,0,15.58,5.17,16.36,12.68h-7.08c-.42-3.33-3.54-7.08-9.56-7.16-5.32-.14-9.5,2.63-9.5,7.94,0,12.75,26.64,4.82,26.64,23.09,0,7-5.74,14-16.43,14" transform="translate(-259.5 -107.72)"/><path d="M698.35,683.45H676.81l-4,11h-6.8l17.85-49.09h7.43l17.78,49.09h-6.8Zm-10.77-30.18-8.93,24.94h17.86Z" transform="translate(-259.5 -107.72)"/><polygon points="481.56 537.33 481.56 581.47 498.85 581.47 498.85 586.71 475.11 586.71 475.11 537.33 481.56 537.33"/><polygon points="549.99 542.58 529.87 542.58 529.87 559.08 547.86 559.08 547.86 564.39 529.87 564.39 529.87 581.39 549.99 581.39 549.99 586.71 523.42 586.71 523.42 537.26 549.99 537.26 549.99 542.58"/></svg>