<svg id="Layer_1" data-name="Layer 1" xmlns="http://www.w3.org/2000/svg" xmlns:xlink="http://www.w3.org/1999/xlink" viewBox="0 0 600 600"><defs><style>.cls-1{fill:url(#linear-gradient);}.cls-2{fill:#0a0f50;}.cls-3{opacity:0.14;isolation:isolate;}.cls-4{fill:#0d1d7d;}.cls-5{fill:#f1d215;}.cls-6{fill:#08e0f9;}.cls-7{fill:#fc03f0;}.cls-8{fill:#eb13e8;}.cls-9{fill:#1b2b86;}.cls-10{fill:#080f4f;}.cls-11{fill:#670e80;}.cls-12{fill:#f607ec;}.cls-13{fill:#3f51b4;}.cls-14{fill:#9b28b2;}</style><linearGradient id="linear-gradient" x1="54.36" y1="146.96" x2="574.92" y2="440.72" gradientUnits="userSpaceOnUse"><stop offset="0" stop-color="#fe9512"/><stop offset="1" stop-color="#fa555b"/></linearGradient></defs><title>Vector_02-01</title><path class="cls-1" d="M183.6,338.4h18.8v45.3H183.6q-58.2,0-95.9-38T50.1,249.4c0-38.9,12.5-70.9,37.6-96.3s57-38,95.9-38H337.7v11.7h-15v53H277.4V160.4H183.5q-39.6,0-63.9,24.7T95.3,249.4c0,26.4,8.1,47.9,24.3,64.3S157.2,338.4,183.6,338.4ZM353.5,232.8c-.1-.1-.2-.2-.2-.3-2.9-2.9-6.8-4.4-12-4.4H277.5v33.3h45.3V232.7h30.7ZM250.9,338.4V343h71.8V309.7H277.4v28.7ZM512.5,225.5q-37.65-38.1-95.9-38H372.7a64.62,64.62,0,0,1,14.7,11.1,62,62,0,0,1,17.5,34.2h11.7q39.6,0,63.9,24.7t24.3,64.3c0,26.4-8.1,47.9-24.3,64.3s-37.5,24.7-63.9,24.7H322.7V391.4H277.4v53h-15v11.7H416.5q58.2,0,95.9-38T550,321.8C550,282.9,537.6,250.8,512.5,225.5Zm-286.1,60c-10.9,10.9-16.4,24.6-16.4,40.9v57.3H401.8V338.8h-8.3v11.8H243.4V326.4c0-7.3,2.2-13.2,6.5-17.6s10.1-6.7,17.4-6.7h73.9c16.4,0,30-5.5,40.8-16.4s16.3-24.6,16.3-40.9-5.4-30-16.3-40.9-24.4-16.4-40.8-16.4H208.5v44.9h8.3V220.6H341.3c7.3,0,13.1,2.2,17.4,6.7s6.5,10.3,6.5,17.6-2.2,13.2-6.5,17.6-10.2,6.7-17.4,6.7H267.4C250.9,269,237.3,274.5,226.4,285.5Z"/><path d="M319.2,490a16.91,16.91,0,0,1-4.7,12.2,16.28,16.28,0,0,1-12,4.8H283.7V473.7h18.8a16.94,16.94,0,0,1,12.1,4.5A16.13,16.13,0,0,1,319.2,490Zm-5.8.5a10.62,10.62,0,0,0-3.1-7.9,11,11,0,0,0-7.9-3.1h-13v21.7h13a11,11,0,0,0,7.9-3A9.88,9.88,0,0,0,313.4,490.5Z"/><path d="M366.7,507.1h-7.5l-5.6-9.3H337.8l3.5-5.8h8.8l-5.8-9.6-15,24.7h-7.5L339.9,477a7.56,7.56,0,0,1,1.9-2.1,5,5,0,0,1,2.6-1.1,4.46,4.46,0,0,1,2.6,1.1,6.74,6.74,0,0,1,1.9,2.2Z"/><path d="M394.1,473.8,377.6,496v11h-5.8V495.9l-17-22.2h7.5l12.5,16.4,11.7-16.4h7.6v.1Z"/><path d="M431.8,482.9a8.31,8.31,0,0,1-3.1,6.8,11.25,11.25,0,0,1-7.3,2.4h-12a7.8,7.8,0,0,0-4.1,1,3.61,3.61,0,0,0-2,3.4v4.8h27.8v5.8h-33V496.5a9.43,9.43,0,0,1,3.5-7.5,11.83,11.83,0,0,1,7.9-2.7h12a4.47,4.47,0,0,0,2.8-.9,2.91,2.91,0,0,0,1.2-2.5,3,3,0,0,0-1.2-2.5,4.47,4.47,0,0,0-2.8-.9H398.6v-5.8h22.9a11.25,11.25,0,0,1,7.3,2.4A8.66,8.66,0,0,1,431.8,482.9Z"/><path d="M475.2,490a16.91,16.91,0,0,1-4.7,12.2,16.28,16.28,0,0,1-12,4.8H439.7V473.7h18.8a16.94,16.94,0,0,1,12.1,4.5A16.13,16.13,0,0,1,475.2,490Zm-5.8.5a10.62,10.62,0,0,0-3.1-7.9,11,11,0,0,0-7.9-3.1h-13v21.7h13a11,11,0,0,0,7.9-3A10.23,10.23,0,0,0,469.4,490.5Z"/><path d="M522.7,507.1h-7.5l-5.6-9.3H493.8l3.5-5.8h8.8l-5.8-9.6-15,24.7h-7.5L495.9,477a7.56,7.56,0,0,1,1.9-2.1,5,5,0,0,1,2.6-1.1,4.46,4.46,0,0,1,2.6,1.1,6.74,6.74,0,0,1,1.9,2.2Z"/><path d="M550.1,473.8,533.6,496v11h-5.8V495.9l-17-22.2h7.5l12.5,16.4,11.7-16.4h7.6Z"/><path d="M283.7,517.3h3.4l5.4,20.9,6-20.9h3.6l5.7,20.9,5.4-20.9h3.5L309.5,542h-3.6l-5.7-19.9-6,19.9h-3.6Z"/><path d="M344.8,530.8H332.2V542H329V517.3h3.2v10.8h12.6V517.3H348V542h-3.2V530.8Z"/><path d="M373.5,542.3a12.6,12.6,0,1,1,12.4-12.6A12.2,12.2,0,0,1,373.5,542.3Zm0-2.8c5.2,0,9.1-3.8,9.1-9.8s-3.9-9.8-9.1-9.8-9.1,3.8-9.1,9.8S368.3,539.5,373.5,539.5Z"/><path d="M402.3,517.3v22.1h8.6V542H399.1V517.3Z"/><path d="M436.5,520H426.4v8.3h9V531h-9v8.5h10.1v2.7H423.2V517.5h13.3Z"/><path d="M458.1,542.3c-5,0-8.5-2.8-8.5-6.8H453c.2,2.1,1.7,4.1,5.1,4.1,3.1,0,5-1.8,5-4.1,0-6.7-13.4-2.4-13.4-11.6,0-4.1,3.3-6.8,8.2-6.8,4.7,0,7.8,2.6,8.2,6.3h-3.5c-.2-1.7-1.8-3.5-4.8-3.6-2.7-.1-4.7,1.3-4.7,4,0,6.4,13.3,2.4,13.3,11.6C466.3,538.8,463.4,542.3,458.1,542.3Z"/><path d="M494.5,536.5H483.7l-2,5.5h-3.4l8.9-24.6h3.7l8.9,24.6h-3.4Zm-5.4-15L484.6,534h8.9Z"/><path d="M515.9,517.3v22.1h8.6V542H512.6V517.3Z"/><path d="M550.1,520H540v8.3h9V531h-9v8.5h10.1v2.7H536.8V517.5h13.3Z"/><path class="cls-2" d="M561.1,131.9c-25.2-27.5-50.2-55.2-75.3-82.9-.4-.6-.7-1.1-1.1-1.6-5.5-5.1-5.5-5.1-11.5.3-12.9,11.6-25.6,23.1-38.5,34.7-2.6,2.2-5.7,4.4-8.2,6.7-.8.8-1.5,1.2-2,1-1.7,3.4-4.8,5.5-7.9,7.2-2.1,1.1-3.5-2.6-5.1-4.2a53.32,53.32,0,0,1-5.4-6.2c-2.1-2.9-3.8-2.4-6.1-.2-7.9,7.4-16.1,14.4-23.8,22-3.3,3.3-5.3,2.8-7.3-.9-3-4.1-6.9-4.8-11.7-3.9a46.57,46.57,0,0,1-11.8.7c-9.2-.8-15.6,4-21.3,10.2-4.1,3.7-8.3,7.5-12.5,11.2-6.1,5.3-11.7,11.4-18.5,15.9-6.6,8-14.9,14.2-22.5,21.2-16.4,15.1-33,29.8-49.5,44.7a40.81,40.81,0,0,1-3.3,2.5c-14,12.8-27.9,25.5-41.9,38.2-12.2,11-24.6,21.9-36.9,32.9a54.63,54.63,0,0,1-10.7,9.7c-1,.9-1.9,2-2.9,2.9-28.1,25.4-56.1,50.8-84.3,76.1-2.9,2.6-4.4,5-4.1,9.2.7,11.5.9,23.1,1,34.6a10,10,0,0,0,3,7.3c18.9,20.5,37.8,41,56.5,61.7,7.2,7.9,14.7,15.5,21,24.1a15.58,15.58,0,0,1,2,1.6c7.6,8.4,15.1,17,22.7,25.4,2,2.3,3.8,4.7,7.4,5.1,12.2,1.2,24.3,2.7,36.4,4.4a8.36,8.36,0,0,0,7.4-2.4c16.6-15.3,33.3-30.4,50-45.5,25.1-22.9,50.1-45.8,75.3-68.6,6.3-5.7,12.5-11.5,18.8-17.2q19.5-18,39-35.8c1.3-1.1,2.4-2.5,4.3-2.6,2.4-4.3,6.5-7.1,10-10.3,15.3-14,30.7-28,46-42,7.4-6.7,14.9-13.3,22.3-20,.7-.5,1.4-1.1,2.1-1.6a114,114,0,0,1,17.3-16c6.6-5,9-11.3,9.9-19,.7-5.8,2-11.5,3.1-17.3-.8-3.4-4.1-4.9-6-7.4-1.3-1.6-2-2.8-.2-4.3L504,218.2c1.4-3,4.2-4.7,6.7-6.6,3.7-2.8,4.9-5.4,1.1-8.9a3.59,3.59,0,0,1-1.1-.2h0c-1.4-1.6-2.5-3.4-4.1-4.7-4-3.2-3.7-5.5.3-9.1,18-16.2,35.7-32.9,53.7-49.2C563.7,136.6,564,135.1,561.1,131.9Z"/><ellipse class="cls-3" cx="179.9" cy="540.7" rx="95.8" ry="15.7"/><path class="cls-4" d="M236.4,339.3c-.1,8.1-.1,8.4,8.1,9.5,15.8,2.2,31.8,3.7,47.5,6.2,12.1,1.9,24.3,2.4,36.3,4.6,4.2.8,5.6-.2,6.5-4.6,2.5-12.6,5.1-25.2,7-38,.5-3.1,2.6-4.8,4.7-6.5,19.1-16.3,37.1-33.9,55.9-50.5,11.1-9.8,22-19.8,33.1-29.6,4.4-3.8,8.8-7.7,13-11.7,2.2-2.1,3.4-2.4,5.7.2,5.9,6.5,11.2,13.5,18,19.1-.3,1.5-.6,2.9-.9,4.4-1.4,6.7-4.6,12.8-6.5,19.3l.1-.1-1.3,1,.1-.1c-.7.7-1.4,1.4-2.2,2.1l.3.2-.2-.2-2.2,1.9-.1.1c-1.1.9-2.5,1.7-3.1,3.1l.1-.1a38,38,0,0,0-8.7,7.8l-.1.1c-2.6,1.5-4.5,3.7-6.5,5.9l.1-.1c-1.4,1.3-2.9,2.6-4.3,3.9h-.1c-.7.6-1.4,1.2-2.1,1.9l-.1.1a10.59,10.59,0,0,1-1,1.2l.1-.2a39.21,39.21,0,0,0-9.4,8.3l.1-.1-1.8,1.5h0a7.14,7.14,0,0,0-3.2,3h0c-2.4,1-3.9,3-5.5,4.9h.1a12,12,0,0,0-1.1,1.2l.1-.2a2.66,2.66,0,0,0-2.3,2.1l.1-.1a2.16,2.16,0,0,0-1.8,1.5,9.43,9.43,0,0,0-1,1,21.92,21.92,0,0,0-6.6,5.9l.1-.1-1.8,1.5h0c-1.5,1.3-2.9,2.6-4.4,3.9l.1-.1c-.4.4-.7.8-1.1,1.2l.1-.1c-.4.1-.8.1-1.2.2-1.7.6-3.9-2.6-4.4-.6-2.1,7-4.6,1.1-6.9.5,3.9-4.9,9-8.6,13.5-12.8,17-15.8,34.1-31.7,51.3-47.3,7.2-6.5,13.4-13.1,14.8-23.3.6-4.2-1.5-6.8-4.1-8.8s-4.2,1.3-5.8,2.8c-5.6,5.1-11.1,10.3-16.7,15.4q-36.6,33.9-73.3,67.7c-1.3,1.2-2.7,2.3-3.1,4.1-2.1,9.3-4.2,18.7-6.4,28.5,3.1-1.3,4.5-3.7,6.5-5.2,6.8-5.3,12.1-12.3,19.3-17.1,1.1,3,4.3,6.2-1.7,8-1.3.4-2.5,3.1-2,5.4-8.1,8.3-16.8,15.9-25.5,23.4-2.9-.4-5.2,4.1-8.4,1.1-1.9,3.6-5.6,3.6-8.9,4.4-.3.1-.8,1-.7,1.2,1.9,4.4-2.4,7.6-2.1,11.6-1.5,1.7-3,3.3-4.4,5h0a7.19,7.19,0,0,0-3.4,2.8l.3.3-.3-.3c-.7.7-1.4,1.4-2.1,2,.1.1.1.2.2.3-.1-.1-.2-.2-.2-.3a10.35,10.35,0,0,0-3.7,3.5h0c-.4.3-.7.7-1.1,1h0a27.87,27.87,0,0,0-7.6,6.9l.3.3-.3-.4c-3.1,1.3-4.6,5-8.4,5.5-15.9,2-31.8,5-47.9,5.4-9.7,0-18.9-3.5-28.3-5.2-8.6-1.6-17.1-3.7-25.6-5.8a7.29,7.29,0,0,0-7.1,1.9c-10.1,9.1-20.3,18.1-30.3,27.2-10.2,9.3-20.2,18.7-30.3,28-2.7,2.5-5.3,3-7.9-.2-3.4-3.9-6.9-7.6-10.3-11.5-1.7-2-2.3-3.6.3-6q23.1-21.45,46.7-42.1c5.3-4.7,10.4-9.6,15.5-14.4,1.6-1.4,2.8-3,2.5-5.4-1.8-14.3-3.4-28.6-5.6-42.9-.9-5.8.2-11.4-.1-17.2l.2.2c1.8-1.5,1.7-3.2.6-5.1,1.9-8.6,4.2-17.1,5.5-25.7,1.6-9.9,6.1-17.3,13.8-24.2q74-65.7,146.9-132.6c8.8-8.1,19-10.3,29.7-12.4,3.4.3,3.8,4.4,6.7,5.4-1.3,2.1-3.2,3.9-3.2,6.6-5-2.6-17.6-1.1-21.8,2.6-10.2,9-20.3,18.1-30.4,27.1q-34.95,31-69.8,62.1c-1,.9-2.8,1.7-2.3,3.1.6,1.9,2.7,1.1,4.1.9,8.4-.9,16.7-2,25.1-3.1,2.9,0,3.3,1.9,3.2,4.2h0c-3.6,0-5.5,2.4-6.9,5.1-.7,1.4-.9,2.9-2.8,3.1-3.7.4-4.5,3.1-4.7,6.2-8.5.7-17,1.5-25.5,2.1-3.3.2-4.6,1.6-4.5,4.8.1,4.6,0,9.2,0,13.8h-1c-3.3.2-8.2-1-4,5.1.8,1.2.2,2.4-.8,3.2-3.5,3.2-1.5,4.5,1.8,5.4,1.7.4,3.4.6,5.1.9.2,2.8-.7,5.6.9,8.2,0,5.2.1,10.3.1,15.5.1,3.1-.5,6.3.9,9.3-2.2,6.9-.3,13.8.1,20.7Zm-19.6-72.2a12.13,12.13,0,0,0-1.4-.5c-7.3,7-14.7,14-22,21-1.4,1.3-1.5,3-1.7,4.7-1.9,28.8-3.8,57.7-5.8,86.5a4.83,4.83,0,0,0,2.1,4.5c3.5,2.6,6.1,6.1,8.7,9.5a5.58,5.58,0,0,0,4.8,2.4l23.7.9c18.8.7,37.5,1.2,56.3,2.1,6.3.3,11.4-.8,15.8-5.5,2.3-2.5,5.3-4.4,7.7-6.9,3.2-3.3,7.6-5.6,10.5-10-6-.8-11.3-1.7-16.6-2.2-25.7-2.8-51.3-5.6-77-8.2-3.4-.3-4.3-1.7-4.3-4.8-.2-21-.6-42-.8-63C216.7,287.3,216.8,277.2,216.8,267.1Z"/><path class="cls-4" d="M145.4,514.8c-.6-.8.4-3.4-2-2.1-1.1.6-1.7.5-1.9-.4-.7-4.3-4.2-4.2-7.1-5.7-3.4-1.8-6.5-5.5-8.3-9.5-.9-2,.7-3.1,2-4.3,15.1-14.2,31-27.6,46.1-41.9,7.6-7.2,15.8-13.7,23.2-21.1,1.6-1.6,3.7-1.3,5.8-.8,12.8,2.6,25.5,5.4,38.2,8.5,10.8,2.7,21.7,4.9,32.7,8.1l-3,.6c-2.6,1.5-5.4-1.6-8,.3h-.2c-.4.4-.7.8-1.1,1.2l.1-.1c-.4.3-.9.6-1.3.9h-.1l-.9,1.2.1-.1a4.94,4.94,0,0,0-2.8,2.5h0c-.4.3-.8.7-1.2,1l-.9.9a35.47,35.47,0,0,0-7.7,6.8l.2.2-.3-.1c-.4.3-.7.7-1.1,1v-.1l-1.6,1.6h0c-1.5,1.3-2.9,2.6-4.4,3.9h0c-16.7,15.3-33.5,30.4-50,45.8-3.7,3.4-7.4,5.7-12.4,5.8-8,0-16,2.1-24,.4-1.3-.8-2.5-1.7-3.8-2.5S146.9,515.5,145.4,514.8Zm5.8-12.3c.1.5.3.9.4,1.4,10.7-1,21.4-2,32.1-3.1a5,5,0,0,0,2.7-1.4q21.45-20.25,42.7-40.6c.7-.7,1.7-1.4,1.2-2.6-.4-.9-1.4-.8-2.3-.9-7-.7-14-1.4-21.1-2.2a7.64,7.64,0,0,0-6.9,2.6c-4.9,4.9-9.9,9.5-14.9,14.3C173.9,480.9,162.5,491.7,151.2,502.5Z"/><path class="cls-5" d="M148.7,286.7c2.6-1.1,3.8-4,7.1-4.9,1.3,10.5,2.5,20.9,3.9,31.2,2.1,15.3,3.3,30.7,6.1,45.9a51.62,51.62,0,0,0,2,15.2c2.3,8.6-3,13.1-8.8,18.2-19.6,17.3-38.8,35.2-58.3,52.7-3,2.7-2.6,4-.1,6.6,6.7,6.9,13.2,14.1,19.4,21.5,2.5,2.9,3.9,2.5,6.4.3,20.4-18.6,41-36.9,61.1-55.7,4.5-4.2,8.4-5.4,14.5-3.9,29.4,7,59,13.4,88.5,20,1.2.3,2.3.7,3.8,1.2-3.2,4.4-6.1,7-12.3,5.5-26.8-6.5-53.7-12.3-80.5-18.5-2.8-.7-4.7-.3-6.8,1.7-23.8,21.8-47.7,43.3-71.5,65.1-3,2.7-4.3,2.4-6.8-.4-10.5-11.9-21.1-23.6-31.9-35.3-2.2-2.4-2.1-3.5.3-5.6,23.2-20.9,46.2-41.9,69.4-62.7,3.9-3.5,5.7-6.5,4.8-12.2-2.8-17.5-4.6-35.2-6.8-52.8a10.56,10.56,0,0,0-.6-1.9c-.1-2-.2-4.1-.4-6.1C150.6,303.2,148.5,295.1,148.7,286.7Z"/><path class="cls-6" d="M366.3,123.8c-10.7,2.1-20.9,4.3-29.7,12.4q-72.9,66.9-146.9,132.6c-7.7,6.9-12.2,14.2-13.8,24.2-1.4,8.7-3.7,17.2-5.5,25.7l-.6,5.1-.2-.2c-2.2,2.7-2.2.5-2.5-1.1-.9-6.8-1.8-13.6-2.7-20.5-.9-7.5-1.7-15.1-2.7-22.6a6.07,6.07,0,0,1,2.1-5.8q85.65-77.4,171.3-154.8a13.37,13.37,0,0,1,9.2-3.8c3.4-.1,6.9-.5,10.3-.7C359.7,113.9,365,118.2,366.3,123.8Z"/><path class="cls-4" d="M143.6,311.2c2.1,1.5,2.2,3.9,2.5,6,1.5,12.9,2.9,25.9,4.4,38.9.6,4.8,1.3,9.5,2,14.3a11.41,11.41,0,0,1-4.5,11.3c-3.5,3-6.7,6.3-10.9,8.4a5.76,5.76,0,0,1,1.4-7.9c4.4-2.6,5.6-8,10.6-10-2.7-2-6.6-1.9-6.8-6.9-1.7,10.2-5.6-.6-8.2,2.2,3.4,3.9,1.9,7.9-1.9,9.6-5.3,2.3-7.9,7.1-11.4,10.7-4.8,5-11.2,8.2-15.1,14.1-.5.7-1.6,1.7-2.3.1-.4-.9.5-2.9-1.7-2.2-1.4.5-1.7,2-1.7,3.5.1,2.7,5.4,8.4,8.3,8.7,1.6.2,1.7-.9,1.2-1.9a14.31,14.31,0,0,0-1.9-2.4c-.8-.9-1.8-1.9-.7-3.1s2.1-.3,3.1.4,2.1,3.1,3.7,1.4c1.1-1.1-.7-2.4-1.4-3.5-.4-.6-.8-1.2-.1-1.8.3,0,.7-.2,1-.1,7.4,2.3,7.4,2.3,9.2-5.2.3-1.4,1-.9,1.8-.9,5,.1,7.2-2.2,5.2-7.5,3.2.6,3.9,3.3,5.7,4.8-4.3,5.5-9.6,9.9-14.8,14.5-6.9,6.1-13.7,12.2-20.5,18.4,2-5.8.2-10.7-3.4-15.2-1-1.2-2.2-3.2-3.5-1.2-2.8,4.5-7,2.5-10.7,2.9a30.84,30.84,0,0,1,2.4-2.7c11.8-10.3,23.4-20.8,35.5-30.6,6.2-5,10-10.3,8.7-18.7-.6-4.2-.1-8.6-.1-12.9,0-1.3.6-3.1-1-3.6-1.2-.4-2,1.1-2.9,1.8-12.6,10.9-25,22.1-38,32.5a24.54,24.54,0,0,0-9.5,16.7c-1,7.7-2.6,15.4-4.2,24.1,4-2.2,5.9-5.4,9.1-6.6.8,2.6,3.1,6.3,2.2,7.5-4.4,5.5.5,5.5,3.4,7s6,.9,9,1.1c-4.4,6.3-11.1,10-16.2,15.5-1,1.1-2.8,1.6-3.7.4-2.7-3.5-8-5.1-7.8-10.8.1-3.6-4-1.7-5.3-3.5.1-1.4.4-2.7-.5-4-6.2-9.6-6.2-19.9-3.5-30.5a29.78,29.78,0,0,0,.7-5.1,11.59,11.59,0,0,1,4.5-8.8c12.9-11.2,25.5-22.6,38.4-33.9C116.6,334.7,130.1,323,143.6,311.2Z"/><path class="cls-6" d="M143.6,311.2c-13.5,11.8-27,23.5-40.4,35.3-12.8,11.3-25.5,22.7-38.4,33.9a11.75,11.75,0,0,0-4.5,8.8,28.48,28.48,0,0,1-.7,5.1c-2.7,10.6-2.7,20.9,3.5,30.5.9,1.3.6,2.6.5,4-4.7-5-9.3-10.1-14-15.1a5.63,5.63,0,0,1-1.4-4.3l-.6-27.3c-.1-2.1.2-3.9,2-5.5l91.2-82.2c.4-.3.8-.5,2.3-1.4C142.9,299.5,146,305.1,143.6,311.2Z"/><path class="cls-7" d="M408.1,313.4a9.43,9.43,0,0,0,1-1,2.16,2.16,0,0,0,1.8-1.5l-.1.1a2.45,2.45,0,0,0,2.3-2.1l-.1.2a12,12,0,0,0,1.1-1.2H414c3.3.1,4.8-2,5.5-4.9h0a3.18,3.18,0,0,0,3.2-3h0a2,2,0,0,0,1.8-1.5l-.1.1c4.9-.8,7.2-4.5,9.4-8.3l-.1.2a10.59,10.59,0,0,1,1-1.2l.1-.1c1.6.3,2.3-.3,2.1-1.9h.1c2.9.3,4.1-1.3,4.3-4l-.1.1c3.3-.7,6.2-1.9,6.5-5.9l.1-.1c4.5-.8,7-3.9,8.7-7.8l-.1.1c1.9-.2,3.5-.7,3.1-3.1l.1-.1c1.5.3,2.3-.4,2.2-1.9l.2.2-.3-.2c1.5.1,2.2-.6,2.2-2.1l-.1.1,1.3-1-.1.1c1.9-.8,2.7-2.3,3.3-4.2,1-3.2,2.6-6.3,3.5-9.6s3.1-3.7,5.9-2.8l-.1-.1c.4.4.7.8,1.1,1.2v-.1c.8,8.2-1.4,16-3.2,23.9l-1,1a1.81,1.81,0,0,0-1.7,1.6h.1c-4,0-5.7,2.5-6.6,5.9l-.9.9c-2.9-.2-3.9,1.6-4.3,4h0c-1.6.1-2.9.5-2.7,2.5v-.1l-1.3,1,.1-.1c-2.7,0-4,1.5-4.4,4,0,0,.1-.1,0-.1l-1.1,1.1h0c-5.1,1.3-8.4,4.7-10.4,9.4l-.9.9c-2.9.2-4.8,1.4-4.8,4.6l-.1.1c-3.5-.4-4.9,1.8-5.5,4.7l.1-.1-1.1,1.1.1-.1a2.19,2.19,0,0,0-2.2,2h0c-1.6,0-2.9.4-2.7,2.5v-.1c-.4.4-.8.7-1.2,1.1l.1-.1c-2.2-.3-3.2.8-3.4,2.9l.1-.1-1.2,1.2c-.3.3-.7.6-1,.9l-1.1,1.1h0c-2.5.5-5,1.1-4.9,4.4l.1-.1-1,1.3v0c-1.8-.4-2.4.6-2.5,2.2a.89.89,0,0,1-.8.5c-2.1.3-3.7,1.1-3.7,3.6l-.2-.4.2.4a1.5,1.5,0,0,0-1.6,1.5h0c-3.9.4-6.2,2.7-7.1,6.4,0,0,.1-.1,0-.1-.4.4-.8.7-1.2,1.1h.1c-1.6.1-2.7.7-2.8,2.5l.1-.1c-.3.4-.7.7-1,1.1l-.1.1c-1.5-.3-2.2.3-2.2,1.9l-.3-.3.3.3c-4.3-.4-6.5-1.3-3.2-6.2a31.13,31.13,0,0,1,5.6-6.3c3.3-2.8,6-5.2.9-8.7h.1a14.7,14.7,0,0,1,1.3-1l-.1.1c.4-.4.7-.8,1.1-1.2l-.2.1a14.7,14.7,0,0,1,1.3-1l-.1.1c.4-.4.7-.8,1.1-1.2l-.1.1c2.5-.1,3.9-1.5,4.4-3.9h0a2,2,0,0,0,1.8-1.5l-.1.1C405.3,319.1,407,316.6,408.1,313.4Z"/><path class="cls-4" d="M410.2,111.6c4.5,0,5.7,4,8.1,6.5,6.7,7.1,13.5,14.2,20.2,21.3,4.9,5.3,4.7,7.7-1,12a92.79,92.79,0,0,0-11.9,10.7c-2.9,3.1-5.5,2.8-8.2-.3-8.3-9.4-16.6-18.8-25-28.1-1.6-1.8-1.8-3.2.2-4.7,1.3-1,2.3-2.1,2.2-3.8C401.5,122.5,405.8,117,410.2,111.6Z"/><path class="cls-8" d="M153.7,519.2c8,1.8,16-.3,24-.4,5.1,0,8.8-2.4,12.4-5.8,16.6-15.4,33.3-30.6,50-45.8.7,1.6,0,5.4,3,3.6,2.8-1.7,3.6-1.3,4.9,1.2.8,1.6,2.4,1.7,4,1.8-11.3,11.5-23.7,21.9-35.5,32.8-8.3,7.7-16.8,15.2-25,23a9.79,9.79,0,0,1-8.8,3c-8.3-1.1-16.7-2.2-25-3.4-1.9-.3-4.3-.2-5.2-2.6l.2-.3c10.5,2.8,21.4,2.6,32,4.8.9.2,2.4-.4,2.2-.7-2.4-3.1-.3-6.3-.4-9.4,0-1.1-1-1.2-2-.9-8.8,2.6-17.8.5-26.6,1.2-1.7.1-3.5.1-4.5-1.8Z"/><path class="cls-6" d="M425.8,103.6C442,89.2,458.3,75,474.3,60.4c3.2-2.9,5.1-3.1,7.5.5,1.4,2.1,4,3.3,4.8,5.9-4.4,3.8-8.9,7.5-13.3,11.4-13.7,12.4-27.8,24.5-40.9,37.6-3.2-3.1-6.6-6.1-8.7-10.2h-.1a11.41,11.41,0,0,0,1.1-1.1A10.63,10.63,0,0,0,425.8,103.6Z"/><path class="cls-7" d="M323.3,408.8c-.3.3-.7.6-1,.9a1.73,1.73,0,0,0-1.7,1.6l.1-.1a10.63,10.63,0,0,1-.9,1.1l-.2.2c-1.6-.4-2.3.2-2.1,1.9h-.1c-4.3,1.3-8.8,2.5-9.2,8.3h-.1c-1.5-.2-2.3.4-2.1,2-.1-.1-.2-.2-.3-.2.1.1.2.1.3.2-3.6,0-6.2,3-10.6,2.3-7.6-1.2-14.9-3.6-22.3-5.3-3.8-.9-8-.8-12.8-3.3,12.8-1.6,24.3-3.1,35.9-4.5,4.9-.6,8.7-2.4,10.1-7.6l.3.4-.3-.3c4.2-.4,6.2-3.3,7.6-6.9h0c.4-.3.7-.7,1.1-1h0c2-.4,3.9-.8,3.7-3.5.1.1.2.2.2.3-.1-.1-.1-.2-.2-.3,1.5.2,2.2-.5,2.1-2l.3.3-.3-.3c2.2.3,3.2-.8,3.4-2.8h0c2.5-.1,3.8-2.2,5.7-3.4,3.8-2.2,11.6-.1,13.5,3.9v-.1c-.3.4-.7.8-1,1.2l-.1.1c-3.5-.4-4.9,1.8-5.5,4.7l.1-.1a2.19,2.19,0,0,0-2.2,2h0l-1.1,1.1h0c-4.9.8-7.6,4-9.3,8.4l.1-.1A7.29,7.29,0,0,0,323.3,408.8Z"/><path class="cls-4" d="M135.1,392.2c-1.8-1.5-2.5-4.2-5.7-4.8,2,5.3-.2,7.5-5.2,7.5-.8,0-1.5-.5-1.8.9-1.7,7.6-1.8,7.6-9.2,5.2-.3-.1-.6.1-1,.1-.7.6-.3,1.2.1,1.8.7,1.1,2.5,2.3,1.4,3.5-1.6,1.7-2.5-.6-3.7-1.4-1-.7-2-1.7-3.1-.4s0,2.2.7,3.1a14.31,14.31,0,0,1,1.9,2.4c.5,1,.4,2.1-1.2,1.9-2.9-.3-8.2-6-8.3-8.7,0-1.5.3-3,1.7-3.5,2.2-.7,1.3,1.2,1.7,2.2.7,1.6,1.9.6,2.3-.1,3.8-5.9,10.3-9.1,15.1-14.1,3.5-3.6,6.1-8.4,11.4-10.7,3.7-1.6,5.2-5.7,1.9-9.6,2.7-2.8,6.5,8,8.2-2.2.2,4.9,4.1,4.8,6.8,6.9-5,2-6.2,7.4-10.6,10a5.76,5.76,0,0,0-1.4,7.9C136.4,390.8,135.7,391.5,135.1,392.2Z"/><path class="cls-8" d="M391.2,328.8c5.1,3.5,2.4,6-.9,8.7a30.81,30.81,0,0,0-5.6,6.3c-3.3,5-1.1,5.8,3.2,6.2a19.4,19.4,0,0,1-5.4,4.9c-.3-2.3-2.4-5.8-3.3-4.5-2.4,3.7-7.7,3.2-9.2,7.3s-4,4.8-7.6,3.1c-.9-.4-2-1.1-2.8-.2s.2,1.8.6,2.7,1.7,2.1.5,3.2c-.7.7-1.6.1-2.3-.3-.9-.5-1.9-1.4-2.8-.5-1.2,1.2,0,2.2.6,3.1s1.7,1.6.6,2.6-2,0-2.7-.7a8.55,8.55,0,0,0-5.9-2.7c.3-.5.6-1,.9-1.6,8.7-7.6,17.4-15.2,25.5-23.4C379.9,338.3,385.6,333.6,391.2,328.8Z"/><path class="cls-7" d="M252,473.8c-1.6-.1-3.2-.2-4-1.8-1.2-2.4-2.1-2.8-4.9-1.2-3,1.8-2.3-2-3-3.6h0c3.1.6,4-1.4,4.4-3.9h0a1.64,1.64,0,0,0,1.6-1.6v.1a1,1,0,0,0,1.1-1l.3.1-.2-.2c4.5-.1,6.3-3.2,7.7-6.8l.9-.9c.4-.3.8-.7,1.2-1h0a2.61,2.61,0,0,0,2.8-2.5l-.1.1.9-1.2h.1c.4-.3.9-.6,1.3-.9l-.1.1c.4-.4.7-.8,1.1-1.2h.2c4.5,2.5,10.1,1.3,14.5,4.1l-.2.1a1.5,1.5,0,0,0-1.6,1.5h0c-2,.4-4,.7-3.6,3.6l-.1.1c-1.6-.3-2.3.4-2.1,2l-.2-.3.2.3c-1.5-.2-2.2.4-2.2,2l.1-.1c-.5.3-.9.6-1.4.9l.1-.1c-4.6-.3-6.4,2.5-6.9,6.6l-.2-.2.2.2c-3.5-.2-4.9,1.8-5.5,4.8l.1-.1a12,12,0,0,1-1.2,1.1A12.61,12.61,0,0,0,252,473.8Z"/><path class="cls-7" d="M348,368.1a8.79,8.79,0,0,1,5.9,2.7c.7.7,1.7,1.5,2.7.7,1.1-1-.1-1.8-.6-2.6-.6-1-1.9-2-.6-3.1.9-.8,1.9,0,2.8.5s1.6,1,2.3.3c1.2-1.1,0-2.2-.5-3.2s-1.5-1.7-.6-2.7,1.9-.2,2.8.2c3.7,1.7,6.2.9,7.6-3.1s6.8-3.6,9.2-7.3c.9-1.3,3,2.2,3.3,4.5v-.1a11.41,11.41,0,0,0-1.1,1.1l.1-.1a2.12,2.12,0,0,0-2.2,2h0a2.16,2.16,0,0,0-2.1,1.9l-.1.3-.3.1c-3.3.1-5,2-5.8,5.1l-1,1a11,11,0,0,0-1.1,1h0c-1.5.2-2.6.9-2.8,2.5l.1-.1-.9,1.2-.1.1c-1.5-.3-2.2.3-2.2,1.9l-.3-.4.3.4c-2.8-.2-4,1.3-4.4,3.9h0a2.05,2.05,0,0,0-2.1,2.1h0a7.52,7.52,0,0,1-1.5,0c-2.7-.6-3.6,5.5-6.5,2.2-1.6-1.9-1.7-5.1-2.4-7.8a29.09,29.09,0,0,1-.4-3.1h0c1.6,0,2.4-.7,2.5-2.1Z"/><path class="cls-6" d="M391.4,121.6c-2.6.9-3.5,4.7-7,4.3-4.5-6.2-4.6-6.2,1.3-11.7,4.4-4.1,9-7.9,13.2-12.2,2.8-2.9,4.1-1.3,6,.8s3.8,3.3.5,5.9C400.4,112.7,396,117.3,391.4,121.6Z"/><path class="cls-8" d="M473.5,224c-1.7-2-2.2-3.7.3-5.8,5.9-5,11.7-10.1,17.3-15.5,2.9-2.9,4-.4,5.6,1.2,1.8,1.8,3.5,3.5.4,5.7a33.07,33.07,0,0,0-3.3,3.2c-4.1,3.6-8.4,7-12.2,10.8C478.8,226.7,476.4,227.6,473.5,224Z"/><path class="cls-4" d="M96.7,427.2c-3-.2-6.1.5-9-1.1s-7.8-1.5-3.4-7c.9-1.2-1.4-4.9-2.2-7.5h0c3.7-.4,7.9,1.6,10.7-2.9,1.2-2,2.5-.1,3.5,1.2,3.6,4.5,5.5,9.4,3.4,15.2Z"/><path class="cls-8" d="M306.3,406.2c-1.3,5.2-5.1,7.1-10.1,7.6-11.6,1.4-23.1,2.9-35.9,4.5,4.8,2.5,9,2.4,12.8,3.3,7.4,1.7,14.7,4.1,22.3,5.3,4.4.7,6.9-2.3,10.6-2.3-2.9,4.6-6.7,5.3-11.9,3.9-13.5-3.4-27.1-6.3-40.6-9.4-1.4-.3-3.3.2-3.6-2.1,16.1-.4,32-3.4,47.9-5.4C301.7,411.2,303.2,407.5,306.3,406.2Z"/><path class="cls-8" d="M345.7,370.1a16.45,16.45,0,0,0,.4,3.1c.7,2.6.7,5.9,2.4,7.8,2.9,3.3,3.8-2.7,6.5-2.2a7.52,7.52,0,0,0,1.5,0,96.94,96.94,0,0,1-13.1,11.7c-1.9-3.9-9.7-6.1-13.5-3.9-1.9,1.1-3.2,3.3-5.7,3.4,1.5-1.7,3-3.3,4.4-4.9C334.3,380,340,375.1,345.7,370.1Z"/><path class="cls-9" d="M369.8,135.8c0-2.7,2-4.5,3.2-6.6a59.06,59.06,0,0,0,9.3,9.4v1c0,.3.1.7.1,1-3.7.4-6.7-2.7-10.4-2.1A3.4,3.4,0,0,1,369.8,135.8Z"/><path class="cls-8" d="M477.6,245.1c-2.8-.9-4.9-.6-5.9,2.8s-2.5,6.3-3.5,9.6c-.6,1.9-1.4,3.4-3.3,4.2,1.9-6.5,5.1-12.6,6.5-19.3C475.7,238,475.6,243.8,477.6,245.1Z"/><path class="cls-8" d="M475.4,270c1.7-7.9,4-15.7,3.2-23.9,1.2.9,2.7,1.8,2.3,3.7-1.1,6.3-2.3,12.5-3.6,18.7C477.1,269.1,476,269.5,475.4,270Z"/><path class="cls-10" d="M148.7,286.7c-.2,8.4,1.9,16.6,2.7,24.9.2,2,.3,4.1.4,6.1-2.6-6.4-2.5-13.4-3.2-20.1C148.1,294,145.6,290.2,148.7,286.7Z"/><path class="cls-8" d="M145.4,514.8c1.5.6,3,1.3,4.6,1.9a2.65,2.65,0,0,0-.5.6c-2.9,0-2.5,1.2-.9,2.5,1.8,1.5,3.3,3,3.3,5.5l-.3.2-7.4-7.7C141.9,515.8,143.3,515.2,145.4,514.8Z"/><path class="cls-8" d="M277.5,450.5c-4.4-2.8-10-1.5-14.5-4.1,2.6-1.8,5.4,1.3,8-.3a11.6,11.6,0,0,0,6.1,1c.5.1,1.1.3,1.6.4C280.9,449.7,278.6,449.8,277.5,450.5Z"/><path class="cls-8" d="M441.3,301.2c2-4.7,5.3-8.1,10.4-9.4A57.82,57.82,0,0,1,441.3,301.2Z"/><path class="cls-8" d="M308.3,422.6c.4-5.8,4.9-6.9,9.2-8.3Z"/><path class="cls-8" d="M324.4,407.8c1.7-4.4,4.4-7.6,9.3-8.4C330.8,402.4,328,405.5,324.4,407.8Z"/><path class="cls-8" d="M259.6,467.1c.5-4.1,2.2-6.8,6.9-6.6C264.7,463.1,262.1,465.1,259.6,467.1Z"/><path class="cls-8" d="M394.8,343.6c.9-3.7,3.2-6,7.1-6.4A30.77,30.77,0,0,1,394.8,343.6Z"/><path class="cls-10" d="M167.8,374.2a52.5,52.5,0,0,1-2-15.2A31.43,31.43,0,0,1,167.8,374.2Z"/><path class="cls-8" d="M466.1,278.5c.9-3.4,2.6-5.9,6.6-5.9A22.06,22.06,0,0,1,466.1,278.5Z"/><path class="cls-8" d="M370.9,365.3c.7-3,2.4-5,5.8-5.1A17.68,17.68,0,0,1,370.9,365.3Z"/><path class="cls-8" d="M429.9,311.5c.7-2.9,2-5.1,5.5-4.7C433.7,308.4,432.3,310.5,429.9,311.5Z"/><path class="cls-8" d="M254,471.9c.6-3,2.1-5.1,5.5-4.8A18.17,18.17,0,0,1,254,471.9Z"/><path class="cls-8" d="M336.8,396.4c.7-3,2-5.1,5.5-4.7C340.7,393.4,339.1,395.3,336.8,396.4Z"/><path class="cls-8" d="M411.5,328.3c-.1-3.4,2.4-3.9,4.9-4.4A13.89,13.89,0,0,1,411.5,328.3Z"/><path class="cls-8" d="M435.6,306.7c0-3.2,1.9-4.4,4.8-4.6C438.7,303.6,437.2,305.2,435.6,306.7Z"/><path class="cls-8" d="M452.7,290.8c.4-2.5,1.7-4,4.4-4A9.46,9.46,0,0,1,452.7,290.8Z"/><path class="cls-8" d="M358.5,376.7c.4-2.5,1.6-4.1,4.4-3.9A12.67,12.67,0,0,1,358.5,376.7Z"/><path class="cls-8" d="M460.9,283.4c.4-2.4,1.5-4.2,4.3-4A12.65,12.65,0,0,1,460.9,283.4Z"/><path class="cls-8" d="M419.6,320.9c.1-2.1,1.2-3.2,3.4-2.9A6.46,6.46,0,0,1,419.6,320.9Z"/><path class="cls-8" d="M403.5,335.7c0-2.5,1.6-3.3,3.7-3.6C406.5,333.9,404.9,334.7,403.5,335.7Z"/><path class="cls-8" d="M272.1,455.7c-.4-2.8,1.7-3.1,3.6-3.6A10.34,10.34,0,0,1,272.1,455.7Z"/><path class="cls-8" d="M408.1,331.7c.1-1.6.7-2.6,2.5-2.2C409.8,330.2,408.9,330.9,408.1,331.7Z"/><path class="cls-8" d="M458.2,285.9c-.2-2,1.1-2.4,2.7-2.5A5.45,5.45,0,0,1,458.2,285.9Z"/><path class="cls-8" d="M424.1,317c-.2-2.1,1.1-2.5,2.7-2.5A5.48,5.48,0,0,1,424.1,317Z"/><path class="cls-8" d="M317.6,414.3c-.2-1.6.5-2.2,2.1-1.9A19.92,19.92,0,0,0,317.6,414.3Z"/><path class="cls-8" d="M363,372.8c-.1-1.6.6-2.2,2.2-1.9Z"/><path class="cls-8" d="M306.1,424.6c-.1-1.6.6-2.2,2.1-2C307.5,423.3,306.8,423.9,306.1,424.6Z"/><path class="cls-8" d="M269.9,457.7c-.2-1.6.5-2.3,2.1-2C271.3,456.4,270.6,457.1,269.9,457.7Z"/><path class="cls-8" d="M267.7,459.7c-.1-1.5.6-2.2,2.2-2A20.89,20.89,0,0,1,267.7,459.7Z"/><path class="cls-8" d="M391,347.1c.1-1.8,1.1-2.4,2.8-2.5C392.8,345.4,391.9,346.3,391,347.1Z"/><path class="cls-8" d="M387.8,350.1c-.1-1.5.6-2.2,2.2-1.9A20,20,0,0,0,387.8,350.1Z"/><path class="cls-8" d="M334.7,398.4a2.12,2.12,0,0,1,2.2-2A3,3,0,0,1,334.7,398.4Z"/><path class="cls-8" d="M366,369.8a2.61,2.61,0,0,1,2.8-2.5A4.94,4.94,0,0,1,366,369.8Z"/><path class="cls-8" d="M379.1,357.9a2.12,2.12,0,0,1,2.2-2A20.89,20.89,0,0,1,379.1,357.9Z"/><path class="cls-8" d="M377.1,359.9a2.08,2.08,0,0,1,2.1-1.9A12.86,12.86,0,0,0,377.1,359.9Z"/><path class="cls-8" d="M356.5,378.8a2.05,2.05,0,0,1,2.1-2.1A20.79,20.79,0,0,0,356.5,378.8Z"/><path class="cls-8" d="M426.8,314.5a2.12,2.12,0,0,1,2.2-2A3.61,3.61,0,0,1,426.8,314.5Z"/><path class="cls-8" d="M472.7,272.6a1.91,1.91,0,0,1,1.7-1.6C473.8,271.6,473.2,272.1,472.7,272.6Z"/><path class="cls-8" d="M320.6,411.3a1.91,1.91,0,0,1,1.7-1.6A2.3,2.3,0,0,1,320.6,411.3Z"/><path class="cls-8" d="M275.7,452.1c.2-.9.6-1.5,1.6-1.5C276.8,451.1,276.2,451.6,275.7,452.1Z"/><path class="cls-8" d="M401.9,337.2c.2-.9.6-1.5,1.6-1.5C403,336.2,402.4,336.7,401.9,337.2Z"/><path class="cls-8" d="M390.1,348.1c.3-.4.7-.7,1-1.1A10,10,0,0,0,390.1,348.1Z"/><path class="cls-8" d="M416.4,323.9l1.1-1.1A11.41,11.41,0,0,1,416.4,323.9Z"/><path class="cls-8" d="M478.6,246.2c-.4-.4-.7-.8-1.1-1.2C477.9,245.4,478.2,245.8,478.6,246.2Z"/><path class="cls-8" d="M381.3,356a11.41,11.41,0,0,0,1.1-1.1A11.41,11.41,0,0,0,381.3,356Z"/><path class="cls-4" d="M278.8,447.6c-.5-.1-1.1-.3-1.6-.4A12.44,12.44,0,0,1,278.8,447.6Z"/><path class="cls-4" d="M382.3,139.6v-1h1.1A11,11,0,0,0,382.3,139.6Z"/><path class="cls-8" d="M368.8,367.3a11,11,0,0,0,1.1-1A10,10,0,0,0,368.8,367.3Z"/><path class="cls-8" d="M323.3,408.8c.4-.4.8-.7,1.2-1.1C324.1,408.1,323.7,408.4,323.3,408.8Z"/><path class="cls-8" d="M365.2,370.9l.9-1.2Z"/><path class="cls-8" d="M422.9,318c.4-.4.8-.7,1.2-1.1A12,12,0,0,1,422.9,318Z"/><path class="cls-10" d="M424.8,104.5l-1.1,1.1A5.73,5.73,0,0,1,424.8,104.5Z"/><path class="cls-8" d="M266.4,460.6c.5-.3.9-.6,1.4-.9A11,11,0,0,0,266.4,460.6Z"/><path class="cls-8" d="M319.8,412.3a10.63,10.63,0,0,1,.9-1.1A10.63,10.63,0,0,0,319.8,412.3Z"/><path class="cls-8" d="M253,473a12,12,0,0,1,1.2-1.1A4.26,4.26,0,0,0,253,473Z"/><path class="cls-8" d="M342.4,391.6c.3-.4.7-.8,1-1.2A10.59,10.59,0,0,1,342.4,391.6Z"/><path class="cls-8" d="M410.6,329.4c.3-.4.7-.9,1-1.3A14.7,14.7,0,0,1,410.6,329.4Z"/><path class="cls-8" d="M428.9,312.6l1.1-1.1A5.73,5.73,0,0,0,428.9,312.6Z"/><path class="cls-8" d="M152.5,526.7c-.4-.3-.7-.7-1.1-1l.3-.2a9,9,0,0,0,1,.9Z"/><path class="cls-8" d="M333.6,399.4l1.1-1.1A11.41,11.41,0,0,1,333.6,399.4Z"/><path class="cls-8" d="M393.7,344.6c.4-.4.8-.7,1.2-1.1C394.7,344.2,394.4,344.6,393.7,344.6Z"/><path class="cls-8" d="M418.5,321.9l1.2-1.2A13.58,13.58,0,0,1,418.5,321.9Z"/><path class="cls-8" d="M456.9,286.9l1.3-1C457.8,286.2,457.4,286.5,456.9,286.9Z"/><path class="cls-8" d="M451.6,291.8l1.1-1.1Z"/><path class="cls-4" d="M256,283.1c0-3.3.1-6.6,0-9.8-.1-3.5,1.4-5.3,4.8-5.2,8.3.1,16.4-1.8,24.6-2.1a11.41,11.41,0,0,0,7-2.8c13.2-11.5,26-23.5,38.9-35.3,20.4-18.7,40.7-37.5,61.4-55.8,2.6-2.3,5-4.7,7.4-7.2,1.9-2.1,3.3-1.6,5.1.2,10.3,10.2,19.4,21.4,29.2,32,2.5,2.7,1.6,4.8-.8,7-8.7,7.9-17.2,15.8-25.9,23.7q-20.25,18.3-40.5,36.5c-12.1,10.9-23.9,22.2-36.7,32.4-7.7,6.2-8.6,14.4-10.1,22.8-.8,4.7-1.6,9.5-2.2,14.2a2.78,2.78,0,0,1-3.1,2.7,27.73,27.73,0,0,1-4.1-.1c-16.5-2.3-33-4.8-49.5-7.1-2-.3-3.1-1.1-3.2-3.2-.3-4.6-.9-9.2-1-13.9-.2-9.6,0-19.2,0-28.9A7.17,7.17,0,0,0,256,283.1Zm11.5,6.8c1,7.2,1.1,16.2,1.1,25.1,0,2.7,1.2,3.3,3.7,3.7,9.9,1.3,19.8,2.6,29.6,4.5,4.2.8,5.2-.9,5.6-4.3.7-6.5,1.6-13,2.1-19.5a7.94,7.94,0,0,1,2.6-5.4c15.5-13.9,31-27.9,46.5-41.8,17.9-16.1,35.8-32.3,53.7-48.4,1.9-1.7,2.3-3.2.4-5.2q-5.7-6-11.1-12.3c-1.8-2.1-2.9-1.5-4.6,0-29.1,26.6-58.3,53.1-87.3,79.9-14.8,13.7-14.6,14-34.8,14C267.4,280.3,267.4,280.3,267.5,289.9Z"/><path class="cls-5" d="M245.7,343.2c-.7-.2-1.4-.4-2.2-.6a.86.86,0,0,0-.9-.3h.1L240,258.9c-.1-2.6.9-3.6,3.5-3.8,6.6-.6,13.3-1.4,19.9-2.1,6-.5,12-1.1,18-1.5,1.9-.1,3.1-1.1,4.4-2.3q52.05-47.55,104.2-95c2.1-1.9,3.5-3.4,6.1-.3,2.2,2.6,2,3.8-.5,6q-53.55,48.6-107,97.4a9.09,9.09,0,0,1-5.9,2.6c-8.2.7-16.4,1.5-24.6,2.2-9.5.1-9.1.1-9,9.2.2,20.2,3.3,40.4,1.2,60.7-.1,1.3.3,1.9,1.5,2.2,4.6,2.5,9.6.8,14.4,1.6,17,2.8,34.1,4.8,51.1,7.4,3.9.6,5.5-.3,6.1-4.3,1.4-9.2,3.3-18.3,4.7-27.5a11.71,11.71,0,0,1,4.1-7.4q41.4-37.35,82.9-74.9c7.9-7.2,16-14.2,23.7-21.5,2.4-2.3,3.6-2.5,6,.1s1.7,3.7-.5,5.6q-36.45,32.85-72.8,65.9c-10.9,9.8-21.7,19.7-32.6,29.5a6.69,6.69,0,0,0-2.4,4.3c-2,11.3-4.3,22.6-6.2,34-.7,4.3-2.1,6.3-7.2,5.6-17.7-2.6-35.5-4.6-53.3-6.9-2.5-.3-5.1-.4-7.7-.6-.6-.1-1.2-.3-1.7-.4-2.1-.2-4.3-.4-6.4-.5C251.3,343,248.5,343.2,245.7,343.2Z"/><path class="cls-11" d="M432.4,115.8c13.1-13.1,27.2-25.1,40.9-37.6,4.3-3.9,8.8-7.6,13.3-11.4,10.8,11.6,21.7,23,32.3,34.7,7.3,8.2,15.2,15.9,21.7,24.8-.7.7-1.4,1.5-2.1,2.2q-25.8,23.7-51.7,47.4C468.2,156.2,450,136.3,432.4,115.8Zm53.7-31.6a17.91,17.91,0,0,0-1.8,1.4c-11.9,10.9-23.8,21.9-35.8,32.7-2.1,1.9-2.3,3.8-.4,5.7,11.2,11.2,22.1,22.6,31.8,35.1,1.6,2.1,3.1,2,5.1.2,11.8-10.6,23.6-21,35.5-31.5,2.3-2,3-3.8.5-6.4-10.9-11.7-21.5-23.6-32.3-35.4C488.1,85.3,487.6,84.3,486.1,84.2Z"/><path class="cls-4" d="M371.9,138.6c3.7-.7,6.7,2.4,10.4,2.1,6.7,5.4,6.7,6.5-.3,11.7a26.06,26.06,0,0,0-3.1,2.7c-19.4,19.2-40.3,36.9-60.3,55.4-8.7,8-17.8,15.7-26.1,24.2-4.1,4.2-8.4,8.6-13.7,11.6,1.5-8.2,9.3-11.7,13.6-18.3-3.6-.2-5.5-2.3-6.3-6.5-1.1,6.1-3.5,4.8-6.2,2.1,10.3-9.3,20.6-18.7,30.9-28,19.5-17.4,39.1-34.7,58.6-52.1C370.7,142.3,373.3,141.3,371.9,138.6Z"/><path class="cls-4" d="M487.6,195.4c0,2.2-1.2,3.2-2.3,4.2-5.3,4.8-10.8,9.6-16.1,14.4-1.6,1.4-2.9.9-4-.4-9.3-9.9-18.5-19.9-27.7-29.8-1.6-1.8-.7-3.1.7-4.4,5.6-5.3,11.3-10.6,17-15.8a3,3,0,0,1,4.6,0c9.6,9.4,18.3,19.6,26.9,29.8A12.93,12.93,0,0,0,487.6,195.4Z"/><path class="cls-12" d="M486.8,175.8q25.8-23.7,51.7-47.4c.8-.7,1.4-1.5,2.1-2.2,9.9,8.1,9.9,8.1,1,16.4-14.3,13.1-28.6,26.2-42.7,39.5-3,2.9-4.8,2.6-7-.5C490.3,179.6,488.5,177.8,486.8,175.8Z"/><path class="cls-4" d="M271.5,246.2a20.81,20.81,0,0,1-8.2,1c.2-3.1,1-5.8,4.7-6.2,1.9-.2,2.1-1.7,2.8-3.1,1.4-2.8,3.4-5.1,6.9-5.2.1-2.3-.4-4.2-3.2-4.2,1.6-1.9,3.1-3.8,5.3-5,2.6,2.6,5,3.9,6.2-2.1.8,4.2,2.7,6.3,6.3,6.5-4.2,6.6-12,10.1-13.6,18.3-1.4,0-2.7-.1-4.1-.1-.2-.9,0-2.2-1.3-2.3S271.8,245.1,271.5,246.2Z"/><path class="cls-5" d="M454.1,156.5A33.14,33.14,0,0,0,451,159c-5.9,5.3-11.9,10.4-17.6,15.9-2.5,2.4-3.6,1.1-5.2-.8-1.5-1.7-3.2-3-.4-5.3,6.3-5.4,12.2-11.1,18.4-16.6.9-.8,1.8-2.6,3.4-1.1C451,152.6,452.3,154.3,454.1,156.5Z"/><path class="cls-2" d="M251.8,334.4a1.7,1.7,0,0,1-1.5-2.2c2.1-20.3-1-40.4-1.2-60.7-.1-9.1-.4-9.1,9-9.2-.1.3-.1.9-.2,1-7.2,2.9-5.7,9.3-6,15-.8,15.8.1,31.6.8,47.5C252.8,328.6,252.1,331.5,251.8,334.4Z"/><path class="cls-2" d="M260.4,344.8c.6.1,1.2.3,1.7.4,3.2,2.6,7.7.2,10.8,3.3C268.9,346.9,263.5,349.9,260.4,344.8Z"/><path class="cls-2" d="M245.7,343.2c2.8,0,5.6-.2,8.2,1.1v1.2h0c-2.5,0-5.1.1-7.6,0S245.3,344.1,245.7,343.2Z"/><path class="cls-4" d="M271.5,246.2c.3-1.1.4-2.5,1.9-2.4,1.3.1,1.1,1.4,1.3,2.3l-1.1.3C272.9,246.3,272.2,246.3,271.5,246.2Z"/><path class="cls-2" d="M254,345.5h3.9c-1.8,1.7-2.9.7-3.9,0Z"/><path class="cls-2" d="M242.6,342.3a1.22,1.22,0,0,1,.9.3A9.44,9.44,0,0,0,242.6,342.3Z"/><path class="cls-13" d="M216.8,267.1c0,10.1-.1,20.2,0,30.4.2,21,.6,42,.8,63,0,3.2.9,4.5,4.3,4.8,25.7,2.6,51.3,5.4,77,8.2,5.3.6,10.6,1.4,16.6,2.2-2.9,4.5-7.3,6.7-10.5,10-2.4,2.5-5.4,4.4-7.7,6.9-4.3,4.8-9.5,5.8-15.8,5.5-18.7-1-37.5-1.4-56.3-2.1-7.9-.3-15.8-.7-23.7-.9a6,6,0,0,1-4.8-2.4c-2.6-3.4-5.2-6.9-8.7-9.5a5,5,0,0,1-2.1-4.5c1.9-28.8,3.9-57.7,5.8-86.5.1-1.7.3-3.4,1.7-4.7,7.4-7,14.7-14,22-21C215.8,266.7,216.3,266.9,216.8,267.1Z"/><path class="cls-13" d="M378,329.7c-7.2,4.8-12.5,11.8-19.3,17.1-2,1.6-3.4,3.9-6.5,5.2,2.2-9.9,4.3-19.2,6.4-28.5.4-1.7,1.8-2.9,3.1-4.1q36.75-33.75,73.3-67.7c5.6-5.1,11.1-10.4,16.7-15.4,1.6-1.5,3.3-4.7,5.8-2.8s4.7,4.6,4.1,8.8c-1.4,10.2-7.6,16.8-14.8,23.3-17.3,15.6-34.3,31.4-51.3,47.3-4.5,4.2-9.6,7.9-13.5,12.8C380.4,326.8,378.6,327.6,378,329.7Z"/><path class="cls-13" d="M279.9,223.6a18.07,18.07,0,0,0-5.3,5c-8.4,1-16.7,2.1-25.1,3.1-1.4.2-3.4,1-4.1-.9-.5-1.4,1.3-2.2,2.3-3.1q34.95-31,69.8-62.1l30.4-27.1c4.2-3.7,16.9-5.2,21.8-2.6a3.7,3.7,0,0,0,2.2,2.8c1.4,2.8-1.2,3.7-2.5,4.9-19.5,17.4-39.1,34.7-58.6,52.1C300.4,204.8,290.2,214.2,279.9,223.6Z"/><path class="cls-4" d="M345.7,370.1c-5.7,5-11.4,9.9-17.1,14.9-.3-4,4.1-7.3,2.1-11.6-.1-.3.4-1.1.7-1.2,3.3-.8,7-.8,8.9-4.4,3.3,3,5.5-1.5,8.4-1.1-.3.5-.6,1-.9,1.6h0q-.9.75-2.1,1.8Z"/><path class="cls-4" d="M378,329.7c.5-2.1,2.4-2.9,4-3.9,2.3.6,4.8,6.5,6.9-.5.6-2,2.8,1.2,4.4.6a1.39,1.39,0,0,0,0,.9l.2-.1c-.4.4-.7.8-1.1,1.2l.1-.1a14.7,14.7,0,0,1-1.3,1h-.1c-5.6,4.8-11.2,9.6-16.9,14.4-.4-2.3.8-5,2-5.4C382.4,335.9,379.1,332.7,378,329.7Z"/><path class="cls-4" d="M234.3,279.3v3.2c-1.7-.3-3.4-.5-5.1-.9-3.3-.8-5.3-2.2-1.8-5.4.9-.9,1.6-2,.8-3.2-4.2-6.1.7-4.9,4-5.1h1c1.6,1.9.9,4.2,1,6.3C231.3,275.9,231.3,277.6,234.3,279.3Z"/><path class="cls-10" d="M236.3,315.5c.3,0,.8,0,1,.2,3.7,2.6,3,18-.9,20.5C235.9,329.3,234.1,322.4,236.3,315.5Z"/><path class="cls-10" d="M235.3,290.7c.7.2,1.5.1,1.9.5,2.4,2.5,1.2,12.5-1.8,15C235.3,301,235.3,295.9,235.3,290.7Z"/><path class="cls-8" d="M433.6,290.2c-2.2,3.8-4.5,7.5-9.4,8.3A43.76,43.76,0,0,1,433.6,290.2Z"/><path class="cls-8" d="M456.3,269.5c-1.8,3.9-4.2,7-8.7,7.8A35.83,35.83,0,0,1,456.3,269.5Z"/><path class="cls-8" d="M313.9,399.3c-1.4,3.6-3.4,6.5-7.6,6.9A29.4,29.4,0,0,1,313.9,399.3Z"/><path class="cls-8" d="M408.1,313.4c-1.1,3.2-2.8,5.7-6.6,5.9A21.92,21.92,0,0,1,408.1,313.4Z"/><path class="cls-8" d="M447.5,277.4c-.3,4-3.3,5.1-6.5,5.9A26.16,26.16,0,0,1,447.5,277.4Z"/><path class="cls-8" d="M419.5,303c-.7,2.9-2.2,4.9-5.5,4.9C415.6,306,417.1,304.1,419.5,303Z"/><path class="cls-8" d="M441,283.2c-.2,2.7-1.4,4.3-4.3,4C438.1,285.8,439.6,284.5,441,283.2Z"/><path class="cls-8" d="M399.9,320.7c-.5,2.4-1.8,3.8-4.4,3.9C397,323.4,398.4,322.1,399.9,320.7Z"/><path class="cls-8" d="M324.2,389.9c-.2,2.1-1.3,3.1-3.4,2.8A7.19,7.19,0,0,1,324.2,389.9Z"/><path class="cls-8" d="M318.7,394.8c.2,2.7-1.8,3.1-3.7,3.5A10.35,10.35,0,0,1,318.7,394.8Z"/><path class="cls-8" d="M422.6,300a3.12,3.12,0,0,1-3.2,3A7.14,7.14,0,0,1,422.6,300Z"/><path class="cls-8" d="M459.3,266.4c.4,2.5-1.2,3-3.1,3.1C456.8,268.1,458.2,267.4,459.3,266.4Z"/><path class="cls-2" d="M169.7,323.8l.6-5.1C171.4,320.5,171.6,322.3,169.7,323.8Z"/><path class="cls-8" d="M463.7,262.4c0,1.5-.7,2.2-2.2,2.1C462.3,263.8,463,263.1,463.7,262.4Z"/><path class="cls-8" d="M461.6,264.4c0,1.5-.7,2.2-2.2,1.9C460.1,265.7,460.9,265.1,461.6,264.4Z"/><path class="cls-8" d="M436.6,287.2c.2,1.6-.5,2.2-2.1,1.9C435.3,288.4,436,287.8,436.6,287.2Z"/><path class="cls-8" d="M320.8,392.7c.1,1.5-.6,2.2-2.1,2C319.4,394.1,320.1,393.4,320.8,392.7Z"/><path class="cls-8" d="M413.1,308.9a2.29,2.29,0,0,1-2.3,2.1A2.66,2.66,0,0,1,413.1,308.9Z"/><path class="cls-8" d="M401.7,319.2a2.16,2.16,0,0,1-1.8,1.5Z"/><path class="cls-8" d="M410.9,310.9a1.92,1.92,0,0,1-1.8,1.5C409.4,311.5,410.1,311.2,410.9,310.9Z"/><path class="cls-8" d="M424.4,298.5a1.92,1.92,0,0,1-1.8,1.5Z"/><path class="cls-8" d="M395.6,324.6c-.4.4-.7.8-1.1,1.2C394.9,325.4,395.2,325,395.6,324.6Z"/><path class="cls-8" d="M393.3,326.8v-.9c.4-.1.8-.1,1.2-.2A6.53,6.53,0,0,1,393.3,326.8Z"/><path class="cls-8" d="M434.5,289.1a10.59,10.59,0,0,1-1,1.2A6.34,6.34,0,0,0,434.5,289.1Z"/><path class="cls-8" d="M315,398.3c-.4.3-.7.7-1.1,1C314.3,399,314.6,398.6,315,398.3Z"/><path class="cls-8" d="M414,307.9c-.4.4-.7.8-1.1,1.2A12,12,0,0,0,414,307.9Z"/><path class="cls-8" d="M465,261.5l-1.3,1C464.1,262.2,464.5,261.9,465,261.5Z"/><path class="cls-13" d="M151.2,502.5c11.3-10.8,22.7-21.6,34-32.4,5-4.8,10.1-9.4,14.9-14.3a8,8,0,0,1,6.9-2.6c7,.8,14,1.5,21.1,2.2.8.1,1.9-.1,2.3.9.5,1.2-.5,1.9-1.2,2.6-14.2,13.5-28.4,27.1-42.7,40.6a5,5,0,0,1-2.7,1.4c-10.7,1.1-21.4,2.1-32.1,3.1A13.08,13.08,0,0,0,151.2,502.5Z"/><path class="cls-8" d="M254.9,454c-1.4,3.6-3.2,6.7-7.7,6.8A38.33,38.33,0,0,1,254.9,454Z"/><path class="cls-8" d="M244.6,463.4c-.4,2.5-1.3,4.5-4.4,3.9C241.6,466,243.1,464.7,244.6,463.4Z"/><path class="cls-8" d="M149.9,516.7c1.3.8,2.5,1.7,3.8,2.5l-.3.4a5.58,5.58,0,0,1-4-2.2A4.23,4.23,0,0,0,149.9,516.7Z"/><path class="cls-8" d="M259.8,449.6a2.61,2.61,0,0,1-2.8,2.5C257.7,450.9,258.4,449.9,259.8,449.6Z"/><path class="cls-8" d="M246.2,461.9a1.64,1.64,0,0,1-1.6,1.6A12.09,12.09,0,0,1,246.2,461.9Z"/><path class="cls-8" d="M262.9,446.4c-.4.4-.7.8-1.1,1.2A14.25,14.25,0,0,0,262.9,446.4Z"/><path class="cls-8" d="M261.9,447.5c-.4.3-.9.6-1.3.9A14.63,14.63,0,0,0,261.9,447.5Z"/><path class="cls-8" d="M260.6,448.5l-.9,1.2Z"/><path class="cls-8" d="M247.2,460.9c-.1.7-.4,1-1.1,1A11,11,0,0,0,247.2,460.9Z"/><path class="cls-8" d="M257,452c-.4.3-.8.7-1.2,1A10.59,10.59,0,0,0,257,452Z"/><path class="cls-13" d="M82.3,412.2c-3.4,1.3-5.4,4.6-9.6,7,1.6-9.2,3.3-17.2,4.4-25.4a24.42,24.42,0,0,1,10-17.6c13.7-11,26.8-22.8,40-34.3.9-.8,1.8-2.3,3.1-1.9,1.8.6,1.1,2.4,1.1,3.8.1,4.5-.5,9.2.1,13.6,1.4,8.9-2.6,14.4-9.2,19.7-12.8,10.4-25,21.5-37.4,32.2-.9.9-1.6,2-2.5,2.9Z"/><path class="cls-8" d="M392.4,327.8c.4-.4.7-.8,1.1-1.2C393.1,327,392.8,327.4,392.4,327.8Z"/><path class="cls-8" d="M391.3,328.8a14.7,14.7,0,0,1,1.3-1A6.42,6.42,0,0,0,391.3,328.8Z"/><path class="cls-7" d="M149.4,517.4a5,5,0,0,0,4,2.2c1,1.9,2.8,1.9,4.5,1.8,8.9-.6,17.9,1.4,26.6-1.2,1-.3,1.9-.2,2,.9.1,3.1-2,6.3.4,9.4.2.3-1.3.9-2.2.7-10.6-2.3-21.5-2.1-32-4.8l-1-1c0-2.5-1.5-4-3.3-5.5C146.9,518.6,146.5,517.3,149.4,517.4Z"/><path class="cls-8" d="M345.8,370.1c.7-.7,1.5-1.3,2.2-2A1.9,1.9,0,0,1,345.8,370.1Z"/><path class="cls-13" d="M267.5,289.9c-.2-9.6-.2-9.6,7.6-9.6,20.2,0,20-.3,34.8-14,28.9-26.8,58.2-53.3,87.3-79.9,1.6-1.5,2.8-2.2,4.6,0,3.5,4.2,7.3,8.3,11.1,12.3,1.9,2,1.5,3.5-.4,5.2-17.9,16.1-35.8,32.3-53.7,48.4-15.5,13.9-31,27.9-46.5,41.8a7.74,7.74,0,0,0-2.6,5.4c-.6,6.5-1.4,13-2.1,19.5-.4,3.5-1.4,5.1-5.6,4.3-9.8-1.9-19.7-3.2-29.6-4.5-2.5-.3-3.7-.9-3.7-3.7C268.7,306.1,268.5,297.1,267.5,289.9Z"/><path class="cls-14" d="M486.1,84.2c1.5.1,2,1.1,2.7,1.9,10.8,11.8,21.4,23.7,32.3,35.4,2.5,2.6,1.8,4.4-.5,6.4-11.9,10.5-23.7,20.9-35.5,31.5-2,1.8-3.5,1.8-5.1-.2-9.7-12.5-20.7-23.9-31.8-35.1-1.9-2-1.7-3.8.4-5.7,12-10.9,23.8-21.8,35.8-32.7A7.63,7.63,0,0,1,486.1,84.2Z"/><path class="cls-4" d="M234.3,279.3q-4.5-2.55,0-5.1Z"/></svg>