<?xml version="1.0" encoding="utf-8"?>
<!-- Generator: Adobe Illustrator 25.2.0, SVG Export Plug-In . SVG Version: 6.00 Build 0)  -->
<svg version="1.1" id="Layer_1" xmlns="http://www.w3.org/2000/svg" xmlns:xlink="http://www.w3.org/1999/xlink" x="0px" y="0px"
	 viewBox="0 0 600 600" style="enable-background:new 0 0 600 600;" xml:space="preserve">
<style type="text/css">
	.st0{fill:url(#SVGID_1_);}
	.st1{fill:url(#SVGID_2_);}
	.st2{fill:url(#SVGID_3_);}
	.st3{fill:#20314B;}
	.st4{fill:#CDD1D5;}
	.st5{fill:#6D6E73;}
	.st6{fill:#D1D565;}
	.st7{fill:#DFE0E0;}
	.st8{fill:#AEAFB0;}
	.st9{fill:#636E84;}
	.st10{fill:#EFF0F0;}
	.st11{fill:#C7C7C7;}
	.st12{fill:url(#SVGID_4_);}
	.st13{fill:url(#SVGID_5_);}
	.st14{fill:#F4F5F5;}
</style>
<g>
	
		<linearGradient id="SVGID_1_" gradientUnits="userSpaceOnUse" x1="176" y1="103" x2="176" y2="220.4" gradientTransform="matrix(1 0 0 -1 0 602)">
		<stop  offset="0" style="stop-color:#FFA500"/>
		<stop  offset="1" style="stop-color:#F94C66"/>
	</linearGradient>
	<path class="st0" d="M166.8,381.6c3.7,3.6,6.4,8.1,9.5,12.2c5.3,7,10.4,14.2,15.6,21.2c-1.2,1.1-0.6,2.5-0.7,3.8
		c-0.6,6.8,0.9,13.6,0.4,20.4c-0.5,1.2-0.8,2.3-0.8,3.6c-0.1,9.9-1.1,19.8-1.1,29.8c0,7.4-0.9,14.9-1.4,22.3
		c-0.8-0.1-1.6-0.1-2.3-0.3c-5.3-1.2-6-0.8-7.8,4.4c-1.4-0.1-2.7-0.2-4.1-0.2c0-0.9,0.3-1.7,0.9-2.5c1.8-2.3,1.5-4.1-1.4-5.2
		c-1.8-0.6-3-2-4-3.5c-3.3-4.5-4.4-9.5-4.3-15c0.1-5-0.2-5.3-5.2-5.7c0-1.2,0-2.3,0.1-3.5c0.7,0,1.4-0.1,2,0.1
		c2.9,0.7,3.4-0.6,3.2-3.1c-0.2-2.6,0-5.2,0-7.8c0-5.4,0-5.4-5.3-4.8c0-1.2,0-2.3,0-3.5c5.2-0.9,5.2-0.9,5.2-6.2c0-7.7,0-15.4,0-23
		c0-6.6,0.5-5.3-5.2-6.9c0-1.2,0-2.3,0-3.5c0.5,0,0.9,0,1.3,0.1c3.2,1.3,4.1,0.1,4-3.2c-0.2-5.3-0.1-10.6-0.1-15.9
		C165.3,384.2,165.2,382.6,166.8,381.6z"/>
	
		<linearGradient id="SVGID_2_" gradientUnits="userSpaceOnUse" x1="270.6644" y1="102.4044" x2="270.6644" y2="475.5078" gradientTransform="matrix(1 0 0 -1 0 602)">
		<stop  offset="0" style="stop-color:#FFA500"/>
		<stop  offset="1" style="stop-color:#F94C66"/>
	</linearGradient>
	<path class="st1" d="M268.3,286.9c1-0.5,1.3-1.5,1.5-2.5c0.6-2.5,1.6-4.9,2.6-7.3c4.1-9.8,12.9-10,20.3-5.6
		c5.5,3.2,9.4,8.1,12.4,13.7c5,9.5,7.3,19.7,8.9,30.2c1.7,10.8,2.6,21.8,2.8,32.7c0,1.7,1.1,3.3,0.6,5c-14-18.8-28-37.7-42-56.5
		c-2.1-2.8-3.6-6-6.3-8.3C268.7,287.9,268.5,287.4,268.3,286.9z M336.3,303.7c0.1,1.4,0.1,2.7,0.2,4.1c0.1,2-0.4,3.2-2.7,3.8
		c-5.7,1.5-8.9,6.6-8.1,12.4c0.6,4.3,3.9,9.5,10.7,9.3c0.1-0.1,0.2-0.2,0.3-0.3c-9-7.3-5.6-20.4,3.9-22.8c1.2-0.3,1.5-1.1,1.5-2.3
		c-0.1-12.6,0-25.2-0.3-37.8c-0.2-6.3-5.1-11.8-11.2-13.5c4.7,3.6,5.4,8.8,5.5,14.2c0.7,1.1,0.6,2.3,0.4,3.6
		c0,8.4,0.4,16.9-0.2,25.3C336.2,301.1,336.3,302.4,336.3,303.7z M250.6,148.8c-0.4-0.8-1.1-1-1.8-1.5c-3.6-2.7-7-5.4-7.6-10.3
		c-0.3-2.5-0.3-4.9,0.3-7.4c0.3-1.4,0.5-4-2-2.8c-2.9,1.3-5.7,3.1-7.5,6.1c-3.2,5.5-6.3,11-10.2,16
		C231.5,149.1,241,149.2,250.6,148.8z M342,386.5c0-2,0-3.1,0-4.2c0-13.8-0.2-27.6,0.2-41.4c0.1-4.6-1.4-6.9-5.6-7.9
		c-0.1,0.1-0.2,0.2-0.3,0.3c0.2,2.7,0.3,5.4-0.5,8c0,1.4,0.1,2.8,0.1,4.2c-0.1,10.7-0.2,21.5-0.2,32.2
		C337.2,380.8,339.4,383.3,342,386.5z M258.1,273.1c11.5,0.4,19.3-5.1,24.2-15.1c0.7-1.5,1.5-1.9,3.1-1.9c7.7,0.1,15.4,0.1,23.1,0
		c1.7,0,2.7,0.4,3.3,2.1c3.1,10.1,13.6,17.1,24.7,16.3c0.2-1.2,0.4-2.4-0.4-3.6c-9.6,0.2-18.8-5.3-20.8-14.9c4.2,0,8.4,0,12.5,0
		c-1.5-0.9-3.1-0.5-4.7-0.5c-17.4,0-34.7-0.1-52.1,0c-7.9,0-15.9-0.4-23.8,0.2c1.1,0.6,2.2,0.4,3.3,0.4c8.6,0,17.3,0.1,25.9,0
		c2,0,2.8,0.4,1.6,2.4c-1.5,2.5-3.4,4.7-5.7,6.6c-5.1,4.2-11.1,4.1-17.1,4.1C255.8,270.7,256.8,272,258.1,273.1z M202.9,499.5
		c12-0.2,24,0.6,36-0.5c-1.3-5.3-3.6-9.7-8-13.4c-9.3-7.8-21.4-6.9-29.9-0.3c-1.2,1-2.1,3.5-3.8,2.5c-1.4-0.7-2.1-2.9-2.8-4.5
		c-0.9-1.8-0.4-3.8-0.5-5.7c-0.1-1.8,0.1-3.6-0.9-5.3c-0.3,7.3,0.8,14.6,1.1,21.9c0.1,1.9,1.5,3.2,3.2,4.1c0-2.8,1.5-3.8,4.1-3.5
		c0.6,0.1,1.5,0.2,1.7-0.7c0.1-0.4-0.4-1.1-0.8-1.4c-2.2-1.3-0.9-2.3,0.1-3.4c9.2-9.6,26.9-6,31.8,6.4c1,2.5,0.3,3.1-2.2,3.1
		c-10.4,0-20.9,0.1-31.3,0.1C201.4,499.2,202.2,499.5,202.9,499.5z M203.2,430.4c-5.2,7-5.1,16.7,0.4,24.3c5.1,7,13.8,10.9,23.4,7.9
		c-0.2-1.1-1-1.9-1.8-2.6c-2,0-4.1,0.2-6.1,0c-6.5-0.6-11.2-4.1-14.1-9.7c-2.9-5.6-3.3-11.4,0.6-16.9
		C205,432.3,204.2,431.2,203.2,430.4z M280,148.9c-4.1-6.7-8.1-13.3-12.2-20c-0.8-1.3-2.2-1.7-3.5-1.8c-2.7-0.2-5.5-0.1-8.2-0.1
		c-0.2,0.3-0.3,0.5-0.5,0.8c3.3,0.4,5.5,1.7,5.9,5.2c0.1,1.3,1.7,2.1,3.2,1.8c1-0.2,1.8-0.4,2.2,0.8c1.6,4.5,4.3,8.5,5.5,13.1
		C275,149.8,277.5,149.2,280,148.9z M348.8,329.5c0-4.7,0-9.3,0-14c-0.2-0.5-0.6-1-1.3-0.8c1.3,4.4,0.5,8.9,0.5,13.3
		c0,1.5-1.2,2.2-2.8,2.4c-1.6,0.2-3.1-0.4-4.6-0.7C343.7,331.7,346.7,331.6,348.8,329.5z M192.6,456.6c0-4.2,0.1-8.4,0-12.6
		c0-1.3,0.6-2.8-0.8-3.8C191.9,445.7,191.4,451.2,192.6,456.6z M348.7,416.8c0-4.7,0-9.4,0-14.1c-0.2-0.2-0.4-0.4-0.6-0.7
		c0,5,0,10,0,15C348.5,417.2,348.7,417.1,348.7,416.8z M348.8,402.8c0,4.7,0,9.4,0,14.1C349.8,412.1,349.7,407.5,348.8,402.8z
		 M348.8,315.5c0,4.7,0,9.3,0,14C349.8,324.8,349.8,320.1,348.8,315.5z M339.7,402.7c2.8-0.4,5.6-0.9,8.4-0.6
		C345.2,400.5,342.4,401,339.7,402.7z M192.8,467.6c0.5-2.7,1.1-5.4-0.4-8.1C192.6,462.2,192.7,464.9,192.8,467.6z M341,314.7
		c2.2,0,4.3,0,6.5,0C345.3,313.2,343.2,313.9,341,314.7z M245.4,256c0.1,0.2,0.3,0.5,0.4,0.7c0-0.3,0-0.5,0.1-0.8
		C245.7,255.9,245.5,255.9,245.4,256z M340.6,329.8c-0.3-0.6-0.9-0.7-1.5-0.6C339.5,329.6,340,329.9,340.6,329.8z M348.2,417.1
		c-0.2,0.2-0.5,0.5-0.7,0.7C347.9,417.8,348.2,417.6,348.2,417.1z M327.1,309.5c2.6-2.7,5.1-5.5,9.2-5.7c0-1.3-0.1-2.6-0.1-4
		c-10,1.1-19.6,13.9-17.8,25.5c1.6,10.4,7.6,17.1,17.6,20.3c0-1.4-0.1-2.8-0.1-4.2C322.3,337.6,317.6,319.4,327.1,309.5z"/>
	
		<linearGradient id="SVGID_3_" gradientUnits="userSpaceOnUse" x1="255.3125" y1="102.7614" x2="255.3125" y2="477" gradientTransform="matrix(1 0 0 -1 0 602)">
		<stop  offset="0" style="stop-color:#F94C66"/>
		<stop  offset="1" style="stop-color:#FFA500"/>
	</linearGradient>
	<path class="st2" d="M335.8,377.8c-5.5-6-9.8-13-14.9-19.4c-1.1-1.4-2.2-2.8-3.4-4.2c-0.1-0.4-0.1-0.7-0.2-1.1
		c0.5-1.7-0.5-3.3-0.6-5c-0.2-11-1.1-21.9-2.8-32.7c-1.6-10.4-4-20.7-8.9-30.2c-3-5.6-6.9-10.5-12.4-13.7
		c-7.4-4.4-16.2-4.2-20.3,5.6c-1,2.4-2,4.8-2.6,7.3c-0.3,1-0.5,2-1.5,2.5c-3.7-4.4-7-9-10.2-13.8c11.5,0.4,19.3-5.1,24.2-15.1
		c0.7-1.5,1.5-1.9,3.1-1.9c7.7,0.1,15.4,0.1,23.1,0c1.7,0,2.7,0.4,3.3,2.1c3.1,10.1,13.6,17.1,24.7,16.3c0,8.4,0.4,16.9-0.2,25.3
		c-10,1.1-19.6,13.9-17.8,25.5c1.6,10.4,7.6,17.1,17.6,20.3C335.9,356.3,335.8,367,335.8,377.8z M227,462.6
		c-9.6,3-18.3-0.9-23.4-7.9c-5.6-7.6-5.6-17.3-0.4-24.3c-3.4-5.4-7.4-10.4-11.2-15.4c-1.2,1.1-0.6,2.5-0.7,3.8
		c-0.6,6.8,0.9,13.6,0.4,20.4c0,0.4,0,0.7,0.1,1.1c1.4,1,0.8,2.5,0.8,3.8c0.1,4.2,0,8.4,0,12.6c-0.4,0.9-1.2,1.8-0.1,2.8
		c1.5,2.6,0.9,5.4,0.4,8.1c0.1,1.6,0.1,3.3,0.2,4.9c1.1,1.6,0.9,3.5,0.9,5.3c0.1,1.9-0.4,3.9,0.5,5.7c0.8,1.6,1.5,3.8,2.8,4.5
		c1.7,0.9,2.6-1.6,3.8-2.5c8.5-6.7,20.7-7.5,29.9,0.3c4.4,3.7,6.7,8.1,8,13.4c4.9,0,9.8,0,15.3,0c-3.5-4.7-6.5-9-9.7-13.1
		C238.7,478.2,233.4,470,227,462.6z M221.9,148.8c3.9-5,7-10.5,10.2-16c1.8-3.1,4.5-4.9,7.5-6.1c2.6-1.1,2.4,1.4,2,2.8
		c-0.6,2.5-0.6,4.9-0.3,7.4c0.6,4.9,4,7.7,7.6,10.3c0.6,0.5,1.4,0.7,1.8,1.5c7.3,0.3,14.6,0.4,21.9,0c-1.1-4.7-3.9-8.7-5.5-13.1
		c-0.4-1.2-1.2-1-2.2-0.8c-1.5,0.3-3.1-0.5-3.2-1.8c-0.4-3.5-2.6-4.8-5.9-5.2c0.2-0.3,0.3-0.5,0.5-0.8c2.7,0,5.5-0.1,8.2,0.1
		c1.3,0.1,2.7,0.5,3.5,1.8c4,6.7,8.1,13.3,12.2,20c2,0.3,2.3-0.4,1.3-2c-3.3-5.5-6.4-11.1-9.9-16.5c-2.2-3.4-5.4-5.4-9.6-5.4
		c-7.1,0-14.3,0-21.4,0c-4.5,0-7.9,1.9-10.2,5.6c-3.3,5.4-6.4,10.9-9.7,16.4C219.3,149.1,220.4,149.1,221.9,148.8z M202.5,489.4
		c-1.1,1.1-2.4,2.1-0.1,3.4c0.4,0.2,0.9,0.9,0.8,1.4c-0.1,0.9-1,0.8-1.7,0.7c-2.7-0.3-4.1,0.7-4.1,3.5c1,0.9,2.2,0.8,3.4,0.7
		c10.4-0.1,20.9-0.2,31.3-0.1c2.6,0,3.2-0.6,2.2-3.1C229.3,483.4,211.7,479.8,202.5,489.4z M278.1,258.4c1.2-2,0.5-2.4-1.6-2.4
		c-8.6,0.1-17.3,0-25.9,0c-1.1,0-2.3,0.3-3.3-0.4c-0.5,0.1-0.9,0.1-1.4,0.2c0,0.3,0,0.5-0.1,0.8c3,4.3,5.9,8.6,9.4,12.4
		c6,0,12,0.2,17.1-4.1C274.6,263.1,276.5,261,278.1,258.4z M204.9,450.4c2.9,5.6,7.7,9.1,14.1,9.7c2,0.2,4.1,0,6.1,0
		c-6.2-9.1-12.8-17.9-19.6-26.6C201.7,439,202,444.8,204.9,450.4z M173.6,491.2c-1.8-0.6-3-2-4-3.5c-3.3-4.5-4.4-9.5-4.3-15
		c0.1-5-0.2-5.3-5.2-5.7c0,5.7-0.3,11.3-0.1,17c0.2,6.8,6.7,14.8,14.1,14.9c0-0.9,0.3-1.7,0.9-2.5
		C176.8,494,176.5,492.3,173.6,491.2z M336.1,270.9c-0.1-5.4-0.8-10.6-5.5-14.2c-0.8-0.8-1.8-0.5-2.7-0.8c-4.1,0-8.3,0-12.5,0
		C317.3,265.5,326.5,271,336.1,270.9z M160,408.3c0,12,0,24.1,0,36.1c5.2-0.9,5.2-0.9,5.2-6.2c0-7.7,0-15.4,0-23
		C165.3,408.6,165.8,409.8,160,408.3z M349.6,347.8c-0.7-0.8-1.4-1.7-2.5-1.5c-1.5,0.3-0.9,1.6-0.9,2.5c-0.1,5.6,0,11.1,0,16.7
		c0,5.4,0,10.9,0,16.3c0,1.1-0.8,2.8,1.1,3c1.4,0.2,2.5-1.1,3-2.4c0.3-0.8,0.5-1.8,0.5-2.6c0-9.4,0-18.8,0-28.2
		C350.8,350.2,350.5,348.9,349.6,347.8z M348.1,402.1c-2.8-0.2-5.6,0.3-8.4,0.6c-3.9,2.6-5.2,6.9-3.3,10.8c2,4,6.7,5.9,11,4.4
		c0.2-0.2,0.5-0.5,0.7-0.7C348.2,412.1,348.2,407.1,348.1,402.1C348.2,402.1,348.1,402.1,348.1,402.1z M348.2,417.1L348.2,417.1
		L348.2,417.1L348.2,417.1z M339.2,329.1c0.6-0.1,1.2,0,1.5,0.6c1.5,0.2,3,0.8,4.6,0.7c1.5-0.2,2.8-0.9,2.8-2.4
		c0-4.4,0.8-8.9-0.5-13.3l0,0c-2.2,0-4.3,0-6.5,0C334.6,317.5,333.7,324.6,339.2,329.1z M340.6,329.8L340.6,329.8L340.6,329.8
		L340.6,329.8z M161.4,404.9c3.2,1.3,4.1,0.1,4-3.2c-0.2-5.3-0.1-10.6-0.1-15.9c0-1.6-0.1-3.2,1.5-4.2c-1.6-3.5-3.9-6.3-6.8-9.5
		c0,11.4,0,22,0,32.7C160.5,404.8,161,404.7,161.4,404.9z M162.1,463.5c2.9,0.7,3.4-0.6,3.2-3.1c-0.2-2.6,0-5.2,0-7.8
		c0-5.4,0-5.4-5.3-4.8c-0.2,5.2-0.3,10.4,0.1,15.6C160.8,463.4,161.5,463.3,162.1,463.5z M178.2,499.1c4,0.1,8.3,1.1,10.1-4.2
		c-0.8-0.1-1.6-0.1-2.3-0.3C180.7,493.5,180,493.9,178.2,499.1z M333.8,311.6c2.4-0.6,2.9-1.7,2.7-3.8c-0.1-1.3-0.1-2.7-0.2-4.1
		c-4.1,0.2-6.6,3-9.2,5.7c-9.5,10-4.8,28.1,8.8,31.9c0.9-2.6,0.7-5.3,0.5-8c-6.8,0.1-10.1-5-10.7-9.3
		C324.9,318.1,328.1,313,333.8,311.6z"/>
	<path class="st3" d="M324.8,152.3c1.8,0.2,2.4,1,3,2.6c8,22.2,31.7,32.1,53,22.2c1.4-0.7,2.6-0.7,4.1-0.2
		c7.9,2.7,15.9,2.9,23.8,0.3c13.8-4.6,22.8-14,25.9-28.2c3.2-14.4-0.9-27-12-37c-2.3-2-2.9-3.7-2.1-6.6c1.9-6.7,1.4-13.5-0.8-20
		c-4.8-14.2-14.7-23.2-29.4-25.9c-15.3-2.8-28,2.3-37.6,14.6c-1.4,1.8-2.5,2.2-4.7,1.7c-10.5-2.3-19.7,0.1-26.8,8.3
		c-1.5,1.7-2.3,1.4-3.7,0.3c-13.3-10-28.1-12.5-44.2-8.6c-6.4,1.6-12.5,4.2-18.2,7.5c-6.3,3.7-11.9,8.6-19.6,9.6
		c-3,0.4-4.3,2.8-4.2,6.1c0.2,5.7,0,11.4,0.1,17.1c0.1,4.1,0.3,8.1-3.8,10.8c-0.8,0.5-1.2,1.6-1.7,2.5c-3.4,5.9-6.8,11.8-10.3,17.6
		c-1.5,2.4-2,4.9-2,7.7c0.1,21.2,0,42.3,0,63.5c0,2-0.3,2.8-2.6,3.2c-10.6,1.7-17.4,9.8-17.6,20.6c0,2.4-0.1,4.8,0,7.2
		c0.1,1.8-0.5,2.4-2.3,2.3c-4.2-0.1-8.4,0-12.6,0c-14.1,0-22.8,8.7-22.8,22.7c0,67.6,0,135.1-0.1,202.7c0,8.4,0.8,16.3,7.7,22.1
		c0,0,5.2,5.6,15.6,5.7c48.2,0,96.3,0,144.5,0c4,0,7.7-1.3,10.4-2.7c2.7-1.3,4.4-2.6,4.4-2.6c6.5-5.8,8.2-12.4,8.1-20
		c-0.2-17.7,0-35.5-0.1-53.2c0-2.1,0.1-3.5,2.7-4c2.7-0.5,4.1-2.8,4.2-5.5c0.1-4.4,0.2-8.9,0-13.3c-0.1-3.3-2.3-5.7-5.5-5.6
		c-1.4,0-1.3-0.7-1.3-1.3c-0.2-1.3,0-2.7-0.1-4.1c-0.2-1.8,0.3-2.7,2.4-3.2c4.1-0.9,6.2-4,6.2-8.6c0.1-9.8,0.1-19.6,0-29.3
		c0-4.8-2-7.6-6.5-8.7c-2.7-0.6-1.9-2.3-2-3.8s-0.6-3.1,1.9-3.5c3.1-0.6,4.9-2.8,5-6c0.1-4.3,0.1-8.6,0-13c-0.1-2.9-1.7-5.2-4.4-5.8
		c-2.6-0.5-2.5-1.9-2.5-3.8c0-11.3,0.1-22.5,0-33.8c-0.1-11.9-8.9-20.9-20.8-21.2c-2.4-0.1-4.8,0-7.2,0c-3.1,0-7.1,1.1-8.9-0.4
		c-2.2-1.8-0.6-6-0.7-9.1c-0.3-10.6-7-18.8-17.4-20.5c-2.5-0.4-3-1.2-3-3.6c0.1-17.6-0.4-35.3,0.3-52.9c0.4-10.1-1.3-19-7.5-27
		c-1.4-1.9-2.5-4.1-3.6-6.1c-1.8-3.2-3.6-6.4-6.8-8.4c-1.2-0.8-1-1.9-1-3c0-5.1,0-10.2,0-15.4c0-9.7,1-10.6,10.8-9.2
		c0.5,0.1,0.9,0.2,1.3,0.3c9.5,2.2,15.8,8.4,21.1,16.1c1,1.5,1.2,2.8,0.5,4.7C297.5,133.2,307.8,150.2,324.8,152.3z M235.6,103.6
		c0-1,0.1-1.9,1.5-1.5c6.7,2.1,13.7,1.2,20.5,1.3c7.2-1.9,7.1-1.9,7.2,5.5c0,2.6-0.2,5.3,0.1,7.8c0.4,3.4-1,4.5-4.2,4
		c-1-0.2-2-0.1-3.1-0.2c-6.8,0.8-13.6,0-20.4,0.4c-1.4,0.1-1.7-0.8-1.7-2C235.6,113.8,235.6,108.7,235.6,103.6z M284,204.1
		c-0.7,1.2-1.8,0.7-2.8,0.7c-20.2,0-40.4,0-60.6,0c-0.9,0-2.1,0.4-2.8-0.7c0-5.2,0.1-10.4,0.1-15.6c0-5.6,0-11.3-0.2-16.9
		c-0.1-1.9,0.8-2.2,2.4-2.2c7.1,0.1,14.2,0.1,21.3,0.1c1.4,0,2.9,0,4.3,0c4.8,0,9.7,0,14.5,0c7.1,0,14.2,0,21.4,0
		c1.2,0,2.5-0.2,2.4,1.8c-0.2,5.3-0.2,10.6-0.3,15.9C283.9,192.8,283.9,198.5,284,204.1z M238.9,499c-12,1-24,0.3-36,0.5
		c-0.8,0-1.5-0.3-2.3-0.4c-1.2,0.1-2.4,0.1-3.4-0.7c-1.7-0.9-3.1-2.2-3.2-4.1c-0.3-7.3-1.4-14.6-1.1-21.9c-0.1-1.6-0.1-3.2-0.2-4.9
		c-0.1-2.7-0.2-5.4-0.4-8.1c-1.1-1-0.2-1.9,0.1-2.8c-1.2-5.4-0.6-10.9-0.9-16.4c0-0.3,0-0.7-0.1-1.1c-0.5,1.2-0.8,2.3-0.9,3.6
		c-0.1,9.9-1.1,19.8-1.1,29.8c0,7.4-0.9,14.9-1.4,22.3c-1.8,5.2-6.1,4.3-10.1,4.2c-1.4-0.1-2.7-0.2-4.1-0.2
		c-7.5-0.1-13.9-8.1-14.1-14.9c-0.2-5.7,0-11.3,0.1-17c0-1.2,0-2.3,0.1-3.5c-0.4-5.2-0.3-10.4-0.1-15.6c0-1.2,0-2.3,0-3.5
		c0-12,0-24.1,0-36.1c0-1.2,0-2.3,0-3.5V372c2.8,3.2,5.2,6,6.8,9.5c3.7,3.7,6.4,8.1,9.5,12.2c5.3,7,10.4,14.2,15.6,21.2
		c3.9,5.1,7.8,10,11.2,15.4c1.1,0.8,1.8,1.9,2.4,3.1c6.8,8.7,13.4,17.5,19.6,26.6c0.8,0.7,1.6,1.5,1.8,2.6
		c6.4,7.4,11.7,15.6,17.6,23.3c3.2,4.1,6.2,8.3,9.7,13.1H238.9z M348.1,402.1L348.1,402.1c0.2,0.2,0.5,0.5,0.7,0.7
		c1,4.7,1,9.4,0,14.1c-0.1,0.2-0.3,0.3-0.5,0.3c0,0.5-0.3,0.7-0.7,0.7c-4.4,1.5-9-0.3-11-4.4c-1.9-3.9-0.6-8.2,3.3-10.8
		C342.4,401,345.2,400.5,348.1,402.1z M346.2,365.6c0-5.6,0-11.1,0-16.7c0-0.9-0.6-2.3,0.9-2.5c1.1-0.2,1.9,0.6,2.5,1.5
		c0.9,1.1,1.1,2.4,1.1,3.8c0,9.4,0,18.8,0,28.2c0,0.9-0.1,1.8-0.5,2.6c-0.5,1.3-1.5,2.6-3,2.4c-1.8-0.2-1.1-2-1.1-3
		C346.1,376.5,346.2,371,346.2,365.6z M347.5,314.7L347.5,314.7c0.7-0.2,1,0.3,1.3,0.8c1,4.7,1,9.3,0,14c-2.2,2.1-5.1,2.2-8.2,0.3
		l0,0c-0.6,0.1-1.1-0.1-1.5-0.6c-5.5-4.5-4.6-11.7,1.8-14.4C343.2,313.9,345.3,313.2,347.5,314.7z M323.1,255.4
		c1.6,0,3.2-0.4,4.7,0.5c0.9,0.2,2,0,2.7,0.8c6.1,1.7,11.1,7.2,11.2,13.5c0.3,12.6,0.2,25.2,0.3,37.8c0,1.2-0.3,2-1.5,2.3
		c-9.5,2.4-12.8,15.5-3.9,22.8c4.2,1,5.7,3.3,5.6,7.9c-0.4,13.8-0.2,27.6-0.2,41.4v4.2c-2.7-3.2-4.8-5.7-6.3-8.8
		c-5.5-6-9.8-13-14.9-19.4c-1.1-1.4-2.2-2.8-3.4-4.2c-0.2,1.9,0.4,3.9-0.3,5.8c1,1.6,2,3.1,2.9,4.7c0.3,0.4,0.6,0.8,0.9,1.1
		c0.8,0.8,1.6,1.6,2,2.7l0,0c0.2,0.3,0.4,0.5,0.6,0.8c0.5,0.6,1,1.2,1.5,1.9c0.4,0.6,0.8,1.1,1.2,1.7c0.3,0.4,0.5,0.8,0.8,1.2
		c0.8,1,1.5,2,2.3,3l0.1,0.2c0.4,0.5,0.7,1,1.1,1.5l0,0c0.7,0.9,1.4,1.9,2.1,2.8s1.3,1.8,2,2.7c1.2,1.5,2.3,3.1,3.5,4.6l0,0
		c0.9,1.2,1.7,2.4,2.6,3.5c2.1,2.9,1.9,4.2-1.1,5.4c-1,0.4-2,0.9-3,1.4l-2.8,2.8c-0.2,0.3-0.4,0.5-0.6,0.8c-0.5,1.4-1.1,2.8-1.6,4.2
		c0.1,0.2,0.1,0.4-0.1,0.6c-0.1,0.7-0.2,1.4-0.3,2c0.4,2.9,1.1,5.7,2.7,8.2c0.7,0.7,1.3,1.4,2,2.1c0.3,0.2,0.6,0.4,0.9,0.6
		c0.8,0.4,1.5,0.8,2.2,1.2c2.4,0.2,3.1,1.2,3.1,3.7c-0.1,18.9-0.1,37.9-0.1,56.8c0,2.1,0,4.1-1.1,5.9c-0.2,0.7-0.2,1.5-0.9,2
		c-0.2,0.9-0.7,1.6-1.4,2.2c-0.2,0.2-0.3,0.4-0.5,0.7c-2.5,3.3-5.7,5.4-9.9,5.9c-1.1,0.2-2.2,0.5-3.3,0.5c-20.5,0-41,0-61.5,0
		c-0.4,0-0.9-0.1-1.3-0.2h-0.7c-0.5,0.2-0.9,0.3-1.4,0c-0.6,0.1-0.7-0.4-0.9-0.8c-0.5-0.7-1-1.3-1.5-2c-0.3-0.5-0.6-1-1-1.5
		c-0.3-0.3-0.5-0.7-0.8-1c-1.8-2.4-3.5-4.8-5.3-7.2c-1.3-1.1-2.2-2.5-3-4c-0.4-0.5-0.7-1-1.1-1.5c-0.7-0.5-1.2-1.2-1.5-2
		c-0.7-0.5-1.2-1.1-1.5-2h0.1c-0.2-0.3-0.4-0.6-0.6-0.8c-0.5-0.6-1-1.2-1.4-1.9c-0.2-0.3-0.4-0.6-0.6-0.9c-0.3-0.3-0.6-0.7-0.8-1
		c-1.8-2.4-3.5-4.8-5.3-7.2c-1-1.3-1.9-2.6-2.9-3.9c-0.2-0.3-0.4-0.6-0.6-0.9c-0.7-0.5-1.1-1-1.4-1.8c-1.1-1.4-2.2-2.9-3.3-4.3
		c-1.5-2-3-4-4.5-6c-0.3-0.5-0.7-1-1-1.5c-0.3-0.4-0.6-0.8-1-1.3c-0.5-0.7-1-1.3-1.6-2c-0.7-0.9-1.3-1.8-2-2.7c-0.3-0.5-0.7-1-1-1.5
		c-0.9-1.2-1.9-2.5-2.8-3.7c-0.2-0.3-0.5-0.7-0.7-1c-0.8-0.8-1.6-1.6-2-2.7c-0.5-0.7-1.1-1.3-1.6-2c-1.3-1.8-2.6-3.6-3.9-5.4
		c-1.1-1.1-2-2.2-2.6-3.6c-0.7-0.5-1.2-1.1-1.4-1.9c-0.5-0.7-1.1-1.4-1.6-2.1c-0.1-0.2-0.3-0.5-0.4-0.7c-1.6-1.7-3-3.5-4.1-5.5
		c-0.5-0.7-1-1.3-1.5-2s-1-1.4-1.6-2.1c-0.1-0.2-0.2-0.5-0.4-0.7c-7.3-9.7-14.6-19.5-21.9-29.2c-1.4-1.9-2.7-3.8-4.1-5.8
		c-3.9-3.8-5.4-8.2-5.4-13.9c0.3-27.6,0.1-55.3,0.1-82.9c0-12.2,6.7-18.9,19-18.9c19.2,0,38.4,0,57.6-0.1c2.2,0,3.5,0.7,4.8,2.4
		c8,11,16.1,22,24.3,32.9c0.8,1.1,1.7,2.1,2.6,3.1c0-1.9,0-3.7,0.7-5.5c-0.2-0.5-0.5-1-0.7-1.5c-3.7-4.4-7-9-10.2-13.8
		c-1.3-1.1-2.2-2.4-2.8-4c-3.5-3.8-6.4-8.2-9.4-12.4c-0.1-0.2-0.3-0.5-0.4-0.7c0.2,0,0.3-0.1,0.5-0.1c0.5-0.1,0.9-0.1,1.4-0.2
		c7.9-0.6,15.9-0.2,23.8-0.2C288.4,255.4,305.8,255.4,323.1,255.4z M293.5,226.8c6.1,1.3,10.6,7.5,10.9,14.9
		c0.1,1.9-0.2,3.8,0.1,5.7c0.4,3.5-1.1,4.5-4.3,3.6c-3.5,0-7.1,0.1-10.6,0.1c-19.9,0-39.8,0.1-59.6,0.1c-3.3,0-4.9-1.8-5.3-5
		c-0.2-2.1-0.6-4.1-1.8-6.2c-0.6,2.3-1.2,4.7-1.6,7c-0.5,2.6-1.9,4.1-4.5,4.1c-5.6,0.1-11.1,0-16.7,0.1c-1.9,0-2.6-0.8-2.6-2.6
		c0-3.5,0-7,0.6-10.5c1.1-6.3,7.5-12.6,13.9-12.6c22.7-0.2,45.4,0,68.1,0C284.6,225.5,289.2,224.4,293.5,226.8z M284.1,217.6
		c0.3,2.7-1,3.4-3.4,3.1c-2.6,0.5-5.1,0.1-7.7,0c-16.3,0-32.7,0-49.1-0.1c-2,0-4.5,1.5-5.7,0c-1.3-1.5-0.3-4.2-0.4-6.3
		c0-0.8,0.1-1.6,0-2.4c-0.2-2.2,0.5-3,2.9-2.9c17.5,0.1,35,0.1,52.5,0.1c2.5,0,5,0,7.5,0c2.6-0.5,3.7,0.5,3.5,3.2
		C283.9,214,283.9,215.8,284.1,217.6z M284.1,155.8c-0.1,2.3-0.1,4.7,0,7s-1.1,2.6-2.9,2.2c-2.6,0-5.3,0-8,0
		c-17.7,0-35.4,0.1-53.1,0.1c-1.5,0-2.3-0.5-2.3-2.1c0.1-2.7,0-5.4,0-8.2c0-1.5,0.8-1.9,2.1-1.9c16.3,0.9,32.6-0.6,48.9,0
		c1.5,0.1,2.9,0.2,4.4,0.2c2.7,0,5.4-0.5,8.1,0.3C283.1,153.4,284.2,153.8,284.1,155.8z M271.5,130.4c3.5,5.4,6.6,11,9.9,16.5
		c0.9,1.6,0.6,2.3-1.3,2c-2.5,0.3-5.1,0.9-7.6-0.1c-7.3,0.4-14.6,0.3-21.9,0c-9.5,0.4-19.1,0.3-28.7,0c-1.5,0.2-2.6,0.2-1.4-1.8
		c3.3-5.4,6.4-11,9.7-16.4c2.3-3.7,5.7-5.7,10.2-5.6c7.1,0,14.3,0,21.4,0C266,125,269.3,127,271.5,130.4z M294.8,97.7
		c-4.7-3.6-10-5.9-16-6.1c-7.4-0.2-14.6,1.1-20.9,5.3c-4.3,2.9-9.1,2.1-13.8,2.6c-0.7,0.1-1.7-0.7-2.1-1.3c-0.3-0.5,0.8-0.9,1.3-1.3
		c3.4-3.2,7.1-5.9,11.2-8.1c19.7-12.7,41-14.7,59.4-1.6c2.8,2,4.8,4.2,4.6,7.7c-0.1,1.6,1.3,2.3,1.4,3.6c2.1,3.1,4,6.3,7,8.7
		c4.8,3.7,10.1,5.2,16,4.1c4-0.8,6.9-3.3,9.1-6.6c1.3-3.6,1.3-7.1-0.5-10.5c-1.6-3.1-5.6-4.7-9.8-3.4c-2.6,0.8-4.5,4.7-4,7.9
		c0.2,1.4,0.8,2.8,2.5,2.6c1.5-0.2,1.9-1.4,1.7-2.8c-0.3-2,0.2-3.9,2.4-4.1c2.4-0.3,3.6,1.6,4.1,3.7c0.6,2.4,0.1,4.7-1.8,6.6
		l-0.1,0.2h-0.2c-0.2,0.5-0.5,0.7-1,0.7c-0.3,0.6-0.7,0.9-1.4,0.7l0,0c-3.8,2.3-8.9,1.8-12.4-1.4v0.1c-5.9-2.9-8-8.3-9.4-14.1
		c-0.3-1.3,0.7-2.1,1.4-3c5.8-7.5,16.1-10.6,25.1-7.1c3.1,1.2,4.3,0.4,6-2.1c9.2-14,27-19.2,42.4-12.4c15.1,6.7,23.3,23.7,19.1,39.9
		c-0.6,2.2-1.6,3.8-3.5,5.2c-4.6,3.3-9.4,5.9-15,7c-1.5,0.3-3,0.3-4.5,0c-11-1.7-18.6-17-13.3-26.7c2-3.7,5-6,9.3-5.8
		c4.8,0.2,8.9,2.1,11.2,6.5c2.1,4.1-2.2,10.1-6.8,9.7c-2.2-0.2-3.1-1.8-3.5-3.6c-0.4-1.4-0.8-2.9-2.6-2.4c-1.9,0.5-1.7,2-1.4,3.6
		c1.2,5.2,5.4,7.8,10.5,6.1c4.5-1.4,7.4-4.4,8.3-9.1c0.9-4.5-1-8.1-4.4-10.8c-5.1-4-11-5.7-17.2-3c-6.5,2.8-8.7,8.6-9.4,15.1
		c-0.2,1.8,0.1,3.6,0.2,5.4c1.3,3.4,2.5,6.8,4.7,9.7c6.5,9,15,11.6,25.4,7.7c3.3-1.2,6.4-2.9,9.3-4.9c4.2-2.9,4.2-2.8,7.8,1
		c9.2,9.3,12.3,20.4,8.8,32.9c-3.6,13-12.3,21.1-25.4,24.4c-6.1,1.5-12.1,1.1-18.1-0.8c-1.6-0.5-3.1-1-3-3.1
		c-0.6-1.5-0.9-3.1-0.8-4.8c-2.1-11.8,5.9-21.6,16.9-20.4c4.2,0.4,7.4,3.2,8.2,7c0.7,3.4-0.9,6.4-4.1,8.5c-1.1,0.7-2.3,1.1-3.1,0.4
		c-0.9-0.8-2.2-1.8-1.6-3.4c0.6-1.8,0.1-3.4-1.7-3.5c-1.8-0.2-2.2,1.7-2.4,3.1c-0.4,2.5,0.1,4.8,2.4,6.3c3.1,2,6.3,1.7,9.4,0.2
		c4.7-2.4,6.6-9,4.5-14.6c-1.9-5.2-7.5-8.7-12.5-7.6c-2,0.4-3.9-0.6-6-0.1c-7.8,2.2-13.2,8.8-14.1,17.7c-0.1,1.2-0.3,2.5-0.5,3.7
		c0.2,2.4,0.4,4.8,0.7,7.2c1.4,2.1,0.9,3.2-1.5,4.3c-5.5,2.5-11.7,3.9-17.2,2.9c-11.2-2-20.9-7.5-26.3-18.3
		c-4-8.1-6.8-16.6-4.2-25.9c3.1-10.8,13.7-15.6,23.9-10.8l-0.1,0.2l0.2-0.1c4.6,1.7,7.4,5,8.8,9.5c1.7,5.6-0.1,9.7-5.4,12.7
		c-4.2,2.8-8.2,3-12.1-0.6c-1.2-1.1-1.8-2.3-1.1-3.9c1.6-3.6,2.3-3.8,5.7-1.8c1.1,0.6,2.1,1,3,0c1-1.2,0.6-2.3-0.4-3.3
		c-2.3-2-4.8-3-7.8-1.7c-3.1,1.3-5.3,4.9-5.1,8.5c0,0.9,0.3,1.8,0.5,2.7c6.2,7.9,17.5,8.1,24.1,0.3c0.7-0.8,1.3-1.5,1.9-2.3
		c3.5-9.8-0.4-19.3-9.9-23.8c-10.4-4.9-22.4-1.5-27.8,7.7c-3.5,6.2-4.2,12.9-3,19.8c0.5,2.6-0.4,2.6-2.4,2.2
		c-12.6-2.8-19.9-16-15.9-28.9c1.2,0,1.3,1,1.7,1.7c1.8,2.6,3.6,5.1,5.3,7.7c1.1,0.5,2.3,0.8,3.1-0.4c0.6-0.9,0.5-2-0.1-2.9
		C310.1,115.6,304.4,105,294.8,97.7z"/>
	<g>
		<path class="st3" d="M379.8,245c-10,0-18.4-7.5-19.4-17.5c-0.2-1.5-0.6-2.3-2-3c-5.7-2.7-8.9-7.2-8.9-13.7c0-2.4-1.2-3.6-3.2-4.7
			c-6.9-3.8-12.9-8.6-16.9-15.5c-3.2-5.4-4.6-11.3-4.3-17.6c0.1-0.9-0.4-2.4,1.4-2.5c1.3,0,2.4-0.2,3.2,1.3
			c6.2,11.9,16.7,17.3,29.3,19.9c3.7,0.8,6.3,0,9.5-2.3c7.6-5.7,19.4-4.4,24.6,5.5c1.1,2,2.2,3,4.4,3.6c7,1.7,11.7,7.1,12.6,14.4
			c0.8,6.6-2.7,13.4-8.7,16.4c-1.9,0.9-2.9,2.2-3.7,4.1C394.6,240.5,387.5,245,379.8,245z M393.4,233L393.4,233
			c1.6-1.6,1.5-2.2-0.2-2.8c-5,0-8.3-3.1-11.6-6.2c-2.1-3.5-2.4-7.3-0.3-10.6s6-2.5,9.2-2.3c2.7,0.2,4.6,2.3,5.5,5c0.3,1,0.3,2,0,3
			c-0.3,0.8-0.4,1.9-1.5,1.9c-1.3,0-1.6-1-1.7-2.1c-0.1-2.7-1.6-4.1-4.2-4.6c-1.9-0.3-3.7,0-4.8,1.8c-1.2,2.2-0.5,4.2,1.2,5.9
			c0.5,0.9,1.2,1.7,2.3,2.1c4.2,3.3,8.5,3.7,12.7,1.4v0.1c4.3-2.1,7-6.9,6.5-11.7c-0.6-5.8-4.5-10.3-10.2-11.9
			c-1.7-0.5-2.5-0.3-3.5,1.3c-3,4.7-7.5,6.4-12.9,5.8c-3.8-0.4-6.7-3.3-7.2-6.7c-0.5-3.2,1.6-6.2,4.7-6.9c2.8-0.7,5.7,1,6.7,3.9
			c0.4,1.1,0.5,2.1-0.6,2.7c-1.3,0.7-2.1,0.2-2.7-1.1c-0.7-1.7-1.8-2.8-3.6-1.2c-1.7,1.4-0.8,2.8,0.3,4.1c2.6,2.8,6.4,2.7,10.3-0.3
			c3.1-2.4,3.5-5.1,1.1-8.2c-4.7-6.2-13.3-7.2-19.2-1.9c-2.6,2.4-5.3,3-8.7,2.5c-12.6-1.8-23.5-6.6-31.7-16.7
			c1.2,8.1,5.3,14.4,12,19.1l0,0c1.9,2.4,4.5,3.7,7.1,5c3.3,1.7,4.7,4.2,4.7,7.9c0,3.5,1.2,6.6,4.5,8.4l0.1-0.1
			c-0.1,1,0.8,1.1,1.4,1.4v-0.1c1.3,1.1,2.6,1.8,4.3,0.8c0.8-0.1,1.4-0.5,1.9-1.1c0.2-0.2,0.4-0.3,0.6-0.5c0.7-0.3,1.2-0.9,1.5-1.5
			c2-2.3,2.8-4.9,1.8-7.9c-0.8-2.3-2.1-4.5-4.8-3.5c-2.7,1-2.5,3.5-1.2,5.7c0.6,1.1,1.5,2.3-0.2,3.1c-1.6,0.8-2.5-0.4-3.2-1.7
			c-1.9-3.3-0.8-8.9,2-10c4.6-2,9.2-0.2,10.7,4.4c0.7,2.3,1.5,4.8,0.6,7.3c-1.7,4.3-4.5,7.5-8.8,9.4c-1.5,7.7,8.2,18.4,15.9,16.9
			c3.7-0.7,7.7-1.9,10.5-5.1c0.4-0.4,0.8-0.8,1.2-1.2C392.5,234.9,393.7,234.3,393.4,233z"/>
		<path class="st3" d="M320.1,74.4c6.4-8.2,14.9-10.2,24.7-8.4c2,0.4,3.2,0.2,4.6-1.5c4.3-5.4,9.7-9.6,16.3-12
			c11.7-4.3,23.2-3.2,34.1,2.7c0.3,0.2,0.5,0.4,0.7,0.7c0.1,0.1,0,0.2,0,0.5c-4.1-0.9-8-2.1-12.2-2.6c-14.6-1.7-26.6,3.3-36,14.3
			c-2.3,2.7-4.1,3.6-7.7,2.2c-8.9-3.6-16.9-1-24.2,4.4C320.3,74.7,320.2,74.6,320.1,74.4z"/>
		<path class="st3" d="M432.2,110.7c11.1,8.8,15.7,30.8,9.3,44.1c0.2-7.9,0.1-15.5-1.4-22.9C438.6,124.4,435.7,117.4,432.2,110.7z"
			/>
		<path class="st3" d="M303.1,147.6c-8.1-5.1-13.1-18.9-8-27.4c0-0.1,0.1-0.1,0.1-0.2c-0.1,0.1-0.2,0.1-0.2,0.2
			C295.7,129.9,299,138.9,303.1,147.6L303.1,147.6z"/>
		<path class="st3" d="M398.5,241.1c-1.1,3.9-3.8,6.6-7.3,8.2c-4.9,2.3-9.9,2.9-15.3,1.6c-1.6-0.4-2.6-1.6-4.1-2
			c1-1.7,2.3-0.1,3.5-0.2c3.7-0.3,7.4,0.2,11.1-0.7C391,246.9,394.8,244.1,398.5,241.1z"/>
		<path class="st3" d="M422.5,178.7c4.5-6.3,10.4-11.2,16.3-15.9C436.2,170.9,430.4,175.9,422.5,178.7z"/>
		<path class="st3" d="M424.8,80.1c-4.3-6.7-9.3-12.6-15-18.3C415.7,62.3,423.3,71.7,424.8,80.1z"/>
		<path class="st3" d="M306.9,151.1c3.9,0.6,7.1,2.5,10.1,4.9C312.6,156.3,309.2,154.7,306.9,151.1z"/>
		<path class="st3" d="M358.3,237.7c2.5,2,3.8,3.7,5.5,7.1C360.2,243.5,358.7,241.6,358.3,237.7z"/>
		<path class="st3" d="M303.1,147.6l0.1,0.1C303.2,147.6,303.1,147.6,303.1,147.6L303.1,147.6z"/>
		<path class="st3" d="M320.5,74.8c-0.2,0.1-0.7,0.3-0.7,0.2c-0.2-0.4,0.1-0.4,0.4-0.5C320.2,74.6,320.3,74.7,320.5,74.8z"/>
		<path class="st4" d="M353.8,122.1c4.6,1.7,7.4,5,8.8,9.5c1.7,5.6-0.1,9.7-5.4,12.7l-0.2-0.2c-0.3-1.7-1.5-1.5-2.6-1.1
			c-2,0.8-3.7-0.1-5.6-0.4c-1.7-0.3-2.2-2.6-4.1-2.6c-0.2-0.1-0.5-0.1-0.7-0.2c1.6-3.6,2.3-3.8,5.7-1.8c1.1,0.6,2.1,1,3,0
			c1-1.2,0.6-2.3-0.4-3.3c-2.3-2-4.8-3-7.8-1.7c-3.1,1.3-5.3,4.9-5.1,8.5c0,0.9,0.3,1.8,0.5,2.7c-1.2,1.2-0.5,2.2,0.2,3.3
			c4.9,8.3,18.7,8.4,24.4,0c1.1-1.6,2.6-3.2,1.4-5.4c3.5-9.8-0.4-19.3-9.9-23.8c-10.4-4.9-22.4-1.5-27.8,7.7
			c-3.6,6.2-4.2,12.9-3,19.8c0.5,2.6-0.4,2.6-2.4,2.2c-12.6-2.8-19.9-16-15.9-28.9c1.2,0,1.3,1,1.7,1.7c-3.1,7.5,0.7,18.3,7.9,21.9
			c-1.5-3.6-4.2-6.5-4.3-10.4c0-1.6-0.3-3.2,1.7-3.8c1.1,0.5,2.3,0.8,3.1-0.4c0.6-0.9,0.5-2-0.1-2.9c-6.9-9.5-12.6-20.1-22.2-27.4
			c-4.7-3.6-10-5.9-16-6.1c-7.4-0.2-14.6,1-20.9,5.3c-4.3,2.9-9.1,2.1-13.8,2.6c-0.7,0.1-1.7-0.7-2.1-1.3c-0.3-0.5,0.8-0.9,1.3-1.3
			c3.4,1.9,6.6,0.7,9.8-0.5c5.7-2,11-4.9,17.1-5.7c9-1.2,17.5-0.7,25.2,5.2c5.9,4.5,10.6,9.9,14.9,15.7c3.1,4.2,5.7,8.6,8.6,13.5
			c1.7-3.1,1.6-5.7-0.1-8.3c-3.5-5.3-7.3-10.3-11.4-15.2c-11.1-13.4-24.4-19.4-41.8-14.3c-3.6,1-7.2,2.1-11,1.5
			c19.7-12.7,41-14.7,59.4-1.6c2.8,2,4.8,4.2,4.6,7.7c-0.1,1.6,1.3,2.3,1.4,3.6c-0.2,0.4-0.6,0.8-0.5,1.1
			c2.8,12.6,17.6,19.5,28.3,12.1c2.3-1.5,5.2-3.4,4.2-7.1c1.3-3.6,1.3-7.1-0.5-10.5c-1.6-3.1-5.6-4.7-9.8-3.4
			c-2.6,0.8-4.5,4.7-3.9,7.9c0.2,1.4,0.8,2.8,2.5,2.5c1.5-0.2,1.9-1.4,1.7-2.8c-0.3-2,0.2-3.9,2.4-4.1c2.4-0.3,3.6,1.6,4.1,3.7
			c0.6,2.4,0.1,4.7-1.8,6.6c-0.1-2.1-1.4-2-2.9-1.5c-3.9,1.5-7.8,0.9-11.6-0.5c-0.7-0.3-1.4-1.2-2.4-0.5c0.2,1.2,2,1.3,1.7,2.8
			c-5.9-2.9-8-8.3-9.4-14.1c-0.3-1.3,0.7-2.1,1.4-3c5.8-7.5,16.2-10.6,25.1-7.1c3.1,1.2,4.3,0.4,6-2.1c9.2-14,27-19.2,42.4-12.4
			c15.1,6.7,23.3,23.7,19.1,39.9c-0.6,2.2-1.6,3.9-3.5,5.2c-4.6,3.3-9.4,5.9-15,7c-1.5,0.3-3,0.3-4.5,0c-11-1.7-18.6-17-13.3-26.7
			c2-3.7,5-6,9.3-5.8c4.8,0.2,8.9,2.1,11.2,6.5c2.1,4.1-2.2,10.1-6.8,9.7c-2.2-0.2-3.1-1.8-3.5-3.6c-0.4-1.4-0.8-2.9-2.6-2.4
			c-1.9,0.5-1.7,2-1.4,3.6c1.2,5.2,5.4,7.8,10.5,6.1c4.5-1.4,7.4-4.4,8.3-9.1c0.9-4.5-1-8.1-4.4-10.8c-5.1-4-11-5.7-17.2-3
			c-6.5,2.8-8.7,8.6-9.4,15.1c-0.2,1.8,0.1,3.6,0.2,5.4c-1.7,1.6-0.3,3.3,0,4.8c2.6,10.7,10.3,19.4,22.9,19.3
			c9.8-0.1,17.4-4.2,24.2-10.5c9.2,9.3,12.3,20.4,8.8,32.9c-3.6,13-12.3,21.1-25.4,24.4c-6.1,1.5-12.1,1.1-18.1-0.8
			c-1.6-0.5-3.1-1-3-3.1c9.7,5.2,19.2,3.8,28.6-0.9c3.5-1.7,7.2-3.4,8.9-7.3c0-0.1,0.1-0.2,0.1-0.3c-0.1,0.1-0.1,0.2-0.2,0.3
			c-0.6,0.3-1.3,0.5-1.8,0.8c-5.7,3.3-11.7,5.8-18.3,6.7c-6.5,0.8-12.5-0.7-18.1-4.1c-2.1-11.8,5.9-21.6,16.9-20.4
			c4.2,0.4,7.4,3.2,8.2,7c0.7,3.4-0.9,6.4-4.1,8.5c-1.1,0.7-2.3,1.1-3.1,0.4c-0.9-0.8-2.2-1.8-1.6-3.4c0.6-1.8,0.1-3.4-1.7-3.5
			c-1.8-0.2-2.2,1.7-2.4,3.1c-0.4,2.5,0.1,4.8,2.4,6.3c3.1,2,6.3,1.7,9.4,0.1c4.7-2.4,6.6-9,4.5-14.6c-1.9-5.2-7.5-8.7-12.5-7.6
			c-2,0.4-3.9-0.6-6-0.1c-7.8,2.2-13.2,8.8-14.1,17.7c-0.1,1.2-0.3,2.5-0.5,3.7c-4.3,1.3-8.6,2.9-13.1,3.3
			c-9.1,0.8-16.7-2.8-23.4-8.6c-3.7-3.2-6.1-7.5-9.3-11.1c-0.1,0-0.2-0.1-0.3-0.1c0.1,0.1,0.2,0.1,0.3,0.2c0.7,6.3,4.1,11.2,7.7,16
			c9.7,12.5,26.3,14.4,38.8,7.7c1.4,2.1,0.9,3.2-1.5,4.3c-5.5,2.5-11.7,3.9-17.2,2.9c-11.2-2-21-7.5-26.3-18.3
			c-4-8.1-6.8-16.6-4.1-25.9C333,122.1,343.6,117.3,353.8,122.1c-4,0.3-8.1-0.3-12.1,0.5c6.7,2,12.2,6.2,18.6,8.7
			c-0.3-0.5-0.6-0.9-0.7-1.3C358.8,126.6,355.2,125.2,353.8,122.1z M358.1,78.7c8.9-4.9,18-8.7,28.3-7.5
			c10.4,1.2,17.8,8.1,25.4,14.6c-4.5-11.3-12.2-18.8-24.7-20.1C375.1,64.5,366,70.5,358.1,78.7z M410.7,109.1
			c-11.2,4-21.6,5.5-29.4-6.3c0.4,5.7,5.4,11.2,10.6,12.6C398.3,117,407.4,114.2,410.7,109.1z M346.6,81.9c-6.5-2.1-15-0.2-17.1,3.5
			C335.8,87.4,340.3,80.9,346.6,81.9z"/>
		<path class="st5" d="M289.6,251.1c-19.9,0-39.7,0.1-59.6,0.1c-3.3,0-4.9-1.8-5.3-5c-0.2-2.1-0.6-4.1-1.8-6.2
			c-0.6,2.3-1.2,4.7-1.6,7c-0.5,2.6-1.9,4.1-4.5,4.1c-5.6,0.1-11.1,0-16.7,0.1c-1.9,0-2.6-0.8-2.6-2.7c0-3.5,0-7,0.6-10.5
			c1.1-6.3,7.5-12.6,13.9-12.6c22.7-0.2,45.4,0,68.1,0c5.4,3.7,8.9,8.6,9.4,15.2C289.7,244.2,289.6,247.6,289.6,251.1z"/>
		<path class="st6" d="M217.8,204.2c0-5.2,0.1-10.4,0.1-15.6c6.1-3.3,12.2-4.2,18.4,0.1c1,0.7,2.5,0.8,3.8,1.1
			c4.7,0.7,8.5-1.7,12.5-3.5c2.3-1.1,4.9-1.4,7.4-1.9c2,0.5,3.8,1.4,5.7,2.3c6,2.8,12,3.8,18.2,0.4c0.1,5.6,0.1,11.3,0.2,16.9
			c-8.6,0.1-17.2,0.2-25.8,0.2C244.8,204.3,231.3,204.2,217.8,204.2z"/>
		<path class="st5" d="M273.2,165.1c-17.7,0-35.4,0.1-53.1,0.1c-1.5,0-2.3-0.5-2.3-2.1c0.1-2.7,0-5.4,0-8.2c0-1.5,0.8-1.9,2.1-1.9
			c16.3,0.9,32.6-0.6,48.9,0c1.5,0.1,2.9,0.2,4.4,0.2C273.3,157.3,273.2,161.2,273.2,165.1z"/>
		<path class="st5" d="M273,220.6c-16.4,0-32.7,0-49.1-0.1c-2,0-4.5,1.5-5.7,0c-1.3-1.5-0.3-4.1-0.4-6.3c0-0.8,0.1-1.6,0-2.4
			c-0.2-2.2,0.5-3,2.9-2.9c17.5,0.1,35,0.1,52.5,0.1C273.1,212.8,273.1,216.7,273,220.6z"/>
		<path class="st7" d="M283.8,187.2c-6.1,3.4-12.2,2.4-18.2-0.4c-1.8-0.9-3.6-1.8-5.7-2.3c0.1-5,0.2-10,0.3-14.9
			c7.1,0,14.2,0,21.3,0c1.2,0,2.5-0.2,2.4,1.8C283.9,176.6,283.9,181.9,283.8,187.2z"/>
		<path class="st7" d="M240.1,189.9c-1.3-0.4-2.8-0.4-3.8-1.1c-6.1-4.4-12.2-3.5-18.4-0.1c0-5.6,0-11.3-0.2-16.9
			c-0.1-1.9,0.8-2.2,2.4-2.2c7.1,0.1,14.2,0.1,21.3,0.1c0,4.4,0,8.8,0.1,13.2C241.6,185.3,241.6,187.7,240.1,189.9z"/>
		<path class="st8" d="M254.8,88.7c3.8,0.7,7.5-0.4,11-1.5c17.4-5.1,30.7,0.9,41.8,14.3c4.1,4.9,7.9,9.9,11.4,15.2
			c1.7,2.5,1.8,5.2,0.1,8.3c-2.8-4.8-5.5-9.3-8.6-13.5c-4.3-5.9-9-11.3-14.9-15.7c-7.7-5.9-16.3-6.4-25.2-5.2
			c-6,0.8-11.4,3.7-17.1,5.7c-3.2,1.1-6.5,2.3-9.8,0.5C246.9,93.6,250.6,90.9,254.8,88.7z"/>
		<path class="st5" d="M257.6,120.6c-6.8,0.7-13.6,0-20.4,0.4c-1.4,0.1-1.7-0.8-1.7-2c0-5.1,0-10.2,0-15.3c0-1,0.1-1.9,1.5-1.5
			c6.7,2.1,13.6,1.2,20.5,1.3C257.6,109.2,257.6,114.9,257.6,120.6z"/>
		<path class="st9" d="M269,288.3c2.7,2.3,4.2,5.5,6.3,8.3c14.1,18.8,28,37.6,42,56.5c0.1,0.4,0.1,0.7,0.2,1.1
			c-0.2,1.9,0.4,3.9-0.3,5.8c-6.5-8.7-13-17.4-19.6-26.1c-9-11.8-17.3-24.1-26.7-35.6c-0.6-0.8-1.1-1.7-1.6-2.5
			c-0.3-0.7-0.6-1.3-0.9-2C268.2,292,268.3,290.1,269,288.3z"/>
		<path class="st8" d="M332.5,146.1c3.2,3.6,5.6,7.9,9.3,11.1c6.8,5.8,14.3,9.5,23.4,8.6c4.5-0.4,8.8-2,13.1-3.3
			c0.2,2.4,0.4,4.8,0.7,7.2c-12.4,6.7-29.1,4.8-38.8-7.7C336.5,157.4,333.1,152.4,332.5,146.1L332.5,146.1z"/>
		<path class="st8" d="M289.6,251.1c0-3.5,0.1-7-0.1-10.5c-0.5-6.6-4-11.5-9.4-15.2c4.5,0,9.1-1,13.4,1.3c1.2,2.9,4,4.7,5.1,7.8
			c1.9,5.4,1.7,10.9,1.6,16.4C296.7,251,293.1,251.1,289.6,251.1z"/>
		<path class="st8" d="M421.4,116.7c-6.9,6.3-14.4,10.4-24.2,10.5c-12.6,0.1-20.3-8.6-22.9-19.3c-0.4-1.4-1.8-3.2,0-4.8
			c1.3,3.4,2.5,6.8,4.7,9.7c6.5,9,15,11.6,25.4,7.7c3.3-1.2,6.4-2.9,9.3-4.9C417.7,112.8,417.7,112.8,421.4,116.7z"/>
		<path class="st5" d="M260.3,169.5c-0.1,5-0.2,10-0.3,14.9c-2.5,0.5-5.1,0.8-7.4,1.9c-1.3-1.1-2.9-0.8-4.2-0.5
			c-2.4,0.6-2.6-0.4-2.6-2.4c0.1-4.6,0-9.3,0-13.9C250.6,169.6,255.5,169.6,260.3,169.5z"/>
		<path class="st8" d="M257.6,120.6c0-5.7,0-11.4,0-17.1c7.2-1.9,7.1-1.9,7.2,5.5c0,2.6-0.2,5.3,0.1,7.8c0.4,3.4-1,4.5-4.2,4
			C259.7,120.6,258.6,120.6,257.6,120.6z"/>
		<path class="st8" d="M383,165.3c5.6,3.3,11.6,4.9,18.1,4.1c6.6-0.9,12.6-3.3,18.3-6.7c0.6-0.3,1.2-0.5,1.8-0.8l0,0
			c-1.7,4-5.4,5.6-8.9,7.3c-9.3,4.7-18.9,6-28.6,0.9C383.1,168.5,382.8,166.9,383,165.3z"/>
		<path class="st10" d="M340.9,488.1c-2.4-1.9-2.1-4.7-1.2-6.8c0.8-1.9,1-3.6,1-5.5c0-5.8-0.4-11.6,0.1-17.3
			c0.5-6-2.2-11.7-1.5-17.7c0.4-3.8,2.2-7.5,0.8-11.5c-0.6-1.8,0.4-4-1.9-5.4c-0.7-0.4-0.2-1.7,0.8-2.2c2.4,0.1,3.1,1.2,3.1,3.7
			c-0.1,18.9-0.1,37.9-0.1,56.8C342,484.3,342,486.3,340.9,488.1z"/>
		<path class="st8" d="M352.2,104.5c1,3.8-2,5.6-4.2,7.1c-10.7,7.4-25.5,0.5-28.3-12.1c-0.1-0.3,0.3-0.8,0.5-1.1
			c2.1,3.1,4,6.3,7,8.7c4.8,3.7,10.1,5.2,16,4.1C347.2,110.4,350,107.9,352.2,104.5z"/>
		<path class="st8" d="M273.2,165.1c0-3.9,0.1-7.9,0.1-11.8c2.7,0,5.4-0.5,8.1,0.3c-0.1,3.8-0.1,7.7-0.2,11.5
			C278.5,165.1,275.9,165.1,273.2,165.1z"/>
		<path class="st9" d="M245.8,169.6c0,4.6,0.1,9.3,0,13.9c0,1.9,0.2,3,2.6,2.4c1.3-0.3,2.9-0.6,4.2,0.5c-4,1.7-7.8,4.2-12.5,3.5
			c1.5-2.1,1.5-4.6,1.5-7.1c-0.1-4.4-0.1-8.8-0.1-13.2C242.9,169.6,244.4,169.6,245.8,169.6z"/>
		<path class="st8" d="M366,142.1c1.2,2.2-0.4,3.8-1.4,5.4c-5.7,8.3-19.5,8.3-24.4,0c-0.7-1.1-1.4-2.1-0.2-3.3
			c6.2,7.9,17.5,8.1,24.1,0.3C364.7,143.6,365.3,142.9,366,142.1z"/>
		<path class="st5" d="M300.2,251c0.1-5.5,0.3-11-1.6-16.4c-1.1-3.1-3.9-4.9-5.1-7.8c6.1,1.3,10.6,7.5,10.9,14.9
			c0.1,1.9-0.2,3.9,0.1,5.7C304.9,250.9,303.4,251.9,300.2,251z"/>
		<path class="st8" d="M273,220.6c0-3.9,0.1-7.8,0.1-11.6c2.5,0,5,0,7.5,0c0,3.9,0.1,7.8,0.1,11.7
			C278.1,221.1,275.6,220.7,273,220.6z"/>
		<path class="st8" d="M314.1,128.4c-2,0.6-1.7,2.2-1.7,3.8c0.1,3.9,2.8,6.7,4.3,10.4c-7.2-3.5-11-14.3-7.9-21.9
			C310.6,123.3,312.3,125.8,314.1,128.4z"/>
		<path class="st5" d="M217.8,204.2c13.5,0,26.9,0.1,40.4,0.1c8.6,0,17.2-0.1,25.8-0.2c-0.7,1.2-1.8,0.7-2.7,0.7
			c-20.2,0-40.4,0-60.6,0C219.7,204.8,218.5,205.2,217.8,204.2z"/>
		<path class="st5" d="M280.7,220.6c0-3.9-0.1-7.8-0.1-11.7c2.6-0.5,3.7,0.5,3.5,3.2c-0.2,1.8-0.2,3.6,0,5.4
			C284.4,220.3,283.1,221,280.7,220.6z"/>
		<path class="st8" d="M331.7,104.7c0.3-1.5-1.5-1.6-1.7-2.8c1-0.7,1.6,0.3,2.4,0.5c3.8,1.3,7.7,2,11.6,0.5c1.5-0.6,2.7-0.6,2.9,1.5
			l-0.1,0.2h-0.2c-0.4,0.2-0.7,0.5-1.1,0.7l0,0c-0.6,0-1.2,0-1.4,0.7l0,0C339.9,106.1,335.8,105.9,331.7,104.7L331.7,104.7z"/>
		<path class="st5" d="M281.2,165.1c0.1-3.8,0.1-7.7,0.2-11.5c1.7-0.2,2.8,0.2,2.7,2.2c-0.1,2.3-0.1,4.7,0,7
			C284.2,165.2,283,165.5,281.2,165.1z"/>
		<path class="st10" d="M331.8,386.4c1.5,0,1.9-1.5,2.9-2.1c1.2,1.5,2.3,3.1,3.5,4.6"/>
		<path class="st10" d="M328.3,498.9c2.8-2.8,5.9-5.2,9.9-5.9C335.7,496.2,332.5,498.4,328.3,498.9z"/>
		<path class="st4" d="M357.2,144.3c-4.2,2.8-8.2,3-12.1-0.6c0.1-0.1,0.2-0.2,0.3-0.3c3.8,1.4,7.7,1.7,11.6,0.7L357.2,144.3z"/>
		<path class="st4" d="M331.7,104.6c4,1.3,8.2,1.6,12.4,1.4C340.3,108.3,335.2,107.7,331.7,104.6z"/>
		<path class="st10" d="M333.9,417.8c-4.7,0.2-2.5-4.4-4.3-6.3c-1-1,0.9-1.3,1.6-1.9C331.6,412.5,332.3,415.3,333.9,417.8z"/>
		<path class="st10" d="M336.5,399.3c0-1,0.1-2.4,1.3-2.4c3.4,0,2.8-2.4,2.9-4.4c2.1,2.9,1.9,4.2-1.1,5.4
			C338.6,398.3,337.6,398.8,336.5,399.3z"/>
		<path class="st10" d="M329.4,377c-0.9,0.4-2,0.8-2.7-0.1s-0.6-2.1,0.4-2.9C327.9,375.1,328.6,376,329.4,377z"/>
		<path class="st10" d="M340.7,392.5c-3.1,0.4-3-1.5-2.6-3.6C339,390.1,339.9,391.3,340.7,392.5z"/>
		<path class="st7" d="M323,368.5c-1.2,0.2-1.9-0.9-2.8-1.3c0-0.6,0.2-1.1,0.8-1.4C321.9,366.6,322.6,367.4,323,368.5z"/>
		<path class="st10" d="M332.7,381.5c-2.4,0.3-2.4-1.2-2.1-2.8C331.3,379.6,332,380.6,332.7,381.5z"/>
		<path class="st10" d="M321.1,365.8c-0.6,0.3-0.8,0.8-0.8,1.4c-0.5,0-0.9,0-1.4,0c-0.1-1.1,0.8-1.7,1.3-2.6
			C320.5,365.1,320.8,365.5,321.1,365.8z"/>
		<path class="st4" d="M345.2,143.7c-1.2-1.1-1.8-2.3-1.1-3.9c0.2,0.1,0.5,0.2,0.7,0.2c0.2,1.1,0.4,2.3,0.7,3.4
			C345.4,143.5,345.3,143.6,345.2,143.7z"/>
		<path class="st7" d="M326.3,372.9c-2.1,0.7-1-1-1.2-1.7C325.5,371.8,325.9,372.3,326.3,372.9z"/>
		<path class="st10" d="M338.7,492.3c-0.1-1-0.1-2.1,1.4-2.2C339.9,491,339.3,491.7,338.7,492.3z"/>
		<path class="st10" d="M330.6,378.7c-1.1,0-1.6-0.4-1.1-1.5C329.9,377.7,330.2,378.2,330.6,378.7z"/>
		<path class="st4" d="M344.1,106c0.2-0.7,0.8-0.8,1.4-0.7C345.2,105.9,344.8,106.2,344.1,106z"/>
		<path class="st10" d="M333.2,402.8c0.2-0.3,0.4-0.5,0.6-0.8C333.6,402.3,333.4,402.6,333.2,402.8z"/>
		<path class="st10" d="M336.7,420.4c-0.3-0.2-0.6-0.4-0.9-0.6C336.2,420,336.5,420.2,336.7,420.4z"/>
		<path class="st4" d="M345.4,105.3c0.4-0.2,0.7-0.5,1.1-0.7C346.3,105,346,105.3,345.4,105.3z"/>
		<path class="st10" d="M331.5,407.5c-0.2-0.1-0.3-0.2-0.5-0.4c0.2-0.1,0.4-0.1,0.6-0.2C331.7,407.2,331.6,407.4,331.5,407.5z"/>
		<path class="st7" d="M323.6,369.3c-0.2-0.3-0.4-0.5-0.6-0.8C323.2,368.8,323.4,369,323.6,369.3z"/>
		<path class="st4" d="M373.1,215.7c0.8-2.5,0.1-5-0.6-7.3c-1.5-4.6-6-6.4-10.7-4.4c-2.8,1.2-3.9,6.7-2,10c0.7,1.2,1.6,2.4,3.2,1.7
			c1.7-0.8,0.9-2,0.2-3.1c-1.3-2.3-1.5-4.7,1.2-5.7s4.1,1.2,4.8,3.5c1,3,0.2,5.6-1.8,7.9c-0.3-0.3-0.7-0.9-0.9-0.8
			c-2.6,1.1-5.3,1.4-8.1,0.7c-0.6-0.1-0.7,0.7-0.9,1.2c-3.3-1.8-4.5-4.9-4.5-8.4c0-3.7-1.4-6.1-4.7-7.9c-2.6-1.3-5.2-2.7-7.1-5
			c5.4,2,11,3.7,13.6,9.8c2.3-3.5,2-6.3-1.3-8.2c-5.7-3.3-11.7-6.2-17.6-9.2c-0.1,0-0.2-0.1-0.3-0.1c0.1,0.1,0.2,0.1,0.3,0.2
			c0.1,1.6,1.6,2.3,2.4,3.4c1,1.4,3,2,3,4.1c-6.7-4.6-10.7-10.9-12-19.1c8.2,10.1,19.2,14.9,31.7,16.7c3.4,0.5,6.1-0.2,8.7-2.5
			c5.9-5.3,14.5-4.3,19.2,1.9c2.4,3.1,2,5.8-1.1,8.2c-3.9,3-7.8,3.2-10.3,0.3c-1.2-1.3-2-2.7-0.3-4.1c1.8-1.5,2.9-0.5,3.6,1.2
			c0.5,1.3,1.4,1.8,2.7,1.1c1.1-0.6,1-1.6,0.6-2.7c-1-2.9-3.9-4.6-6.7-3.9c-3.1,0.8-5.2,3.8-4.7,6.9c0.5,3.4,3.4,6.3,7.2,6.7
			c5.4,0.6,9.9-1,12.9-5.8c1-1.6,1.9-1.8,3.5-1.3c5.7,1.6,9.6,6.1,10.2,11.9c0.5,4.8-2.2,9.6-6.5,11.7c-0.2-1-0.7-1.6-1.8-1.5
			c-4.6,0.4-8.7-1.1-12.6-3.5c-0.1-0.3-0.2-0.6-0.3-0.8c-0.1,0.1-0.2,0.2-0.2,0.2c0.1,0.2,0.3,0.5,0.5,0.7c0,0.5,0,1-0.6,1.3
			c-1.7-1.7-2.4-3.7-1.2-5.9c1-1.8,2.8-2.1,4.8-1.8c2.6,0.4,4.1,1.9,4.2,4.6c0,1.1,0.4,2.2,1.7,2.1c1.1,0,1.2-1.1,1.5-1.9
			c0.4-1,0.4-2,0-3c-0.9-2.7-2.8-4.8-5.5-5c-3.2-0.2-7.2-0.9-9.2,2.3c-2.1,3.3-1.8,7.1,0.3,10.6c0.1,2.6,1.9,4.2,3.6,5.9
			c1.9,1.9,1.2,3.2-0.9,4.2c-3.6,1.7-8.9,0.4-12.2-2.9c-2-2-2.7-4.1-1.1-6.7c1.3-2,2-4.3,2.7-6.6C374,217,374.3,216.2,373.1,215.7z"
			/>
		<path class="st8" d="M373.1,215.7c1.2,0.5,0.9,1.3,0.6,2.2c-0.7,2.3-1.4,4.6-2.7,6.6c-1.6,2.6-0.9,4.7,1.1,6.7
			c3.3,3.2,8.6,4.6,12.2,2.9c2-1,2.8-2.3,0.9-4.2c-1.7-1.7-3.5-3.3-3.6-5.9c3.3,3.1,6.7,6.2,11.6,6.2c0.1,0.9,0.1,1.8,0.2,2.8l0,0
			c-1.7,0.3-1.6,1.5-1.5,2.8c-0.4,0.4-0.8,0.8-1.2,1.2c-1.2-0.3-2.1,0.4-3.1,0.9c-8.6,4.5-20.5-0.1-21.7-10.2c-0.1-1-0.6-2-1.5-2.5
			C368.5,223.2,371.4,220,373.1,215.7z"/>
		<path class="st11" d="M364.3,225.1c1,0.6,1.4,1.5,1.5,2.5c1.3,10.1,13.1,14.7,21.7,10.2c1-0.5,1.9-1.2,3.1-0.9
			c-2.7,3.2-6.8,4.3-10.5,5.1C372.6,243.6,362.8,232.8,364.3,225.1z"/>
		<path class="st8" d="M385.7,220.5c3.8,2.4,7.9,3.8,12.6,3.5c1.1-0.1,1.6,0.5,1.8,1.5v-0.1c-4.4,0.7-8.6,0-12.7-1.4
			c-1-0.4-1.7-1.2-2.3-2.1C385.6,221.6,385.7,221.1,385.7,220.5L385.7,220.5z"/>
		<path class="st8" d="M357.5,219.4c0.2-0.5,0.4-1.3,0.9-1.2c2.8,0.7,5.5,0.4,8.1-0.7c0.2-0.1,0.6,0.5,0.9,0.8
			c-0.3,0.7-0.8,1.2-1.5,1.5c-0.7-0.5-0.5,0.2-0.6,0.5c-0.5,0.6-1.1,1-1.9,1.1c-1.2-1.4-2.8-0.7-4.3-0.8v0.1
			C359.1,219.6,358.6,219.2,357.5,219.4L357.5,219.4z"/>
		<path class="st4" d="M387.3,224c4.1,1.4,8.4,2.1,12.7,1.4C395.9,227.7,391.5,227.3,387.3,224z"/>
		<path class="st4" d="M359,220.6c1.5,0.1,3.1-0.6,4.3,0.8C361.7,222.4,360.3,221.7,359,220.6z"/>
		<path class="st11" d="M393.4,233c-0.1-0.9-0.1-1.8-0.2-2.8C395,230.7,395,231.3,393.4,233z"/>
		<path class="st11" d="M391.9,235.7c-0.1-1.3-0.1-2.5,1.5-2.8C393.7,234.3,392.5,234.9,391.9,235.7z"/>
		<path class="st4" d="M357.6,219.3c1-0.1,1.5,0.3,1.4,1.4C358.3,220.4,357.5,220.3,357.6,219.3z"/>
		<path class="st4" d="M365.3,220.3c0.1-0.3-0.1-1,0.6-0.5C365.7,219.9,365.5,220.1,365.3,220.3z"/>
		<path class="st7" d="M358.1,78.7c7.9-8.1,17-14.2,29.1-13c12.4,1.3,20.1,8.8,24.7,20.1c-7.6-6.5-15-13.4-25.4-14.6
			C376.1,70,367,73.8,358.1,78.7z"/>
		<path class="st8" d="M410.7,109.1c-3.4,5.1-12.4,8-18.8,6.3c-5.2-1.3-10.2-6.9-10.6-12.6C389.2,114.6,399.6,113.1,410.7,109.1z"/>
		<path class="st7" d="M353.8,122.1c1.3,3.1,5,4.4,5.9,7.9c0.1,0.4,0.4,0.8,0.7,1.3c-6.4-2.5-11.9-6.7-18.6-8.7
			C345.7,121.8,349.8,122.4,353.8,122.1l-0.2,0.1L353.8,122.1z"/>
		<path class="st7" d="M346.6,81.9c-6.3-1-10.8,5.5-17.1,3.5C331.6,81.7,340.1,79.9,346.6,81.9z"/>
		<path class="st8" d="M345.4,143.4c-0.2-1.1-0.4-2.3-0.7-3.4c1.9,0,2.5,2.3,4.1,2.6c1.8,0.3,3.6,1.2,5.6,0.4
			c1.1-0.4,2.3-0.6,2.6,1.1C353.1,145.1,349.2,144.8,345.4,143.4z"/>
		<path class="st8" d="M332.5,146.2c-0.1-0.1-0.2-0.1-0.3-0.2C332.3,146.1,332.4,146.1,332.5,146.2
			C332.5,146.1,332.5,146.2,332.5,146.2z"/>
		<path class="st8" d="M421.2,161.8c0.1-0.1,0.1-0.2,0.2-0.3C421.3,161.7,421.2,161.8,421.2,161.8
			C421.2,161.9,421.2,161.8,421.2,161.8z"/>
		<path class="st8" d="M335.9,190.5c5.9,3,11.9,5.9,17.6,9.2c3.3,1.9,3.5,4.7,1.3,8.2c-2.6-6.1-8.1-7.9-13.6-9.8l0,0
			c0-2.1-2-2.8-3-4.1C337.4,192.9,336,192.2,335.9,190.5L335.9,190.5z"/>
		<path class="st8" d="M385.7,220.6c-0.2-0.2-0.3-0.5-0.5-0.7c0,0,0.1-0.1,0.2-0.2C385.5,220,385.6,220.2,385.7,220.6
			C385.7,220.5,385.7,220.6,385.7,220.6z"/>
		<path class="st8" d="M335.9,190.6c-0.1-0.1-0.2-0.1-0.3-0.2C335.7,190.4,335.8,190.4,335.9,190.6
			C335.9,190.5,335.9,190.6,335.9,190.6z"/>
		<g>
			<path class="st10" d="M323,368.5L323,368.5L323,368.5L323,368.5z"/>
			<path class="st10" d="M330.6,378.7L330.6,378.7L330.6,378.7L330.6,378.7z"/>
			<path class="st10" d="M331.8,386.4c1.5,0,1.9-1.5,2.9-2.1c-0.7-0.9-1.3-1.8-2-2.7c-2.4,0.3-2.4-1.1-2.1-2.8
				c-1.1,0-1.6-0.4-1.1-1.5l-0.1-0.2c-0.9,0.4-2,0.8-2.7-0.1s-0.6-2.1,0.4-2.9c-0.3-0.4-0.5-0.8-0.8-1.2c-2.1,0.7-1-1-1.2-1.7
				c-0.5-0.6-1-1.3-1.5-1.9c-0.2-0.3-0.4-0.5-0.6-0.8c-1.2,0.2-1.9-0.9-2.8-1.3c-0.5,0-0.9,0-1.4,0c-0.1-1.1,0.8-1.7,1.3-2.6
				c-1-1.6-2-3.1-2.9-4.7c-6.5-8.7-13-17.4-19.6-26.1c-9-11.8-17.3-24.1-26.7-35.6c-0.6-0.8-1.1-1.7-1.6-2.5
				c-0.2,0.3-0.4,0.6-0.6,0.9c0.2-0.3,0.4-0.6,0.6-0.9c-0.3-0.7-0.6-1.3-0.9-2c-0.9-1-1.8-2-2.6-3.1c-8.1-11-16.2-21.9-24.3-32.9
				c-1.3-1.7-2.6-2.4-4.8-2.4c-19.2,0.1-38.4,0.1-57.7,0.1c-12.3,0-19,6.6-19,18.9c0,27.6,0.2,55.3-0.1,82.9
				c-0.1,5.7,1.5,10.1,5.4,13.9c1.4,1.9,2.7,3.9,4.1,5.8c7.3,9.8,14.6,19.5,21.9,29.2c0.1-1.4,0.1-2.8,0.2-4.2
				c1.3-0.4,1.3-1.2,1.2-2.1c0.1,0.9,0,1.7-1.2,2.1c-0.1,1.4-0.1,2.8-0.2,4.2c0.1,0.2,0.2,0.4,0.4,0.7c0.5,0.7,1,1.4,1.6,2.1
				c0.5,0.7,1,1.3,1.5,2c1.8-0.3,2.9-0.4,3.4,0c-0.6-0.4-1.6-0.3-3.4,0c1.1,2,2.5,3.9,4.1,5.5c0-0.8,0-1.4,0-2c0,0.6,0,1.3,0,2
				c0.1,0.2,0.3,0.5,0.4,0.7c0.5,0.7,1.1,1.4,1.6,2.1l0,0c0.2,0.8,0.8,1.4,1.5,1.9c0.6,1.4,1.6,2.5,2.6,3.6c1.3,1.8,2.6,3.6,3.9,5.4
				c0.5,0.7,1,1.3,1.6,2l0,0c0.4,1.1,1.2,1.9,2,2.7c0.2,0.3,0.5,0.7,0.7,1c0.9,1.2,1.9,2.5,2.8,3.7c0.3,0.5,0.7,1,1,1.5
				c0.7,0.9,1.3,1.8,2,2.7c0.5,0.7,1,1.3,1.6,2c0.2-0.2,0.4-0.3,0.5-0.5c-0.1,0.2-0.3,0.4-0.5,0.5c0.3,0.4,0.6,0.8,1,1.3
				c0.3,0.5,0.7,1,1,1.5c1.5,2,3,4,4.5,6c1.1,1.4,2.2,2.9,3.3,4.3c0.2,0.8,0.7,1.4,1.4,1.8c0.2,0.3,0.4,0.6,0.6,0.9
				c1,1.3,1.9,2.6,2.9,3.9c1.8,2.4,3.5,4.8,5.3,7.2c-0.2-1.9-0.4-3.3-0.7-4.4c0.3,1,0.5,2.4,0.7,4.4c0.3,0.3,0.6,0.7,0.8,1
				s0.4,0.6,0.6,0.9c0.5,0.6,1,1.3,1.4,1.9c0.2,0.3,0.4,0.5,0.5,0.8l0,0c0.3,0.8,0.8,1.5,1.5,2c0.2,0.8,0.7,1.5,1.5,2
				c0.4,0.5,0.7,1,1.1,1.5c0.8,1.5,1.7,2.9,3,4c1.8,2.4,3.5,4.8,5.3,7.2c0.3,0.3,0.5,0.7,0.8,1c0.3,0.5,0.6,1,1,1.5
				c0.5,0.7,1,1.3,1.5,2c0.2,0.4,0.2,0.9,0.9,0.8c0.4,0.3,0.9,0.3,1.4,0c0.2,0,0.5,0,0.7,0c0.4,0.1,0.9,0.2,1.3,0.2
				c20.5,0,41,0,61.5,0c1.1,0,2.2-0.3,3.3-0.5c2.8-2.8,5.9-5.2,9.9-5.9c0.1-0.2,0.3-0.4,0.4-0.7c-0.1-1-0.1-2.1,1.4-2.2
				c0.7-0.5,0.7-1.3,0.9-2c-2.4-1.9-2.1-4.7-1.2-6.8c0.8-1.9,1-3.6,1-5.5c0-5.8-0.4-11.6,0.1-17.3c0.5-6-2.2-11.7-1.5-17.7
				c0.4-3.8,2.2-7.5,0.8-11.5c-0.6-1.8,0.4-4-1.9-5.4c-0.7-0.4-0.2-1.7,0.8-2.2c-0.7-0.4-1.5-0.8-2.2-1.2c-0.3-0.2-0.6-0.4-0.9-0.6
				c-0.7-0.7-1.3-1.4-2-2.1c-4.7,0.2-2.5-4.4-4.3-6.3c-1-1,0.9-1.3,1.6-1.9c0.1-0.7,0.2-1.3,0.3-2c-0.2-0.1-0.3-0.2-0.5-0.4
				c0.2-0.1,0.4-0.1,0.6-0.2c0.5-1.4,1.1-2.8,1.6-4.2c0.2-0.3,0.4-0.5,0.6-0.8c0.9-0.9,1.9-1.9,2.8-2.8c0-1,0.1-2.4,1.3-2.4
				c3.4,0,2.8-2.4,2.9-4.4c-3,0.4-3-1.4-2.6-3.5v-0.1l0,0l0,0l0,0"/>
			<path class="st10" d="M340.7,392.4C340.7,392.5,340.7,392.5,340.7,392.4C340.7,392.5,340.7,392.5,340.7,392.4L340.7,392.4z"/>
		</g>
		<path class="st11" d="M200.4,259.7c-4.1-1.5-8.1-0.8-12.1-1c-6.4-0.2-12.1,1.8-17.1,5.6c-2.6,2-4.9,4.3-5.2,7.7
			c-0.4,4.7-0.7,9.5-0.7,14.3c-0.1,20.5,0,40.9,0,61.4c0,7.8-0.1,15.7-0.2,23.5c1.4,1.9,2.7,3.9,4.1,5.8
			c7.3,9.8,14.6,19.5,21.9,29.2c0.1-1.4,0.1-2.8,0.2-4.2c0-12.6,0-25.1-0.1-37.7v-38.5c0-15.4-0.2-30.7,0.1-46
			C191.5,272.1,192.6,264.4,200.4,259.7z"/>
		<g>
			
				<linearGradient id="SVGID_4_" gradientUnits="userSpaceOnUse" x1="2793.7798" y1="819.7213" x2="2891.6111" y2="755.6716" gradientTransform="matrix(0.5841 0.8117 0.8117 -0.5841 -2094.4973 -1534.5807)">
				<stop  offset="0" style="stop-color:#FFA500"/>
				<stop  offset="1" style="stop-color:#F94C66"/>
			</linearGradient>
			<path class="st12" d="M185.7,308.2l2,2.7l-6.6,4.8l-2-2.7c-4.1-5.7-5.6-11.6-4.5-18c1.1-6.3,4.4-11.5,10.1-15.6
				c5.7-4.1,11.6-5.6,18-4.6c6.3,1,11.5,4.3,15.6,10l16.2,22.5l-1.7,1.2l-1.6-2.2l-7.7,5.6l-4.8-6.6l2.8-2l-9.8-13.7
				c-2.8-3.8-6.2-6.1-10.3-6.7s-8.1,0.4-11.9,3.2c-3.9,2.8-6.1,6.2-6.8,10.3C181.9,300.4,182.9,304.3,185.7,308.2z M218.9,321.9
				C218.9,321.8,218.9,321.8,218.9,321.9c0.1-0.8-0.1-1.5-0.6-2.3l-6.7-9.3l-4.9,3.5l4.8,6.6l4.2-3L218.9,321.9z M192.8,318
				l-0.7,0.5l7.5,10.5l4.9-3.5l-4.8-6.6l-4.2,3L192.8,318z M236.6,344.3c1.1-6.3-0.4-12.3-4.5-18l-4.6-6.4c0.1,1.1,0.1,2.2-0.1,3.3
				c-0.4,2.4-1.5,4.4-3.2,6.1l1.2,1.7c2.8,3.9,3.8,7.8,3.1,11.9s-3,7.5-6.8,10.3c-3.9,2.8-7.8,3.8-11.9,3.2
				c-4.1-0.6-7.5-2.9-10.3-6.7l-9.8-13.7l2.8-2l-4.8-6.6L180,333l-1.6-2.2l-1.7,1.2l16.2,22.5c4.1,5.7,9.3,9,15.6,10
				s12.3-0.5,18-4.6S235.6,350.6,236.6,344.3z M197.9,308.9c-2.7-0.4-5.3,0.2-7.7,1.9l-8.4,6l20.1,28l6.5-4.7l-0.9-1.2l-1.7,1.2
				l-15.7-21.9l3.5-2.5c1.1-0.8,2.1-1.1,3.2-0.9c1.1,0.2,2,0.8,2.8,1.8l7.7,10.8c1.7,2.4,3.9,3.8,6.7,4.2c2.7,0.4,5.3-0.2,7.7-1.9
				c2.4-1.7,3.8-3.9,4.3-6.7c0.5-2.7-0.2-5.3-1.9-7.7L210.3,296l-6.5,4.7l0.9,1.2l1.7-1.2l13,18.1c0.8,1.1,1.1,2.1,0.9,3.2
				c-0.2,1.1-0.8,2-1.9,2.8c-1.1,0.8-2.1,1.1-3.2,0.9c-1.1-0.2-2-0.8-2.8-1.8l-7.7-10.8C202.9,310.7,200.6,309.3,197.9,308.9z"/>
			<g>
				<g>
					<g>
						<path class="st3" d="M255,372.4c-2,1.5-4.2,2-6.5,1.7s-4.2-1.5-5.6-3.6l-5.6-7.8l13.9-10l5.6,7.8c1.5,2,2.1,4.2,1.8,6.4
							C258.2,369.1,257,371,255,372.4z M253,370.1c1.3-1,2.1-2.2,2.4-3.7c0.2-1.5-0.1-2.9-1.1-4.2l-3.9-5.4l-9.1,6.5l3.9,5.4
							c1,1.3,2.2,2.1,3.6,2.4C250.3,371.4,251.7,371.1,253,370.1z"/>
						<path class="st3" d="M262.1,397.4l-2.2-3.1l2.2-5.1l-4.7-6.6l3.5-0.3l2.6,3.7l2.3-5.3l-14.8,1.1l-2.2-3.1l18-1.5
							c0.5,0,1,0,1.5,0.1c0.6,0.2,1,0.4,1.3,0.8s0.4,0.8,0.3,1.4c0,0.5-0.1,1-0.3,1.5L262.1,397.4z"/>
						<path class="st3" d="M284.2,398.8l-14.3-0.2l-4.6,3.3l-1.7-2.4l4.6-3.3l4.2-13.7l2.2,3.1l-3.1,10.1h10.4L284.2,398.8z"/>
						<path class="st3" d="M291.7,417.3c-1.2,0.8-2.4,1.1-3.8,0.7c-1.2-0.3-2.3-1.1-3.2-2.3l-3.6-5c-0.5-0.7-1-1.1-1.6-1.4
							c-0.7-0.3-1.4-0.3-2,0.2l-2,1.4l8.3,11.6l-2.4,1.7l-9.9-13.8l4.4-3.2c1.3-0.9,2.7-1.2,4.2-0.8c1.4,0.4,2.6,1.2,3.5,2.5l3.6,5
							c0.3,0.5,0.7,0.8,1.2,0.9s0.9,0.1,1.4-0.3c0.4-0.3,0.7-0.7,0.7-1.2s-0.1-1-0.5-1.5l-6.9-9.5l2.4-1.7l6.9,9.5
							c0.9,1.2,1.3,2.5,1.2,3.7C293.5,415.3,292.9,416.4,291.7,417.3z"/>
						<path class="st3" d="M301.8,437.5c-2,1.5-4.2,2-6.5,1.7s-4.2-1.5-5.6-3.6l-5.6-7.8l13.9-10l5.6,7.8c1.5,2,2.1,4.2,1.8,6.4
							C305,434.2,303.8,436,301.8,437.5z M299.8,435.2c1.3-1,2.1-2.2,2.4-3.7c0.2-1.5-0.1-2.9-1.1-4.2l-3.9-5.4l-9.1,6.5l3.9,5.4
							c1,1.3,2.2,2.1,3.6,2.4C297.1,436.5,298.5,436.2,299.8,435.2z"/>
						<path class="st3" d="M309,462.4l-2.2-3.1l2.2-5.1l-4.7-6.6l3.5-0.3l2.6,3.7l2.3-5.3l-14.8,1.1l-2.2-3.1l18-1.5
							c0.5,0,1,0,1.5,0.1c0.6,0.2,1,0.4,1.3,0.8s0.4,0.8,0.3,1.4c0,0.5-0.1,1-0.3,1.5L309,462.4z"/>
						<path class="st3" d="M331.1,463.9l-14.3-0.2l-4.6,3.3l-1.7-2.4l4.6-3.3l4.2-13.7l2.2,3.1l-3.1,10.1h10.4L331.1,463.9z"/>
					</g>
				</g>
				<g>
					<path class="st3" d="M232.9,365.8l1,1.4l-7.1,8.5l10.5-3.8l1.1,1.5l-7,8.6l10.3-4l1,1.4l-12.5,4.4l-1.1-1.5l6.6-8.4l-10.1,3.5
						l-1.1-1.5L232.9,365.8z"/>
					<path class="st3" d="M245.6,395.4l-3.8-5.2l-4.7,3.4l-1-1.3l10.3-7.4l1,1.3l-4.5,3.3l3.8,5.2l4.5-3.3l1,1.3l-10.3,7.4l-1-1.3
						L245.6,395.4z"/>
					<path class="st3" d="M249.5,410.8c-2.1-2.9-1.6-6.7,1.5-9c3.1-2.2,6.9-1.5,9,1.4s1.6,6.7-1.5,9
						C255.4,414.4,251.6,413.7,249.5,410.8z M250.6,409.9c1.6,2.2,4.3,2.7,6.8,0.9c2.5-1.8,2.9-4.6,1.4-6.7
						c-1.6-2.2-4.3-2.7-6.8-0.9C249.5,405,249.1,407.8,250.6,409.9z"/>
					<path class="st3" d="M268.5,415.3l-9.2,6.6l2.6,3.6l-1.1,0.8l-3.6-5l10.3-7.4L268.5,415.3z"/>
					<path class="st3" d="M277.7,430.3l-3-4.2l-3.4,2.5l2.7,3.8l-1.1,0.8l-2.7-3.8l-3.5,2.6l3,4.2l-1.1,0.8l-4-5.5l10.3-7.4l4,5.5
						L277.7,430.3z"/>
					<path class="st3" d="M274.9,446.1c-1.5-2.1-1.4-4.4,0.3-5.6l1,1.4c-0.8,0.7-1.2,1.9-0.2,3.4c0.9,1.3,2.2,1.5,3.2,0.8
						c2.8-2-3-6.3,0.8-9.1c1.7-1.2,3.8-0.7,5.3,1.4c1.4,2,1.3,4-0.2,5.3l-1.1-1.5c0.6-0.6,0.9-1.8,0.1-3.1c-0.8-1.1-2-1.6-3.1-0.8
						c-2.7,1.9,3,6.3-0.8,9C278.8,448.4,276.5,448.3,274.9,446.1z"/>
					<path class="st3" d="M288.2,459.5L285,455l-2.9,0.8l-1-1.4l12.9-3.6l1.1,1.6l-7.6,11.1l-1-1.4L288.2,459.5z M292.9,452.8
						l-6.5,1.9l2.7,3.7L292.9,452.8z"/>
					<path class="st3" d="M302.6,462.7l-9.2,6.6l2.6,3.6l-1.1,0.8l-3.6-5l10.3-7.4L302.6,462.7z"/>
					<path class="st3" d="M311.8,477.7l-3-4.2l-3.4,2.5l2.7,3.8l-1.1,0.8l-2.7-3.8l-3.5,2.6l3,4.2l-1.1,0.8l-4-5.5l10.3-7.4l4,5.5
						L311.8,477.7z"/>
				</g>
			</g>
		</g>
		<g>
			<path class="st3" d="M405.5,443.5c0.6-2.8,1.1-5.7,1.1-8.5c0.1-8.7-3.2-16-9.5-21.9c-2.7-2.5-5.7-4.9-6.6-9.1
				c3.3,0.1,6.2-0.3,7.3-3.2c1.2-3,1.7-6.3,2.3-9.5c0.2-1.4-0.3-3.3-1.6-3.8c-4.8-1.9-3.1-5.4-2.3-8.6c0.5-1.9,0.8-3.8,1.3-5.7
				c1.4-4.7,0.1-8.4-3.6-11.5c-3.5-3-5.2-6.9-4.8-11.4c0.6-6.8-0.1-7.8-6.7-9.4c-1.5-0.4-3-0.8-4.6-1.1c-3.9-0.7-6.5,0.6-7.6,4.3
				c-1.4,5.1-4.7,8.3-9.7,9.8c-3.7,1.1-5.9,3.6-6.8,7.4c-0.9,3.7-1.7,7.4-2.6,11.1c-0.3,1.5-0.6,2.4-2.6,2.6
				c-5.3,0.5-9.8,11.5-6.6,15.9c0.8,1.1,1.9,1.8,3.1,2.3c0.7,0.3,1.9-0.1,2.1,1.3c-3,3.2-7.2,4-11.1,5.3
				c-10.2,3.5-16.4,11-18.9,20.9c-7.2,29.3-13.7,58.8-20.6,88.1c-1.6,6.9-3.3,13.7,1.2,20.8c0,0,2.6,4.8,9.2,8.4l48.9,11.4l1.4,0.3
				c0.4,0,0.9,0.1,1.3,0.1c12.2,0.8,16.3-2,16.3-2c5.9-3.6,8.3-8.3,9.6-13.9C391.5,503.8,398.5,473.7,405.5,443.5z M366.4,356.5
				c4-1.2,6.5-4.9,7.7-8.9c0.8-2.7,2.3-2.8,4.7-2.4c4,0.6,6.1,1.7,5.6,6.5c-0.6,5.3,1.8,10,6.1,13.3c2.4,1.9,3.1,4,2.3,6.9
				c-0.8,2.9-1.6,5.8-2,8.8c-0.5,3.1-1.9,3.4-4.6,2.7c-4.5-1.2-9.1-2.2-13.7-3.3l0,0c-4.5-1-8.9-2.3-13.4-3c-3.3-0.5-3.8-2-2.8-4.8
				c0.3-0.9,0.5-1.8,0.6-2.7C357.6,363.5,359.6,358.6,366.4,356.5z M348.3,389c-3.6-0.8-2.3-3.2-1.8-5.2c0.5-2.1,0.4-4.7,4-3.8
				c12,2.9,24.1,5.8,36.1,8.7c1.9,0.4,3.8,0.9,5.7,1.3c3.8,0.1,2.9,2.5,2.3,4.7c-0.6,2.1,0,5.7-4.3,4c-1.9-0.5-3.9-0.9-5.8-1.4
				C372.4,394.5,360.3,391.7,348.3,389z M397.8,456.3c-4.8,21.1-9.9,42.1-14.6,63.2c-0.8,3.6-2.2,4.6-5.6,3.4
				c-2.5-0.8-5-1.3-7.6-1.9l-0.1,0.1c-0.3,1.5-1.8,2.6-1.6,4.3c3.4,0.8,6.8,1.7,10.2,2.4c1.8,0.4,2.2,1.1,1.9,3
				c-2,11.5-8.9,16.2-20.4,13.5c-12.3-2.9-24.5-5.8-36.8-8.7c-5.1-0.9-10.2-1.9-15.1-3.6c-2.3-0.8-4.4-2.2-5.7-4.4
				c-4-4.9-3.4-10.4-1.7-15.9c1-3.3,3.1-0.8,4.7-0.6c6.4,1.5,12.7,3,19.1,4.4c8.2,1.8,16.3,3.6,24.5,5.4c0.4-1.4,0.8-2.9,1.3-4.3
				l-0.1-0.3c-9.3-1.9-18.6-3.8-27.7-6.7c-5.5-1.8-11.1-2.7-16.8-3.4c-2.3-0.3-3.6-1.2-2.9-3.9c5.6-23.7,11.1-47.5,16.6-71.2
				c0.6-2.7,2.1-2.4,4-1.9c14.8,3.5,29.7,6.9,44.6,10.4l0.1-0.1c0.1-1.5,0.2-3,0.3-4.5c-7.8-2-15.7-3.9-23.5-5.9
				c-6.1-1.5-12.3-2.9-18.4-4.4c-5.8-0.8-5.7-0.8-3.4-6.1c3.3-7.9,9.1-12.8,17.3-15.2c4.5-1.3,8.8-3.1,11.7-7.3
				c1.6-2.3,3.5-0.2,5.3,0c8.6,2,17.1,4,25.7,5.8c2.4,0.5,2.9,1.8,2.8,3.8c1.5,4.6,4.9,7.9,8.3,11.1c6.5,6.1,8.7,13.7,7.6,22.4
				c-0.3,2.3-1.1,3.2-3.5,2.4c-2.5-0.8-5.1-1.1-7.6-1.6c-0.3,1.4-0.5,2.9-0.8,4.3c0.2,0.1,0.3,0.3,0.5,0.5
				C402.3,447.4,400.2,445.7,397.8,456.3z"/>
			<path class="st4" d="M368.3,434.9c-7.8-2-15.7-3.9-23.5-5.9c2.9-8.2,7.8-14.3,16.2-17.3c3.2-1.2,7-1.6,9.4-3.6
				c4.9-4.2,9.8-4.1,15.3-2.4c1.5,4.6,4.9,7.9,8.3,11.1c6.5,6.1,8.7,13.7,7.6,22.4c-0.3,2.3-1.1,3.2-3.5,2.4
				c-2.5-0.8-5.1-1.1-7.6-1.6c0.1-0.1,0.2-0.2,0.1-0.4c0.5-5.4-0.2-10.5-3.4-15.2c-2.7-3.9-6.9-4.4-10.7-4.3
				c-3.5,0.1-5.2,3.6-6.2,6.8c-0.8,2.5-1.3,5-1.9,7.6C368.3,434.6,368.3,434.8,368.3,434.9z"/>
			<path class="st4" d="M324.6,515.5c8.2,1.8,16.3,3.6,24.5,5.4c-0.1,0.1-0.1,0.3-0.1,0.4c-0.3,1.5-0.7,3-1,4.6
				c-0.7,3.7,2,5.7,4.2,7.8c1.7,1.6,3.7,0.7,5.8-0.3c3.9-1.8,7-4.3,9.4-7.8c0.3,0,0.6-0.1,1-0.1c3.4,0.8,6.8,1.7,10.2,2.4
				c1.8,0.4,2.2,1.1,1.9,3c-2,11.5-8.9,16.2-20.4,13.5c-12.3-2.9-24.5-5.8-36.8-8.7C320.5,528.7,323.1,522.1,324.6,515.5z"/>
			<path class="st5" d="M372.4,380.1c-4.4-1-8.9-2.3-13.4-3c-3.3-0.5-3.8-2-2.8-4.8c0.3-0.9,0.5-1.8,0.6-2.7
				c0.7-6.2,2.7-11,9.5-13.1c4-1.2,6.5-4.9,7.7-8.9c0.8-2.7,2.3-2.8,4.7-2.4c4,0.6,6.1,1.7,5.6,6.5c-0.6,5.3,1.8,10,6.1,13.3
				c2.4,1.9,3.1,4,2.3,6.9c-0.8,2.9-1.6,5.8-2,8.8c-0.5,3.1-1.9,3.4-4.6,2.7C381.6,382.2,377,381.2,372.4,380.1
				C372.4,380.2,372.4,380.1,372.4,380.1z M382.3,351.8c-1.4,4.4-1,7.7,0.5,10.6c2.7,5.2,4.4,10.2,2,15.9c-0.5,1.3-0.1,2.3,1.4,2.6
				c1.6,0.3,2.1-0.6,2.4-1.8c0.6-2.5,1.2-5.1,1.8-7.6c0.3-1.4,0.1-2.5-1-3.5C384.9,363.9,382.9,358.7,382.3,351.8z"/>
			
				<linearGradient id="SVGID_5_" gradientUnits="userSpaceOnUse" x1="1137.3895" y1="-67.1681" x2="1137.3895" y2="12.2179" gradientTransform="matrix(0.9739 0.227 0.227 -0.9739 -750.4007 191.1301)">
				<stop  offset="0" style="stop-color:#F94C66"/>
				<stop  offset="1" style="stop-color:#FFA500"/>
			</linearGradient>
			<path class="st13" d="M397.8,456.3c2.4-10.6,4.5-8.9-7.7-11.5c-0.1-0.2-0.3-0.3-0.5-0.5c-7.2-1.6-14.4-3.3-21.6-4.9l-0.1,0.1
				c-14.9-3.5-29.7-6.9-44.6-10.4c-2-0.5-3.4-0.8-4,1.9c-5.5,23.8-11,47.5-16.6,71.2c-0.6,2.7,0.6,3.6,2.9,3.9
				c5.7,0.7,11.4,1.7,16.8,3.4c9.1,2.9,18.4,4.8,27.7,6.7l0.1,0.3c6.5,1.5,13,3.1,19.5,4.6l0.1-0.1c2.5,0.6,5.1,1.1,7.6,1.9
				c3.4,1.2,4.8,0.2,5.6-3.4C387.9,498.4,393,477.4,397.8,456.3z M364.1,497.5c-3.7-3.6-5.9-3.3-8.6-0.7c0.3,0.8,0.3,1.7,0.2,2.5
				c0.1-0.8,0.1-1.6-0.2-2.5c-1.2-0.5-1.9,0.5-2.7,1.1c-2.7,1.9-5.5,3.4-8.7,4.2c-6.6,1.6-10.8-1-12.3-7.6c-0.4-1.6-0.9-3.2-1.4-4.8
				c-2.6-2.9-6.3-3.3-9.8-4.2c-2.6-0.7-6.1-0.9-6.1-4.3c0.1-3.1,3.3-4,5.9-4.8c1.1-0.4,2.3-0.3,3.4-0.5c0.2-0.3,0.4-0.6,0.5-0.9
				c-0.1-2.2,0.1-4.3,2.9-4.8c0.9-0.6,2-0.6,3-0.5c12.6,1.7,23.7-2.9,34.5-8.6c1.2-5.3,2.1-10.7,2.7-16.1
				c-0.6,5.4-1.5,10.8-2.7,16.1c2.9-1.6,5.8-3.2,8.6-5c1.9-1.3,3.9-1.9,6.1-1.2c0.5-0.8,1.1-1.5,1.4-2.3c0.5-1,0.4-2.5,2.1-2.2
				c1.1,0.2,1.8,0.9,2.3,1.9c0.5,1.4,0.3,2.6-0.9,3.4c-0.8,0.6-1.8,1-2.7,1.5c0.7,4.5-2.6,7.4-4.7,10.7c-0.8,1.2-1.7,2.3-2.1,3.6
				c3.6,6.1,5.2,12.8,4.2,19.8C378,499.7,370,503.2,364.1,497.5z"/>
			<path class="st8" d="M385.7,405.7c-5.5-1.7-10.4-1.9-15.3,2.4c-2.4,2.1-6.2,2.5-9.4,3.6c-8.4,3-13.3,9.2-16.2,17.3
				c-6.1-1.5-12.3-2.9-18.4-4.4c1.6-6.4,5.2-11.2,10.7-14.6c3.6-2.2,7.6-3.3,11.4-4.8c4.3-1.7,7.9-4.1,8.7-9.1
				c8.6,2,17.1,4,25.7,5.8C385.3,402.4,385.8,403.7,385.7,405.7z"/>
			<path class="st8" d="M324.6,515.5c-1.5,6.6-4.1,13.2-1.4,20.1c-5.1-0.9-10.2-1.9-15.1-3.6c-2.3-0.8-4.4-2.2-5.8-4.4
				c0.4-5.6,1.8-11.1,3.1-16.5C311.9,512.5,318.2,514,324.6,515.5z"/>
			<path class="st5" d="M384.5,397.2c-12.1-2.8-24.2-5.6-36.2-8.3c-3.6-0.8-2.3-3.2-1.8-5.2c0.5-2.1,0.4-4.7,4-3.8
				c12,2.9,24.1,5.8,36.1,8.7C385.9,391.5,385.2,394.4,384.5,397.2z"/>
			<path class="st4" d="M357.2,396.1c-0.8,5-4.4,7.4-8.7,9.1c-3.8,1.5-7.8,2.6-11.4,4.8c-5.5,3.5-9.2,8.3-10.7,14.6
				c-5.8-0.8-5.7-0.8-3.4-6.1c3.4-7.9,9.1-12.8,17.3-15.2c4.5-1.3,8.8-3.1,11.7-7.3C353.5,393.9,355.4,396,357.2,396.1z"/>
			<path class="st9" d="M389.6,444.3c-7.2-1.6-14.4-3.3-21.6-4.9c0.1-1.5,0.2-3,0.3-4.5c-0.1-0.1,0-0.3,0-0.4
				c7.3,2,14.7,3.8,22.2,5.2c0,0.2,0,0.3-0.1,0.4C390.2,441.5,389.9,442.9,389.6,444.3z"/>
			<path class="st9" d="M368.3,525.4c-0.3,0-0.6,0.1-1,0.1c-6.1-1.7-12.1-3.2-18.3-4.2c0-0.2,0-0.3,0.1-0.4c0.4-1.4,0.8-2.9,1.3-4.3
				c6.5,1.5,13,3.1,19.5,4.6C369.5,522.6,368.1,523.7,368.3,525.4z"/>
			<path class="st4" d="M305.5,511c-1.3,5.5-2.7,10.9-3.1,16.5c-3.9-4.9-3.4-10.4-1.7-15.9C301.8,508.4,303.9,510.9,305.5,511z"/>
			<path class="st8" d="M384.5,397.2c0.7-2.9,1.4-5.8,2.1-8.6c1.9,0.4,3.8,0.9,5.7,1.3c-0.7,2.9-1.3,5.8-2,8.7
				C388.4,398.1,386.4,397.7,384.5,397.2z"/>
			<path class="st5" d="M390.3,398.6c0.7-2.9,1.3-5.8,2-8.7c3.8,0.1,2.9,2.5,2.3,4.7C394,396.6,394.5,400.2,390.3,398.6z"/>
			<path class="st14" d="M374.9,471.6c3.6,6.1,5.2,12.8,4.2,19.8c-1.1,8.3-9.1,11.8-15.1,6c-3.7-3.6-5.9-3.3-8.6-0.7
				c-1.2-0.5-1.9,0.5-2.7,1.1c-2.7,1.9-5.5,3.4-8.7,4.2c-6.6,1.6-10.8-1-12.3-7.6c-0.4-1.6-0.9-3.2-1.4-4.8c0.5-1,0.7-3.3,2.1-0.7
				c0.9,1.6,1.4,3.3,2,5c2.3,6.3,6.7,7.9,12.5,4.5c3.6-2.1,6.9-4.7,11-5.8c2.6,0,4.3,2.3,7.6,3.2c-2.4-2.7-3.3-6-7.2-4.7
				c-1.3-0.4-2.5,0-3.7,0.7c-3.2,1.6-6.4,3.3-9.8,4.6c-4,1.5-6.6,0.1-8.3-3.8c-1.2-2.8-1.9-5.9-4.8-7.7c0-0.2,0-0.4-0.1-0.7
				c0.8-2.4,2.8-0.5,4.1-1.1c2.1,0.4,4.1-0.4,6.1-1c3.9-1.2,7.6-1.5,10.8,1.9c1.5,1.6,3.4,0.9,4.8-0.6c1-1.2,1.9-2.5,2.9-3.7
				c1.2-1.4,2.6-3,4.6-2.3c3.2,1.2,4.8-0.6,6.5-2.6C372.6,473.6,373.1,471.9,374.9,471.6z M366.7,496.9c0.1,0,0.2-0.1,0.3-0.1
				c-0.1-0.1-0.1-0.2-0.2-0.2s-0.2,0-0.3,0.1C366.6,496.7,366.7,496.8,366.7,496.9z"/>
			<path class="st6" d="M374.9,471.6c-1.8,0.3-2.3,2-3.3,3.1c-1.8,2-3.4,3.8-6.5,2.6c-2-0.7-3.4,0.9-4.6,2.3c-1,1.2-1.8,2.6-2.9,3.7
				c-1.4,1.5-3.3,2.2-4.8,0.6c-3.2-3.4-6.9-3-10.8-1.9c-2,0.6-3.9,1.4-6.1,1c-1.4-0.5-2.7-1-4.1-1.5c2.3-4.8,2.1-5.4-2.6-7
				c1-2.1,0.7-3.5-1.9-3.8c0.1-0.2,0-0.5-0.1-0.7c0.9-0.6,2-0.6,3-0.5c12.6,1.7,23.7-2.9,34.5-8.6c2.9-1.6,5.8-3.2,8.6-5
				c1.9-1.3,3.9-1.9,6.1-1.2c0.7,0.8,1.5,1.6,2.2,2.4c0.7,4.5-2.6,7.4-4.7,10.7C376.3,469.2,375.3,470.2,374.9,471.6z"/>
			<path class="st4" d="M331.9,481.6c1.4,0.5,2.7,1,4.1,1.5c-1.3,0.6-3.3-1.3-4.1,1.1c-4.1-1.7-8.9,0.3-12.7-2.5
				c-0.7-0.5-1.6-1.5-2.2-0.2c-0.5,1,0.6,1.6,1.5,1.9c3.9,0.9,7.8,1.8,11.7,2.7c0.9,0.2,1.4-0.5,1.8-1.2c2.9,1.8,3.6,4.9,4.8,7.7
				c1.7,4,4.3,5.4,8.3,3.8c3.4-1.3,6.6-3,9.8-4.6c1.2-0.6,2.3-1.1,3.7-0.7c-0.1,0.5-0.2,1-0.4,1.5c-4.1,1.1-7.4,3.7-11,5.8
				c-5.8,3.4-10.2,1.8-12.5-4.5c-0.6-1.7-1.1-3.5-2-5c-1.5-2.6-1.7-0.3-2.1,0.7c-2.6-2.9-6.3-3.3-9.8-4.2c-2.6-0.7-6.1-0.9-6.1-4.3
				c0.1-3.1,3.3-4,5.9-4.8c1.1-0.4,2.3-0.3,3.4-0.5c0.6,0.3,1.1,0.6,1.7,0.9c0.3,0.4,0.6,0.9,0.9,1.3c1.2,1.7,2.6,3.1,4.8,3.5
				C331.5,481.5,331.7,481.5,331.9,481.6z"/>
			<path class="st6" d="M327.3,470.1c0.1,0.2,0.2,0.4,0.1,0.7c-1.7,1-2.3,2.5-2.2,4.4c-0.3-0.1-0.5-0.1-0.8-0.2
				C324.4,472.7,324.6,470.6,327.3,470.1z"/>
			<path class="st6" d="M324.5,474.9c0.3,0.1,0.5,0.1,0.8,0.2c0.2,0.2,0.3,0.3,0.5,0.4c-0.1,0.4-0.1,0.8-0.2,1.2
				c-0.6-0.3-1.1-0.6-1.7-0.9C324.1,475.5,324.3,475.2,324.5,474.9z"/>
			<path class="st7" d="M390.6,439.7c-7.5-1.4-14.9-3.1-22.2-5.2c0.6-2.5,1-5.1,1.9-7.6c1-3.1,2.7-6.7,6.2-6.8
				c3.8-0.1,8,0.4,10.7,4.3C390.4,429.1,391.1,434.2,390.6,439.7z"/>
			<path class="st5" d="M381.7,457.3c-0.7-0.8-1.5-1.6-2.2-2.4c0.5-0.8,1.1-1.5,1.4-2.3c0.5-1,0.4-2.5,2.1-2.2
				c1.1,0.2,1.8,0.9,2.3,1.9c0.5,1.4,0.3,2.6-0.9,3.4C383.6,456.3,382.6,456.8,381.7,457.3z"/>
			<path class="st7" d="M349,521.3c6.2,1,12.3,2.5,18.3,4.2c-2.4,3.5-5.5,6-9.4,7.8c-2,0.9-4,1.9-5.8,0.3c-2.2-2-5-4-4.2-7.8
				C348.2,524.3,348.6,522.8,349,521.3z"/>
			<path class="st8" d="M382.3,351.8c0.6,6.9,2.7,12.1,7.1,16.1c1.1,1,1.3,2.1,1,3.5c-0.6,2.5-1.2,5.1-1.8,7.6
				c-0.3,1.3-0.8,2.2-2.4,1.8c-1.5-0.3-2-1.3-1.4-2.6c2.4-5.7,0.6-10.8-2-15.9C381.3,359.5,380.9,356.2,382.3,351.8z"/>
			<path class="st8" d="M331.8,484.9c-0.4,0.7-0.8,1.4-1.8,1.2c-3.9-0.9-7.8-1.8-11.7-2.7c-0.9-0.2-2-0.8-1.5-1.9
				c0.6-1.3,1.5-0.3,2.2,0.2c3.9,2.8,8.6,0.8,12.7,2.5C331.8,484.5,331.8,484.7,331.8,484.9z"/>
			<path class="st7" d="M358.1,492.7c0.1-0.5,0.2-1,0.4-1.5c3.9-1.3,4.8,2,7.2,4.7C362.4,495,360.7,492.7,358.1,492.7z"/>
			<path class="st7" d="M366.7,496.9c-0.1-0.1-0.1-0.2-0.2-0.2c0.1,0,0.2-0.1,0.3-0.1c0.1,0,0.1,0.2,0.2,0.2
				C366.9,496.9,366.8,496.9,366.7,496.9z"/>
			<path class="st6" d="M325.6,476.7c0.1-0.4,0.1-0.8,0.2-1.2c1.2-0.3,2.4-0.6,3.5-1c4.7,1.6,4.9,2.2,2.6,7c-0.2-0.1-0.4-0.1-0.6,0
				c-1-2.1-2-4-4.8-3.5C326.2,477.6,325.9,477.2,325.6,476.7z"/>
			<path class="st3" d="M329.3,474.6c-1.2,0.3-2.4,0.6-3.5,1c-0.2-0.1-0.3-0.3-0.5-0.4c-0.1-1.9,0.5-3.4,2.2-4.4
				C330,471.1,330.3,472.6,329.3,474.6z"/>
			<path class="st6" d="M326.5,478c2.8-0.5,3.8,1.5,4.8,3.5C329.2,481.1,327.7,479.7,326.5,478z"/>
		</g>
	</g>
</g>
</svg>
