<?xml version="1.0" encoding="utf-8"?>
<!-- Generator: Adobe Illustrator 25.2.0, SVG Export Plug-In . SVG Version: 6.00 Build 0)  -->
<svg version="1.1" id="Layer_1" xmlns="http://www.w3.org/2000/svg" xmlns:xlink="http://www.w3.org/1999/xlink" x="0px" y="0px"
	 viewBox="0 0 600 600" style="enable-background:new 0 0 600 600;" xml:space="preserve">
<style type="text/css">
	.st0{fill:#FFFFFF;}
	.st1{fill:#0A0F50;}
	.st2{opacity:0.14;enable-background:new    ;}
	.st3{fill:#0D1D7D;}
	.st4{fill:#F1D215;}
	.st5{fill:#08E0F9;}
	.st6{fill:#FC03F0;}
	.st7{fill:#EB13E8;}
	.st8{fill:#1B2B86;}
	.st9{fill:#080F4F;}
	.st10{fill:#670E80;}
	.st11{fill:#F607EC;}
	.st12{fill:#3F51B4;}
	.st13{fill:#9B28B2;}
</style>
<g>
	<g>
		<path class="st0" d="M183.6,338.4h18.8v45.3h-18.8c-38.8,0-70.8-12.7-95.9-38s-37.6-57.4-37.6-96.3s12.5-70.9,37.6-96.3
			c25.1-25.3,57-38,95.9-38h154.1v11.7h-15v53h-45.3v-19.4h-93.9c-26.4,0-47.7,8.2-63.9,24.7S95.3,223,95.3,249.4
			s8.1,47.9,24.3,64.3C135.9,330.2,157.2,338.4,183.6,338.4z M353.5,232.8c-0.1-0.1-0.2-0.2-0.2-0.3c-2.9-2.9-6.8-4.4-12-4.4h-63.8
			v33.3h45.3v-28.7h30.7V232.8z M250.9,338.4v4.6h71.8v-33.3h-45.3v28.7L250.9,338.4L250.9,338.4z M512.5,225.5
			c-25.1-25.4-57-38-95.9-38h-43.9c5.3,2.9,10.2,6.6,14.7,11.1c9.5,9.6,15.3,21,17.5,34.2h11.7c26.4,0,47.7,8.2,63.9,24.7
			c16.2,16.5,24.3,37.9,24.3,64.3s-8.1,47.9-24.3,64.3c-16.2,16.5-37.5,24.7-63.9,24.7h-93.9v-19.4h-45.3v53h-15v11.7h154.1
			c38.8,0,70.8-12.7,95.9-38c25.1-25.3,37.6-57.4,37.6-96.3S537.6,250.8,512.5,225.5z M226.4,285.5c-10.9,10.9-16.4,24.6-16.4,40.9
			v57.3h191.8v-44.9h-8.3v11.8H243.4v-24.2c0-7.3,2.2-13.2,6.5-17.6s10.1-6.7,17.4-6.7h73.9c16.4,0,30-5.5,40.8-16.4
			s16.3-24.6,16.3-40.9c0-16.4-5.4-30-16.3-40.9c-10.8-10.9-24.4-16.4-40.8-16.4H208.5v44.9h8.3v-11.8h124.5
			c7.3,0,13.1,2.2,17.4,6.7c4.3,4.4,6.5,10.3,6.5,17.6s-2.2,13.2-6.5,17.6s-10.2,6.7-17.4,6.7h-73.9
			C250.9,269,237.3,274.5,226.4,285.5z"/>
		<g>
			<g>
				<g>
					<path class="st0" d="M319.2,490c0,4.9-1.6,9-4.7,12.2c-3.2,3.2-7.2,4.8-12,4.8h-18.8v-33.3h18.8c4.9,0,8.9,1.5,12.1,4.5
						C317.6,481.2,319.2,485.2,319.2,490z M313.4,490.5c0-3.2-1-5.8-3.1-7.9c-2.1-2-4.7-3.1-7.9-3.1h-13v21.7h13c3.2,0,5.8-1,7.9-3
						C312.4,496.3,313.4,493.7,313.4,490.5z"/>
					<path class="st0" d="M366.7,507.1h-7.5l-5.6-9.3h-15.8l3.5-5.8h8.8l-5.8-9.6l-15,24.7h-7.5l18.1-30.1c0.5-0.8,1.1-1.5,1.9-2.1
						c1-0.7,1.9-1.1,2.6-1.1c0.8,0,1.7,0.4,2.6,1.1c0.8,0.6,1.4,1.3,1.9,2.2L366.7,507.1z"/>
					<path class="st0" d="M394.1,473.8L377.6,496v11h-5.8v-11.1l-17-22.2h7.5l12.5,16.4l11.7-16.4h7.6V473.8z"/>
					<path class="st0" d="M431.8,482.9c0,2.8-1,5.1-3.1,6.8c-2,1.6-4.4,2.4-7.3,2.4h-12c-1.6,0-2.9,0.3-4.1,1c-1.4,0.8-2,1.9-2,3.4
						v4.8h27.8v5.8h-33v-10.6c0-3.1,1.2-5.5,3.5-7.5c2.1-1.8,4.8-2.7,7.9-2.7h12c1.1,0,2-0.3,2.8-0.9s1.2-1.4,1.2-2.5
						c0-1-0.4-1.9-1.2-2.5c-0.8-0.6-1.7-0.9-2.8-0.9h-22.9v-5.8h22.9c2.9,0,5.3,0.8,7.3,2.4C430.8,477.9,431.8,480.1,431.8,482.9z"
						/>
					<path class="st0" d="M475.2,490c0,4.9-1.6,9-4.7,12.2c-3.2,3.2-7.2,4.8-12,4.8h-18.8v-33.3h18.8c4.9,0,8.9,1.5,12.1,4.5
						C473.6,481.2,475.2,485.2,475.2,490z M469.4,490.5c0-3.2-1-5.8-3.1-7.9c-2.1-2-4.7-3.1-7.9-3.1h-13v21.7h13c3.2,0,5.8-1,7.9-3
						C468.3,496.3,469.4,493.7,469.4,490.5z"/>
					<path class="st0" d="M522.7,507.1h-7.5l-5.6-9.3h-15.8l3.5-5.8h8.8l-5.8-9.6l-15,24.7h-7.5l18.1-30.1c0.5-0.8,1.1-1.5,1.9-2.1
						c1-0.7,1.9-1.1,2.6-1.1c0.8,0,1.7,0.4,2.6,1.1c0.8,0.6,1.4,1.3,1.9,2.2L522.7,507.1z"/>
					<path class="st0" d="M550.1,473.8L533.6,496v11h-5.8v-11.1l-17-22.2h7.5l12.5,16.4l11.7-16.4h7.6V473.8z"/>
				</g>
			</g>
			<g>
				<path class="st0" d="M283.7,517.3h3.4l5.4,20.9l6-20.9h3.6l5.7,20.9l5.4-20.9h3.5l-7.2,24.7h-3.6l-5.7-19.9l-6,19.9h-3.6
					L283.7,517.3z"/>
				<path class="st0" d="M344.8,530.8h-12.6V542H329v-24.7h3.2v10.8h12.6v-10.8h3.2V542h-3.2V530.8z"/>
				<path class="st0" d="M373.5,542.3c-6.9,0-12.4-5.2-12.4-12.6c0-7.4,5.5-12.6,12.4-12.6c7,0,12.4,5.2,12.4,12.6
					S380.5,542.3,373.5,542.3z M373.5,539.5c5.2,0,9.1-3.8,9.1-9.8c0-6.1-3.9-9.8-9.1-9.8s-9.1,3.8-9.1,9.8S368.3,539.5,373.5,539.5
					z"/>
				<path class="st0" d="M402.3,517.3v22.1h8.6v2.6h-11.8v-24.7L402.3,517.3L402.3,517.3z"/>
				<path class="st0" d="M436.5,520h-10.1v8.3h9v2.7h-9v8.5h10.1v2.7h-13.3v-24.7h13.3V520z"/>
				<path class="st0" d="M458.1,542.3c-5,0-8.5-2.8-8.5-6.8h3.4c0.2,2.1,1.7,4.1,5.1,4.1c3.1,0,5-1.8,5-4.1
					c0-6.7-13.4-2.4-13.4-11.6c0-4.1,3.3-6.8,8.2-6.8c4.7,0,7.8,2.6,8.2,6.3h-3.5c-0.2-1.7-1.8-3.5-4.8-3.6c-2.7-0.1-4.7,1.3-4.7,4
					c0,6.4,13.3,2.4,13.3,11.6C466.3,538.8,463.4,542.3,458.1,542.3z"/>
				<path class="st0" d="M494.5,536.5h-10.8l-2,5.5h-3.4l8.9-24.6h3.7l8.9,24.6h-3.4L494.5,536.5z M489.1,521.5l-4.5,12.5h8.9
					L489.1,521.5z"/>
				<path class="st0" d="M515.9,517.3v22.1h8.6v2.6h-11.9v-24.7L515.9,517.3L515.9,517.3z"/>
				<path class="st0" d="M550.1,520H540v8.3h9v2.7h-9v8.5h10.1v2.7h-13.3v-24.7h13.3V520z"/>
			</g>
		</g>
	</g>
	<path class="st1" d="M561.1,131.9c-25.2-27.5-50.2-55.2-75.3-82.9c-0.4-0.6-0.7-1.1-1.1-1.6c-5.5-5.1-5.5-5.1-11.5,0.3
		c-12.9,11.6-25.6,23.1-38.5,34.7c-2.6,2.2-5.7,4.4-8.2,6.7c-0.8,0.8-1.5,1.2-2,1c-1.7,3.4-4.8,5.5-7.9,7.2
		c-2.1,1.1-3.5-2.6-5.1-4.2c-1.9-1.9-3.8-4-5.4-6.2c-2.1-2.9-3.8-2.4-6.1-0.2c-7.9,7.4-16.1,14.4-23.8,22c-3.3,3.3-5.3,2.8-7.3-0.9
		c-3-4.1-6.9-4.8-11.7-3.9c-3.8,0.7-7.9,1-11.8,0.7c-9.2-0.8-15.6,4-21.3,10.2c-4.1,3.7-8.3,7.5-12.5,11.2
		c-6.1,5.3-11.7,11.4-18.5,15.9c-6.6,8-14.9,14.2-22.5,21.2c-16.4,15.1-33,29.8-49.5,44.7c-1,0.9-2.2,1.7-3.3,2.5
		c-14,12.8-27.9,25.5-41.9,38.2c-12.2,11-24.6,21.9-36.9,32.9c-3.2,3.7-6.7,7-10.7,9.7c-1,0.9-1.9,2-2.9,2.9
		c-28.1,25.4-56.1,50.8-84.3,76.1c-2.9,2.6-4.4,5-4.1,9.2c0.7,11.5,0.9,23.1,1,34.6c0,3,1,5.1,3,7.3c18.9,20.5,37.8,41,56.5,61.7
		c7.2,7.9,14.7,15.5,21,24.1c0.7,0.5,1.4,1,2,1.6c7.6,8.4,15.1,17,22.7,25.4c2,2.3,3.8,4.7,7.4,5.1c12.2,1.2,24.3,2.7,36.4,4.4
		c3.1,0.4,5.2-0.4,7.4-2.4c16.6-15.3,33.3-30.4,50-45.5c25.1-22.9,50.1-45.8,75.3-68.6c6.3-5.7,12.5-11.5,18.8-17.2
		c13-12,26-23.9,39-35.8c1.3-1.1,2.4-2.5,4.3-2.6c2.4-4.3,6.5-7.1,10-10.3c15.3-14,30.7-28,46-42c7.4-6.7,14.9-13.3,22.3-20
		c0.7-0.5,1.4-1.1,2.1-1.6c5.2-5.9,11-11.3,17.3-16c6.6-5,9-11.3,9.9-19c0.7-5.8,2-11.5,3.1-17.3c-0.8-3.4-4.1-4.9-6-7.4
		c-1.3-1.6-2-2.8-0.2-4.3c5.9-5.1,11.8-10.2,17.7-15.3c1.4-3,4.2-4.7,6.7-6.6c3.7-2.8,4.9-5.4,1.1-8.9c-0.4,0-0.8-0.1-1.1-0.2
		c0,0,0,0,0,0c-1.4-1.6-2.5-3.4-4.1-4.7c-4-3.2-3.7-5.5,0.3-9.1c18-16.2,35.7-32.9,53.7-49.2C563.7,136.6,564,135.1,561.1,131.9z"/>
	<ellipse class="st2" cx="179.9" cy="540.7" rx="95.8" ry="15.7"/>
	<path class="st3" d="M236.4,339.3c-0.1,8.1-0.1,8.4,8.1,9.5c15.8,2.2,31.8,3.7,47.5,6.2c12.1,1.9,24.3,2.4,36.3,4.6
		c4.2,0.8,5.6-0.2,6.5-4.6c2.5-12.6,5.1-25.2,7-38c0.5-3.1,2.6-4.8,4.7-6.5c19.1-16.3,37.1-33.9,55.9-50.5
		c11.1-9.8,22-19.8,33.1-29.6c4.4-3.8,8.8-7.7,13-11.7c2.2-2.1,3.4-2.4,5.7,0.2c5.9,6.5,11.2,13.5,18,19.1c-0.3,1.5-0.6,2.9-0.9,4.4
		c-1.4,6.7-4.6,12.8-6.5,19.3l0.1-0.1c-0.4,0.3-0.9,0.7-1.3,1l0.1-0.1c-0.7,0.7-1.4,1.4-2.2,2.1l0.3,0.2l-0.2-0.2
		c-0.7,0.6-1.5,1.3-2.2,1.9l-0.1,0.1c-1.1,0.9-2.5,1.7-3.1,3.1l0.1-0.1c-3.3,2.1-6.2,4.8-8.7,7.8l-0.1,0.1c-2.6,1.5-4.5,3.7-6.5,5.9
		l0.1-0.1c-1.4,1.3-2.9,2.6-4.3,3.9h-0.1c-0.7,0.6-1.4,1.2-2.1,1.9l-0.1,0.1c-0.3,0.4-0.6,0.8-1,1.2l0.1-0.2
		c-3.7,2.2-6.6,5.1-9.4,8.3l0.1-0.1c-0.6,0.5-1.2,1-1.8,1.5l0,0c-1.3,0.7-2.5,1.6-3.2,3l0,0c-2.4,1-3.9,3-5.5,4.9h0.1
		c-0.4,0.4-0.8,0.8-1.1,1.2l0.1-0.2c-1.2,0.2-2,0.9-2.3,2.1l0.1-0.1c-0.8,0.2-1.6,0.6-1.8,1.5c-0.3,0.3-0.7,0.6-1,1
		c-2.5,1.6-4.9,3.4-6.6,5.9l0.1-0.1c-0.6,0.5-1.2,1-1.8,1.5l0,0c-1.5,1.3-2.9,2.6-4.4,3.9l0.1-0.1c-0.4,0.4-0.7,0.8-1.1,1.2l0.1-0.1
		c-0.4,0.1-0.8,0.1-1.2,0.2c-1.7,0.6-3.9-2.6-4.4-0.6c-2.1,7-4.6,1.1-6.9,0.5c3.9-4.9,9-8.6,13.5-12.8c17-15.8,34.1-31.7,51.3-47.3
		c7.2-6.5,13.4-13.1,14.8-23.3c0.6-4.2-1.5-6.8-4.1-8.8c-2.5-2-4.2,1.3-5.8,2.8c-5.6,5.1-11.1,10.3-16.7,15.4
		c-24.4,22.6-48.9,45.1-73.3,67.7c-1.3,1.2-2.7,2.3-3.1,4.1c-2.1,9.3-4.2,18.7-6.4,28.5c3.1-1.3,4.5-3.7,6.5-5.2
		c6.8-5.3,12.1-12.3,19.3-17.1c1.1,3,4.3,6.2-1.7,8c-1.3,0.4-2.5,3.1-2,5.4c-8.1,8.3-16.8,15.9-25.5,23.4c-2.9-0.4-5.2,4.1-8.4,1.1
		c-1.9,3.6-5.6,3.6-8.9,4.4c-0.3,0.1-0.8,1-0.7,1.2c1.9,4.4-2.4,7.6-2.1,11.6c-1.5,1.7-3,3.3-4.4,5l0,0c-1.5,0.5-2.5,1.6-3.4,2.8
		l0.3,0.3l-0.3-0.3c-0.7,0.7-1.4,1.4-2.1,2c0.1,0.1,0.1,0.2,0.2,0.3c-0.1-0.1-0.2-0.2-0.2-0.3c-1.5,0.9-2.8,2-3.7,3.5l0,0
		c-0.4,0.3-0.7,0.7-1.1,1l0,0c-2.9,1.9-5.6,4.1-7.6,6.9l0.3,0.3l-0.3-0.4c-3.1,1.3-4.6,5-8.4,5.5c-15.9,2-31.8,5-47.9,5.4
		c-9.7,0-18.9-3.5-28.3-5.2c-8.6-1.6-17.1-3.7-25.6-5.8c-2.9-0.7-5.1,0.1-7.1,1.9c-10.1,9.1-20.3,18.1-30.3,27.2
		c-10.2,9.3-20.2,18.7-30.3,28c-2.7,2.5-5.3,3-7.9-0.2c-3.4-3.9-6.9-7.6-10.3-11.5c-1.7-2-2.3-3.6,0.3-6
		c15.4-14.3,31-28.3,46.7-42.1c5.3-4.7,10.4-9.6,15.5-14.4c1.6-1.4,2.8-3,2.5-5.4c-1.8-14.3-3.4-28.6-5.6-42.9
		c-0.9-5.8,0.2-11.4-0.1-17.2l0.2,0.2c1.8-1.5,1.7-3.2,0.6-5.1c1.9-8.6,4.2-17.1,5.5-25.7c1.6-9.9,6.1-17.3,13.8-24.2
		c49.3-43.8,98.3-88,146.9-132.6c8.8-8.1,19-10.3,29.7-12.4c3.4,0.3,3.8,4.4,6.7,5.4c-1.3,2.1-3.2,3.9-3.2,6.6
		c-5-2.6-17.6-1.1-21.8,2.6c-10.2,9-20.3,18.1-30.4,27.1c-23.3,20.7-46.5,41.4-69.8,62.1c-1,0.9-2.8,1.7-2.3,3.1
		c0.6,1.9,2.7,1.1,4.1,0.9c8.4-0.9,16.7-2,25.1-3.1c2.9,0,3.3,1.9,3.2,4.2l0,0c-3.6,0-5.5,2.4-6.9,5.1c-0.7,1.4-0.9,2.9-2.8,3.1
		c-3.7,0.4-4.5,3.1-4.7,6.2c-8.5,0.7-17,1.5-25.5,2.1c-3.3,0.2-4.6,1.6-4.5,4.8c0.1,4.6,0,9.2,0,13.8c-0.3,0-0.7,0-1,0
		c-3.3,0.2-8.2-1-4,5.1c0.8,1.2,0.2,2.4-0.8,3.2c-3.5,3.2-1.5,4.5,1.8,5.4c1.7,0.4,3.4,0.6,5.1,0.9c0.2,2.8-0.7,5.6,0.9,8.2
		c0,5.2,0.1,10.3,0.1,15.5c0.1,3.1-0.5,6.3,0.9,9.3c-2.2,6.9-0.3,13.8,0.1,20.7C236.4,337.2,236.4,338.3,236.4,339.3z M216.8,267.1
		c-0.5-0.2-1-0.4-1.4-0.5c-7.3,7-14.7,14-22,21c-1.4,1.3-1.5,3-1.7,4.7c-1.9,28.8-3.8,57.7-5.8,86.5c-0.1,2,0.6,3.4,2.1,4.5
		c3.5,2.6,6.1,6.1,8.7,9.5c1.3,1.7,2.8,2.4,4.8,2.4c7.9,0.3,15.8,0.6,23.7,0.9c18.8,0.7,37.5,1.2,56.3,2.1
		c6.3,0.3,11.4-0.8,15.8-5.5c2.3-2.5,5.3-4.4,7.7-6.9c3.2-3.3,7.6-5.6,10.5-10c-6-0.8-11.3-1.7-16.6-2.2c-25.7-2.8-51.3-5.6-77-8.2
		c-3.4-0.3-4.3-1.7-4.3-4.8c-0.2-21-0.6-42-0.8-63C216.7,287.3,216.8,277.2,216.8,267.1z"/>
	<path class="st3" d="M145.4,514.8c-0.6-0.8,0.4-3.4-2-2.1c-1.1,0.6-1.7,0.5-1.9-0.4c-0.7-4.3-4.2-4.2-7.1-5.7
		c-3.4-1.8-6.5-5.5-8.3-9.5c-0.9-2,0.7-3.1,2-4.3c15.1-14.2,31-27.6,46.1-41.9c7.6-7.2,15.8-13.7,23.2-21.1c1.6-1.6,3.7-1.3,5.8-0.8
		c12.8,2.6,25.5,5.4,38.2,8.5c10.8,2.7,21.7,4.9,32.7,8.1c-1,0.2-2,0.4-3,0.6c-2.6,1.5-5.4-1.6-8,0.3h-0.2c-0.4,0.4-0.7,0.8-1.1,1.2
		l0.1-0.1c-0.4,0.3-0.9,0.6-1.3,0.9h-0.1c-0.3,0.4-0.6,0.8-0.9,1.2l0.1-0.1c-1.4,0.4-2.1,1.4-2.8,2.5l0,0c-0.4,0.3-0.8,0.7-1.2,1
		c-0.3,0.3-0.6,0.6-0.9,0.9c-2.9,1.8-5.4,4.2-7.7,6.8l0.2,0.2l-0.3-0.1c-0.4,0.3-0.7,0.7-1.1,1v-0.1c-0.5,0.5-1.1,1.1-1.6,1.6l0,0
		c-1.5,1.3-2.9,2.6-4.4,3.9l0,0c-16.7,15.3-33.5,30.4-50,45.8c-3.7,3.4-7.4,5.7-12.4,5.8c-8,0-16,2.1-24,0.4
		c-1.3-0.8-2.5-1.7-3.8-2.5C148.4,516.1,146.9,515.5,145.4,514.8z M151.2,502.5c0.1,0.5,0.3,0.9,0.4,1.4c10.7-1,21.4-2,32.1-3.1
		c0.9-0.1,2-0.7,2.7-1.4c14.3-13.5,28.5-27,42.7-40.6c0.7-0.7,1.7-1.4,1.2-2.6c-0.4-0.9-1.4-0.8-2.3-0.9c-7-0.7-14-1.4-21.1-2.2
		c-2.8-0.3-4.9,0.5-6.9,2.6c-4.9,4.9-9.9,9.5-14.9,14.3C173.9,480.9,162.5,491.7,151.2,502.5z"/>
	<path class="st4" d="M148.7,286.7c2.6-1.1,3.8-4,7.1-4.9c1.3,10.5,2.5,20.9,3.9,31.2c2.1,15.3,3.3,30.7,6.1,45.9
		c0,5.2,0.5,10.3,2,15.2c2.3,8.6-3,13.1-8.8,18.2c-19.6,17.3-38.8,35.2-58.3,52.7c-3,2.7-2.6,4-0.1,6.6c6.7,6.9,13.2,14.1,19.4,21.5
		c2.5,2.9,3.9,2.5,6.4,0.3c20.4-18.6,41-36.9,61.1-55.7c4.5-4.2,8.4-5.4,14.5-3.9c29.4,7,59,13.4,88.5,20c1.2,0.3,2.3,0.7,3.8,1.2
		c-3.2,4.4-6.1,7-12.3,5.5c-26.8-6.5-53.7-12.3-80.5-18.5c-2.8-0.7-4.7-0.3-6.8,1.7c-23.8,21.8-47.7,43.3-71.5,65.1
		c-3,2.7-4.3,2.4-6.8-0.4c-10.5-11.9-21.1-23.6-31.9-35.3c-2.2-2.4-2.1-3.5,0.3-5.6c23.2-20.9,46.2-41.9,69.4-62.7
		c3.9-3.5,5.7-6.5,4.8-12.2c-2.8-17.5-4.6-35.2-6.8-52.8c-0.1-0.7-0.4-1.3-0.6-1.9c-0.1-2-0.2-4.1-0.4-6.1
		C150.6,303.2,148.5,295.1,148.7,286.7z"/>
	<path class="st5" d="M366.3,123.8c-10.7,2.1-20.9,4.3-29.7,12.4C288,180.8,239,225,189.7,268.8c-7.7,6.9-12.2,14.2-13.8,24.2
		c-1.4,8.7-3.7,17.2-5.5,25.7c-0.2,1.7-0.4,3.4-0.6,5.1l-0.2-0.2c-2.2,2.7-2.2,0.5-2.5-1.1c-0.9-6.8-1.8-13.6-2.7-20.5
		c-0.9-7.5-1.7-15.1-2.7-22.6c-0.3-2.5,0.3-4.1,2.1-5.8c57.1-51.6,114.3-103.1,171.3-154.8c2.7-2.5,5.6-3.7,9.2-3.8
		c3.4-0.1,6.9-0.5,10.3-0.7C359.7,113.9,365,118.2,366.3,123.8z"/>
	<path class="st3" d="M143.6,311.2c2.1,1.5,2.2,3.9,2.5,6c1.5,12.9,2.9,25.9,4.4,38.9c0.6,4.8,1.3,9.5,2,14.3
		c0.7,4.6-0.8,8.3-4.5,11.3c-3.5,3-6.7,6.3-10.9,8.4c-2.1-3.1-0.5-6.8,1.4-7.9c4.4-2.6,5.6-8,10.6-10c-2.7-2-6.6-1.9-6.8-6.9
		c-1.7,10.2-5.6-0.6-8.2,2.2c3.4,3.9,1.9,7.9-1.9,9.6c-5.3,2.3-7.9,7.1-11.4,10.7c-4.8,5-11.2,8.2-15.1,14.1
		c-0.5,0.7-1.6,1.7-2.3,0.1c-0.4-0.9,0.5-2.9-1.7-2.2c-1.4,0.5-1.7,2-1.7,3.5c0.1,2.7,5.4,8.4,8.3,8.7c1.6,0.2,1.7-0.9,1.2-1.9
		c-0.5-0.9-1.2-1.6-1.9-2.4c-0.8-0.9-1.8-1.9-0.7-3.1c1.1-1.3,2.1-0.3,3.1,0.4c1.1,0.8,2.1,3.1,3.7,1.4c1.1-1.1-0.7-2.4-1.4-3.5
		c-0.4-0.6-0.8-1.2-0.1-1.8c0.3,0,0.7-0.2,1-0.1c7.4,2.3,7.4,2.3,9.2-5.2c0.3-1.4,1-0.9,1.8-0.9c5,0.1,7.2-2.2,5.2-7.5
		c3.2,0.6,3.9,3.3,5.7,4.8c-4.3,5.5-9.6,9.9-14.8,14.5c-6.9,6.1-13.7,12.2-20.5,18.4c2-5.8,0.2-10.7-3.4-15.2
		c-1-1.2-2.2-3.2-3.5-1.2c-2.8,4.5-7,2.5-10.7,2.9c0.8-0.9,1.5-1.9,2.4-2.7c11.8-10.3,23.4-20.8,35.5-30.6c6.2-5,10-10.3,8.7-18.7
		c-0.6-4.2-0.1-8.6-0.1-12.9c0-1.3,0.6-3.1-1-3.6c-1.2-0.4-2,1.1-2.9,1.8c-12.6,10.9-25,22.1-38,32.5c-5.7,4.6-8.5,9.8-9.5,16.7
		c-1,7.7-2.6,15.4-4.2,24.1c4-2.2,5.9-5.4,9.1-6.6c0.8,2.6,3.1,6.3,2.2,7.5c-4.4,5.5,0.5,5.5,3.4,7c2.9,1.6,6,0.9,9,1.1
		c-4.4,6.3-11.1,10-16.2,15.5c-1,1.1-2.8,1.6-3.7,0.4c-2.7-3.5-8-5.1-7.8-10.8c0.1-3.6-4-1.7-5.3-3.5c0.1-1.4,0.4-2.7-0.5-4
		c-6.2-9.6-6.2-19.9-3.5-30.5c0.4-1.7,0.6-3.4,0.7-5.1c0.2-3.6,1.6-6.4,4.5-8.8c12.9-11.2,25.5-22.6,38.4-33.9
		C116.6,334.7,130.1,323,143.6,311.2z"/>
	<path class="st5" d="M143.6,311.2c-13.5,11.8-27,23.5-40.4,35.3c-12.8,11.3-25.5,22.7-38.4,33.9c-2.9,2.5-4.3,5.2-4.5,8.8
		c-0.1,1.7-0.3,3.5-0.7,5.1c-2.7,10.6-2.7,20.9,3.5,30.5c0.9,1.3,0.6,2.6,0.5,4c-4.7-5-9.3-10.1-14-15.1c-1.2-1.2-1.4-2.7-1.4-4.3
		c-0.2-9.1-0.4-18.2-0.6-27.3c-0.1-2.1,0.2-3.9,2-5.5c30.4-27.4,60.8-54.8,91.2-82.2c0.4-0.3,0.8-0.5,2.3-1.4
		C142.9,299.5,146,305.1,143.6,311.2z"/>
	<path class="st6" d="M408.1,313.4c0.3-0.3,0.7-0.6,1-1c0.9-0.2,1.5-0.6,1.8-1.5l-0.1,0.1c1.3-0.1,2-0.9,2.3-2.1l-0.1,0.2
		c0.4-0.4,0.8-0.8,1.1-1.2H414c3.3,0.1,4.8-2,5.5-4.9l0,0c1.9-0.1,2.9-1.2,3.2-3l0,0c0.9-0.1,1.5-0.6,1.8-1.5l-0.1,0.1
		c4.9-0.8,7.2-4.5,9.4-8.3l-0.1,0.2c0.3-0.4,0.6-0.8,1-1.2l0.1-0.1c1.6,0.3,2.3-0.3,2.1-1.9h0.1c2.9,0.3,4.1-1.3,4.3-4l-0.1,0.1
		c3.3-0.7,6.2-1.9,6.5-5.9l0.1-0.1c4.5-0.8,7-3.9,8.7-7.8l-0.1,0.1c1.9-0.2,3.5-0.7,3.1-3.1l0.1-0.1c1.5,0.3,2.3-0.4,2.2-1.9
		l0.2,0.2l-0.3-0.2c1.5,0.1,2.2-0.6,2.2-2.1l-0.1,0.1c0.4-0.3,0.9-0.7,1.3-1l-0.1,0.1c1.9-0.8,2.7-2.3,3.3-4.2
		c1-3.2,2.6-6.3,3.5-9.6c1-3.4,3.1-3.7,5.9-2.8l-0.1-0.1c0.4,0.4,0.7,0.8,1.1,1.2v-0.1c0.8,8.2-1.4,16-3.2,23.9
		c-0.3,0.3-0.7,0.7-1,1c-0.9,0.1-1.5,0.6-1.7,1.6h0.1c-4,0-5.7,2.5-6.6,5.9c-0.3,0.3-0.6,0.6-0.9,0.9c-2.9-0.2-3.9,1.6-4.3,4l0,0
		c-1.6,0.1-2.9,0.5-2.7,2.5v-0.1c-0.4,0.3-0.9,0.7-1.3,1l0.1-0.1c-2.7,0-4,1.5-4.4,4c0,0,0.1-0.1,0-0.1c-0.4,0.4-0.7,0.7-1.1,1.1
		l0,0c-5.1,1.3-8.4,4.7-10.4,9.4c-0.3,0.3-0.6,0.6-0.9,0.9c-2.9,0.2-4.8,1.4-4.8,4.6l-0.1,0.1c-3.5-0.4-4.9,1.8-5.5,4.7l0.1-0.1
		c-0.4,0.4-0.8,0.8-1.1,1.1l0.1-0.1c-1.3,0.1-2,0.8-2.2,2l0,0c-1.6,0-2.9,0.4-2.7,2.5v-0.1c-0.4,0.4-0.8,0.7-1.2,1.1l0.1-0.1
		c-2.2-0.3-3.2,0.8-3.4,2.9l0.1-0.1c-0.4,0.4-0.8,0.8-1.2,1.2c-0.3,0.3-0.7,0.6-1,0.9c-0.4,0.4-0.7,0.7-1.1,1.1l0,0
		c-2.5,0.5-5,1.1-4.9,4.4l0.1-0.1c-0.3,0.4-0.7,0.9-1,1.3V329v0.3c-1.8-0.4-2.4,0.6-2.5,2.2c-0.2,0.3-0.4,0.5-0.8,0.5
		c-2.1,0.3-3.7,1.1-3.7,3.6l-0.2-0.4l0.2,0.4c-1,0-1.5,0.6-1.6,1.5l0,0c-3.9,0.4-6.2,2.7-7.1,6.4c0,0,0.1-0.1,0-0.1
		c-0.4,0.4-0.8,0.7-1.2,1.1h0.1c-1.6,0.1-2.7,0.7-2.8,2.5l0.1-0.1c-0.3,0.4-0.7,0.7-1,1.1l-0.1,0.1c-1.5-0.3-2.2,0.3-2.2,1.9
		c-0.1-0.1-0.2-0.2-0.3-0.3c0.1,0.1,0.2,0.2,0.3,0.3c-4.3-0.4-6.5-1.3-3.2-6.2c1.7-2.5,3.5-4.5,5.6-6.3c3.3-2.8,6-5.2,0.9-8.7h0.1
		c0.4-0.3,0.8-0.7,1.3-1l-0.1,0.1c0.4-0.4,0.7-0.8,1.1-1.2l-0.2,0.1c0.4-0.3,0.8-0.7,1.3-1l-0.1,0.1c0.4-0.4,0.7-0.8,1.1-1.2
		l-0.1,0.1c2.5-0.1,3.9-1.5,4.4-3.9l0,0c0.9-0.1,1.5-0.6,1.8-1.5l-0.1,0.1C405.3,319.1,407,316.6,408.1,313.4z"/>
	<path class="st3" d="M410.2,111.6c4.5,0,5.7,4,8.1,6.5c6.7,7.1,13.5,14.2,20.2,21.3c4.9,5.3,4.7,7.7-1,12
		c-4.3,3.2-8.2,6.8-11.9,10.7c-2.9,3.1-5.5,2.8-8.2-0.3c-8.3-9.4-16.6-18.8-25-28.1c-1.6-1.8-1.8-3.2,0.2-4.7c1.3-1,2.3-2.1,2.2-3.8
		C401.5,122.5,405.8,117,410.2,111.6z"/>
	<path class="st7" d="M153.7,519.2c8,1.8,16-0.3,24-0.4c5.1,0,8.8-2.4,12.4-5.8c16.6-15.4,33.3-30.6,50-45.8c0.7,1.6,0,5.4,3,3.6
		c2.8-1.7,3.6-1.3,4.9,1.2c0.8,1.6,2.4,1.7,4,1.8c-11.3,11.5-23.7,21.9-35.5,32.8c-8.3,7.7-16.8,15.2-25,23c-2.6,2.5-5.3,3.5-8.8,3
		c-8.3-1.1-16.7-2.2-25-3.4c-1.9-0.3-4.3-0.2-5.2-2.6l0.2-0.3c10.5,2.8,21.4,2.6,32,4.8c0.9,0.2,2.4-0.4,2.2-0.7
		c-2.4-3.1-0.3-6.3-0.4-9.4c0-1.1-1-1.2-2-0.9c-8.8,2.6-17.8,0.5-26.6,1.2c-1.7,0.1-3.5,0.1-4.5-1.8L153.7,519.2z"/>
	<path class="st5" d="M425.8,103.6C442,89.2,458.3,75,474.3,60.4c3.2-2.9,5.1-3.1,7.5,0.5c1.4,2.1,4,3.3,4.8,5.9
		c-4.4,3.8-8.9,7.5-13.3,11.4c-13.7,12.4-27.8,24.5-40.9,37.6c-3.2-3.1-6.6-6.1-8.7-10.2h-0.1c0.4-0.4,0.8-0.7,1.1-1.1
		C425.1,104.2,425.5,103.9,425.8,103.6z"/>
	<path class="st6" d="M323.3,408.8c-0.3,0.3-0.7,0.6-1,0.9c-0.9,0.1-1.6,0.6-1.7,1.6l0.1-0.1c-0.3,0.4-0.6,0.8-0.9,1.1l-0.2,0.2
		c-1.6-0.4-2.3,0.2-2.1,1.9h-0.1c-4.3,1.3-8.8,2.5-9.2,8.3h-0.1c-1.5-0.2-2.3,0.4-2.1,2c-0.1-0.1-0.2-0.2-0.3-0.2
		c0.1,0.1,0.2,0.1,0.3,0.2c-3.6,0-6.2,3-10.6,2.3c-7.6-1.2-14.9-3.6-22.3-5.3c-3.8-0.9-8-0.8-12.8-3.3c12.8-1.6,24.3-3.1,35.9-4.5
		c4.9-0.6,8.7-2.4,10.1-7.6l0.3,0.4l-0.3-0.3c4.2-0.4,6.2-3.3,7.6-6.9l0,0c0.4-0.3,0.7-0.7,1.1-1l0,0c2-0.4,3.9-0.8,3.7-3.5
		c0.1,0.1,0.2,0.2,0.2,0.3c-0.1-0.1-0.1-0.2-0.2-0.3c1.5,0.2,2.2-0.5,2.1-2l0.3,0.3l-0.3-0.3c2.2,0.3,3.2-0.8,3.4-2.8l0,0
		c2.5-0.1,3.8-2.2,5.7-3.4c3.8-2.2,11.6-0.1,13.5,3.9v-0.1c-0.3,0.4-0.7,0.8-1,1.2l-0.1,0.1c-3.5-0.4-4.9,1.8-5.5,4.7l0.1-0.1
		c-1.3,0.1-2,0.8-2.2,2l0,0c-0.4,0.4-0.7,0.7-1.1,1.1l0,0c-4.9,0.8-7.6,4-9.3,8.4l0.1-0.1C324.1,408.1,323.7,408.4,323.3,408.8z"/>
	<path class="st3" d="M135.1,392.2c-1.8-1.5-2.5-4.2-5.7-4.8c2,5.3-0.2,7.5-5.2,7.5c-0.8,0-1.5-0.5-1.8,0.9
		c-1.7,7.6-1.8,7.6-9.2,5.2c-0.3-0.1-0.6,0.1-1,0.1c-0.7,0.6-0.3,1.2,0.1,1.8c0.7,1.1,2.5,2.3,1.4,3.5c-1.6,1.7-2.5-0.6-3.7-1.4
		c-1-0.7-2-1.7-3.1-0.4c-1.1,1.2,0,2.2,0.7,3.1c0.7,0.8,1.4,1.5,1.9,2.4c0.5,1,0.4,2.1-1.2,1.9c-2.9-0.3-8.2-6-8.3-8.7
		c0-1.5,0.3-3,1.7-3.5c2.2-0.7,1.3,1.2,1.7,2.2c0.7,1.6,1.9,0.6,2.3-0.1c3.8-5.9,10.3-9.1,15.1-14.1c3.5-3.6,6.1-8.4,11.4-10.7
		c3.7-1.6,5.2-5.7,1.9-9.6c2.7-2.8,6.5,8,8.2-2.2c0.2,4.9,4.1,4.8,6.8,6.9c-5,2-6.2,7.4-10.6,10c-1.9,1.1-3.5,4.8-1.4,7.9
		C136.4,390.8,135.7,391.5,135.1,392.2z"/>
	<path class="st7" d="M391.2,328.8c5.1,3.5,2.4,6-0.9,8.7c-2.1,1.8-4,3.9-5.6,6.3c-3.3,5-1.1,5.8,3.2,6.2c-1.6,1.9-3.2,3.7-5.4,4.9
		c-0.3-2.3-2.4-5.8-3.3-4.5c-2.4,3.7-7.7,3.2-9.2,7.3c-1.5,4-4,4.8-7.6,3.1c-0.9-0.4-2-1.1-2.8-0.2c-0.9,1,0.2,1.8,0.6,2.7
		c0.5,1,1.7,2.1,0.5,3.2c-0.7,0.7-1.6,0.1-2.3-0.3c-0.9-0.5-1.9-1.4-2.8-0.5c-1.2,1.2,0,2.2,0.6,3.1c0.5,0.8,1.7,1.6,0.6,2.6
		c-1,0.9-2,0-2.7-0.7c-1.7-1.7-3.6-2.6-5.9-2.7c0.3-0.5,0.6-1,0.9-1.6c8.7-7.6,17.4-15.2,25.5-23.4
		C379.9,338.3,385.6,333.6,391.2,328.8z"/>
	<path class="st6" d="M252,473.8c-1.6-0.1-3.2-0.2-4-1.8c-1.2-2.4-2.1-2.8-4.9-1.2c-3,1.8-2.3-2-3-3.6l0,0c3.1,0.6,4-1.4,4.4-3.9
		l0,0c0.9-0.1,1.5-0.6,1.6-1.6v0.1c0.7,0,1-0.4,1.1-1l0.3,0.1l-0.2-0.2c4.5-0.1,6.3-3.2,7.7-6.8c0.3-0.3,0.6-0.6,0.9-0.9
		c0.4-0.3,0.8-0.7,1.2-1l0,0c1.6-0.1,2.6-0.8,2.8-2.5l-0.1,0.1c0.3-0.4,0.6-0.8,0.9-1.2h0.1c0.4-0.3,0.9-0.6,1.3-0.9l-0.1,0.1
		c0.4-0.4,0.7-0.8,1.1-1.2h0.2c4.5,2.5,10.1,1.3,14.5,4.1l-0.2,0.1c-1,0-1.5,0.6-1.6,1.5l0,0c-2,0.4-4,0.7-3.6,3.6l-0.1,0.1
		c-1.6-0.3-2.3,0.4-2.1,2l-0.2-0.3l0.2,0.3c-1.5-0.2-2.2,0.4-2.2,2l0.1-0.1c-0.5,0.3-0.9,0.6-1.4,0.9l0.1-0.1
		c-4.6-0.3-6.4,2.5-6.9,6.6l-0.2-0.2l0.2,0.2c-3.5-0.2-4.9,1.8-5.5,4.8l0.1-0.1c-0.4,0.4-0.8,0.8-1.2,1.1
		C252.6,473.3,252.3,473.6,252,473.8z"/>
	<path class="st6" d="M348,368.1c2.3,0.1,4.3,1.1,5.9,2.7c0.7,0.7,1.7,1.5,2.7,0.7c1.1-1-0.1-1.8-0.6-2.6c-0.6-1-1.9-2-0.6-3.1
		c0.9-0.8,1.9,0,2.8,0.5c0.8,0.4,1.6,1,2.3,0.3c1.2-1.1,0-2.2-0.5-3.2c-0.4-0.9-1.5-1.7-0.6-2.7c0.9-0.9,1.9-0.2,2.8,0.2
		c3.7,1.7,6.2,0.9,7.6-3.1c1.5-4.1,6.8-3.6,9.2-7.3c0.9-1.3,3,2.2,3.3,4.5v-0.1c-0.4,0.4-0.8,0.7-1.1,1.1l0.1-0.1
		c-1.3,0.1-2,0.7-2.2,2l0,0c-1.2,0.1-1.9,0.8-2.1,1.9l-0.1,0.3l-0.3,0.1c-3.3,0.1-5,2-5.8,5.1c-0.3,0.3-0.6,0.6-1,1
		c-0.4,0.3-0.8,0.7-1.1,1l0,0c-1.5,0.2-2.6,0.9-2.8,2.5l0.1-0.1c-0.3,0.4-0.6,0.8-0.9,1.2L365,371c-1.5-0.3-2.2,0.3-2.2,1.9
		l-0.3-0.4l0.3,0.4c-2.8-0.2-4,1.3-4.4,3.9l0,0c-1.3,0.1-2,0.8-2.1,2.1l0,0c-0.5,0-1,0.1-1.5,0c-2.7-0.6-3.6,5.5-6.5,2.2
		c-1.6-1.9-1.7-5.1-2.4-7.8c-0.3-1-0.2-2-0.4-3.1l0,0C347.1,370.2,347.9,369.5,348,368.1L348,368.1z"/>
	<path class="st5" d="M391.4,121.6c-2.6,0.9-3.5,4.7-7,4.3c-4.5-6.2-4.6-6.2,1.3-11.7c4.4-4.1,9-7.9,13.2-12.2
		c2.8-2.9,4.1-1.3,6,0.8c1.8,2,3.8,3.3,0.5,5.9C400.4,112.7,396,117.3,391.4,121.6z"/>
	<path class="st7" d="M473.5,224c-1.7-2-2.2-3.7,0.3-5.8c5.9-5,11.7-10.1,17.3-15.5c2.9-2.9,4-0.4,5.6,1.2c1.8,1.8,3.5,3.5,0.4,5.7
		c-1.2,0.9-2.2,2.1-3.3,3.2c-4.1,3.6-8.4,7-12.2,10.8C478.8,226.7,476.4,227.6,473.5,224z"/>
	<path class="st3" d="M96.7,427.2c-3-0.2-6.1,0.5-9-1.1s-7.8-1.5-3.4-7c0.9-1.2-1.4-4.9-2.2-7.5l0,0c3.7-0.4,7.9,1.6,10.7-2.9
		c1.2-2,2.5-0.1,3.5,1.2c3.6,4.5,5.5,9.4,3.4,15.2C98.7,425.8,97.7,426.5,96.7,427.2z"/>
	<path class="st7" d="M306.3,406.2c-1.3,5.2-5.1,7.1-10.1,7.6c-11.6,1.4-23.1,2.9-35.9,4.5c4.8,2.5,9,2.4,12.8,3.3
		c7.4,1.7,14.7,4.1,22.3,5.3c4.4,0.7,6.9-2.3,10.6-2.3c-2.9,4.6-6.7,5.3-11.9,3.9c-13.5-3.4-27.1-6.3-40.6-9.4
		c-1.4-0.3-3.3,0.2-3.6-2.1c16.1-0.4,32-3.4,47.9-5.4C301.7,411.2,303.2,407.5,306.3,406.2z"/>
	<path class="st7" d="M345.7,370.1c0.1,1,0.1,2.1,0.4,3.1c0.7,2.6,0.7,5.9,2.4,7.8c2.9,3.3,3.8-2.7,6.5-2.2c0.5,0.1,1,0,1.5,0
		c-4,4.3-8.4,8.2-13.1,11.7c-1.9-3.9-9.7-6.1-13.5-3.9c-1.9,1.1-3.2,3.3-5.7,3.4c1.5-1.7,3-3.3,4.4-4.9
		C334.3,380,340,375.1,345.7,370.1z"/>
	<path class="st8" d="M369.8,135.8c0-2.7,2-4.5,3.2-6.6c2.8,3.5,5.8,6.6,9.3,9.4c0,0.3,0,0.7,0,1s0.1,0.7,0.1,1
		c-3.7,0.4-6.7-2.7-10.4-2.1C370.8,138,370,137.1,369.8,135.8z"/>
	<path class="st7" d="M477.6,245.1c-2.8-0.9-4.9-0.6-5.9,2.8c-0.9,3.3-2.5,6.3-3.5,9.6c-0.6,1.9-1.4,3.4-3.3,4.2
		c1.9-6.5,5.1-12.6,6.5-19.3C475.7,238,475.6,243.8,477.6,245.1z"/>
	<path class="st7" d="M475.4,270c1.7-7.9,4-15.7,3.2-23.9c1.2,0.9,2.7,1.8,2.3,3.7c-1.1,6.3-2.3,12.5-3.6,18.7
		C477.1,269.1,476,269.5,475.4,270z"/>
	<path class="st9" d="M148.7,286.7c-0.2,8.4,1.9,16.6,2.7,24.9c0.2,2,0.3,4.1,0.4,6.1c-2.6-6.4-2.5-13.4-3.2-20.1
		C148.1,294,145.6,290.2,148.7,286.7z"/>
	<path class="st7" d="M145.4,514.8c1.5,0.6,3,1.3,4.6,1.9c-0.2,0.2-0.4,0.4-0.5,0.6c-2.9,0-2.5,1.2-0.9,2.5c1.8,1.5,3.3,3,3.3,5.5
		l-0.3,0.2c-2.5-2.6-4.9-5.1-7.4-7.7C141.9,515.8,143.3,515.2,145.4,514.8z"/>
	<path class="st7" d="M277.5,450.5c-4.4-2.8-10-1.5-14.5-4.1c2.6-1.8,5.4,1.3,8-0.3c1.9,1,4,1.1,6.1,1c0.5,0.1,1.1,0.3,1.6,0.4
		C280.9,449.7,278.6,449.8,277.5,450.5z"/>
	<path class="st7" d="M441.3,301.2c2-4.7,5.3-8.1,10.4-9.4C448.5,295.3,445.2,298.6,441.3,301.2z"/>
	<path class="st7" d="M308.3,422.6c0.4-5.8,4.9-6.9,9.2-8.3C314.4,417.1,311.4,419.8,308.3,422.6z"/>
	<path class="st7" d="M324.4,407.8c1.7-4.4,4.4-7.6,9.3-8.4C330.8,402.4,328,405.5,324.4,407.8z"/>
	<path class="st7" d="M259.6,467.1c0.5-4.1,2.2-6.8,6.9-6.6C264.7,463.1,262.1,465.1,259.6,467.1z"/>
	<path class="st7" d="M394.8,343.6c0.9-3.7,3.2-6,7.1-6.4C399.8,339.7,397.5,341.9,394.8,343.6z"/>
	<path class="st9" d="M167.8,374.2c-1.5-5-2-10.1-2-15.2C167.7,363.9,168.4,368.9,167.8,374.2z"/>
	<path class="st7" d="M466.1,278.5c0.9-3.4,2.6-5.9,6.6-5.9C470.9,274.9,468.8,277,466.1,278.5z"/>
	<path class="st7" d="M370.9,365.3c0.7-3,2.4-5,5.8-5.1C375,362.3,373.3,364.1,370.9,365.3z"/>
	<path class="st7" d="M429.9,311.5c0.7-2.9,2-5.1,5.5-4.7C433.7,308.4,432.3,310.5,429.9,311.5z"/>
	<path class="st7" d="M254,471.9c0.6-3,2.1-5.1,5.5-4.8C258,469,256.2,470.7,254,471.9z"/>
	<path class="st7" d="M336.8,396.4c0.7-3,2-5.1,5.5-4.7C340.7,393.4,339.1,395.3,336.8,396.4z"/>
	<path class="st7" d="M411.5,328.3c-0.1-3.4,2.4-3.9,4.9-4.4C415.1,325.6,413.6,327.3,411.5,328.3z"/>
	<path class="st7" d="M435.6,306.7c0-3.2,1.9-4.4,4.8-4.6C438.7,303.6,437.2,305.2,435.6,306.7z"/>
	<path class="st7" d="M452.7,290.8c0.4-2.5,1.7-4,4.4-4C456.1,288.7,454.5,289.9,452.7,290.8z"/>
	<path class="st7" d="M358.5,376.7c0.4-2.5,1.6-4.1,4.4-3.9C361.7,374.4,360.3,375.8,358.5,376.7z"/>
	<path class="st7" d="M460.9,283.4c0.4-2.4,1.5-4.2,4.3-4C464.1,281.1,462.6,282.4,460.9,283.4z"/>
	<path class="st7" d="M419.6,320.9c0.1-2.1,1.2-3.2,3.4-2.9C422.2,319.3,421.1,320.4,419.6,320.9z"/>
	<path class="st7" d="M403.5,335.7c0-2.5,1.6-3.3,3.7-3.6C406.5,333.9,404.9,334.7,403.5,335.7z"/>
	<path class="st7" d="M272.1,455.7c-0.4-2.8,1.7-3.1,3.6-3.6C274.9,453.7,273.5,454.7,272.1,455.7z"/>
	<path class="st7" d="M408.1,331.7c0.1-1.6,0.7-2.6,2.5-2.2C409.8,330.2,408.9,330.9,408.1,331.7z"/>
	<path class="st7" d="M458.2,285.9c-0.2-2,1.1-2.4,2.7-2.5C460.4,284.7,459.2,285.3,458.2,285.9z"/>
	<path class="st7" d="M424.1,317c-0.2-2.1,1.1-2.5,2.7-2.5C426.2,315.6,425.3,316.5,424.1,317z"/>
	<path class="st7" d="M317.6,414.3c-0.2-1.6,0.5-2.2,2.1-1.9C318.9,413,318.2,413.7,317.6,414.3z"/>
	<path class="st7" d="M363,372.8c-0.1-1.6,0.6-2.2,2.2-1.9C364.4,371.6,363.7,372.2,363,372.8z"/>
	<path class="st7" d="M306.1,424.6c-0.1-1.6,0.6-2.2,2.1-2C307.5,423.3,306.8,423.9,306.1,424.6z"/>
	<path class="st7" d="M269.9,457.7c-0.2-1.6,0.5-2.3,2.1-2C271.3,456.4,270.6,457.1,269.9,457.7z"/>
	<path class="st7" d="M267.7,459.7c-0.1-1.5,0.6-2.2,2.2-2C269.2,458.4,268.5,459.1,267.7,459.7z"/>
	<path class="st7" d="M391,347.1c0.1-1.8,1.1-2.4,2.8-2.5C392.8,345.4,391.9,346.3,391,347.1z"/>
	<path class="st7" d="M387.8,350.1c-0.1-1.5,0.6-2.2,2.2-1.9C389.2,348.8,388.5,349.4,387.8,350.1z"/>
	<path class="st7" d="M334.7,398.4c0.2-1.3,0.9-1.9,2.2-2C336.6,397.4,335.8,398.1,334.7,398.4z"/>
	<path class="st7" d="M366,369.8c0.2-1.7,1.2-2.4,2.8-2.5C368.1,368.4,367.4,369.4,366,369.8z"/>
	<path class="st7" d="M379.1,357.9c0.2-1.3,0.9-1.9,2.2-2C380.6,356.6,379.9,357.3,379.1,357.9z"/>
	<path class="st7" d="M377.1,359.9c0.2-1.2,0.9-1.8,2.1-1.9C378.4,358.6,377.7,359.2,377.1,359.9z"/>
	<path class="st7" d="M356.5,378.8c0.1-1.3,0.8-2,2.1-2.1C357.9,377.3,357.2,378,356.5,378.8z"/>
	<path class="st7" d="M426.8,314.5c0.2-1.3,0.9-1.9,2.2-2C428.5,313.5,427.8,314.2,426.8,314.5z"/>
	<path class="st7" d="M472.7,272.6c0.2-1,0.8-1.4,1.7-1.6C473.8,271.6,473.2,272.1,472.7,272.6z"/>
	<path class="st7" d="M320.6,411.3c0.2-1,0.8-1.4,1.7-1.6C322.1,410.6,321.4,411,320.6,411.3z"/>
	<path class="st7" d="M275.7,452.1c0.2-0.9,0.6-1.5,1.6-1.5C276.8,451.1,276.2,451.6,275.7,452.1z"/>
	<path class="st7" d="M401.9,337.2c0.2-0.9,0.6-1.5,1.6-1.5C403,336.2,402.4,336.7,401.9,337.2z"/>
	<path class="st7" d="M390.1,348.1c0.3-0.4,0.7-0.7,1-1.1C390.7,347.4,390.4,347.7,390.1,348.1z"/>
	<path class="st7" d="M416.4,323.9c0.4-0.4,0.7-0.7,1.1-1.1C417.2,323.2,416.8,323.5,416.4,323.9z"/>
	<path class="st7" d="M478.6,246.2c-0.4-0.4-0.7-0.8-1.1-1.2C477.9,245.4,478.2,245.8,478.6,246.2z"/>
	<path class="st7" d="M381.3,356c0.4-0.4,0.8-0.7,1.1-1.1C382,355.3,381.6,355.6,381.3,356z"/>
	<path class="st3" d="M278.8,447.6c-0.5-0.1-1.1-0.3-1.6-0.4C277.7,447.3,278.2,447.4,278.8,447.6z"/>
	<path class="st3" d="M382.3,139.6c0-0.3,0-0.7,0-1c0.4,0,0.7,0,1.1,0C383,138.9,382.6,139.3,382.3,139.6z"/>
	<path class="st7" d="M368.8,367.3c0.4-0.3,0.8-0.7,1.1-1C369.5,366.6,369.2,366.9,368.8,367.3z"/>
	<path class="st7" d="M323.3,408.8c0.4-0.4,0.8-0.7,1.2-1.1C324.1,408.1,323.7,408.4,323.3,408.8z"/>
	<path class="st7" d="M365.2,370.9c0.3-0.4,0.6-0.8,0.9-1.2C365.8,370.1,365.5,370.5,365.2,370.9z"/>
	<path class="st7" d="M422.9,318c0.4-0.4,0.8-0.7,1.2-1.1C423.7,317.3,423.3,317.7,422.9,318z"/>
	<path class="st9" d="M424.8,104.5c-0.4,0.4-0.7,0.7-1.1,1.1C424,105.2,424.4,104.8,424.8,104.5z"/>
	<path class="st7" d="M266.4,460.6c0.5-0.3,0.9-0.6,1.4-0.9C267.3,459.9,266.9,460.3,266.4,460.6z"/>
	<path class="st7" d="M319.8,412.3c0.3-0.4,0.6-0.8,0.9-1.1C320.4,411.5,320.1,411.9,319.8,412.3z"/>
	<path class="st7" d="M253,473c0.4-0.4,0.8-0.8,1.2-1.1C253.7,472.2,253.3,472.6,253,473z"/>
	<path class="st7" d="M342.4,391.6c0.3-0.4,0.7-0.8,1-1.2C343.1,390.8,342.8,391.2,342.4,391.6z"/>
	<path class="st7" d="M410.6,329.4c0.3-0.4,0.7-0.9,1-1.3C411.3,328.6,410.9,329,410.6,329.4z"/>
	<path class="st7" d="M428.9,312.6c0.4-0.4,0.8-0.8,1.1-1.1C429.6,311.8,429.2,312.2,428.9,312.6z"/>
	<path class="st7" d="M152.5,526.7c-0.4-0.3-0.7-0.7-1.1-1l0.3-0.2c0.3,0.3,0.6,0.6,1,0.9L152.5,526.7z"/>
	<path class="st7" d="M333.6,399.4c0.4-0.4,0.7-0.7,1.1-1.1C334.4,398.7,334,399,333.6,399.4z"/>
	<path class="st7" d="M393.7,344.6c0.4-0.4,0.8-0.7,1.2-1.1C394.7,344.2,394.4,344.6,393.7,344.6z"/>
	<path class="st7" d="M418.5,321.9c0.4-0.4,0.8-0.8,1.2-1.2C419.3,321.2,418.9,321.5,418.5,321.9z"/>
	<path class="st7" d="M456.9,286.9c0.4-0.3,0.9-0.7,1.3-1C457.8,286.2,457.4,286.5,456.9,286.9z"/>
	<path class="st7" d="M451.6,291.8c0.4-0.4,0.7-0.7,1.1-1.1C452.3,291.1,452,291.4,451.6,291.8z"/>
	<path class="st3" d="M256,283.1c0-3.3,0.1-6.6,0-9.8c-0.1-3.5,1.4-5.3,4.8-5.2c8.3,0.1,16.4-1.8,24.6-2.1c2.7-0.1,4.9-1.1,7-2.8
		c13.2-11.5,26-23.5,38.9-35.3c20.4-18.7,40.7-37.5,61.4-55.8c2.6-2.3,5-4.7,7.4-7.2c1.9-2.1,3.3-1.6,5.1,0.2
		c10.3,10.2,19.4,21.4,29.2,32c2.5,2.7,1.6,4.8-0.8,7c-8.7,7.9-17.2,15.8-25.9,23.7c-13.5,12.2-27,24.4-40.5,36.5
		c-12.1,10.9-23.9,22.2-36.7,32.4c-7.7,6.2-8.6,14.4-10.1,22.8c-0.8,4.7-1.6,9.5-2.2,14.2c-0.3,1.9-1.3,2.7-3.1,2.7
		c-1.4,0-2.8,0.1-4.1-0.1c-16.5-2.3-33-4.8-49.5-7.1c-2-0.3-3.1-1.1-3.2-3.2c-0.3-4.6-0.9-9.2-1-13.9c-0.2-9.6,0-19.2,0-28.9
		C256.7,283.1,256.3,283.1,256,283.1z M267.5,289.9c1,7.2,1.1,16.2,1.1,25.1c0,2.7,1.2,3.3,3.7,3.7c9.9,1.3,19.8,2.6,29.6,4.5
		c4.2,0.8,5.2-0.9,5.6-4.3c0.7-6.5,1.6-13,2.1-19.5c0.2-2.2,1-3.9,2.6-5.4c15.5-13.9,31-27.9,46.5-41.8
		c17.9-16.1,35.8-32.3,53.7-48.4c1.9-1.7,2.3-3.2,0.4-5.2c-3.8-4-7.5-8.1-11.1-12.3c-1.8-2.1-2.9-1.5-4.6,0
		c-29.1,26.6-58.3,53.1-87.3,79.9c-14.8,13.7-14.6,14-34.8,14C267.4,280.3,267.4,280.3,267.5,289.9z"/>
	<path class="st4" d="M245.7,343.2c-0.7-0.2-1.4-0.4-2.2-0.6c-0.3-0.3-0.6-0.4-0.9-0.3h0.1c-0.9-27.8-1.8-55.6-2.7-83.4
		c-0.1-2.6,0.9-3.6,3.5-3.8c6.6-0.6,13.3-1.4,19.9-2.1c6-0.5,12-1.1,18-1.5c1.9-0.1,3.1-1.1,4.4-2.3c34.7-31.7,69.5-63.3,104.2-95
		c2.1-1.9,3.5-3.4,6.1-0.3c2.2,2.6,2,3.8-0.5,6c-35.7,32.4-71.4,64.9-107,97.4c-1.8,1.6-3.6,2.5-5.9,2.6c-8.2,0.7-16.4,1.5-24.6,2.2
		c-9.5,0.1-9.1,0.1-9,9.2c0.2,20.2,3.3,40.4,1.2,60.7c-0.1,1.3,0.3,1.9,1.5,2.2c4.6,2.5,9.6,0.8,14.4,1.6c17,2.8,34.1,4.8,51.1,7.4
		c3.9,0.6,5.5-0.3,6.1-4.3c1.4-9.2,3.3-18.3,4.7-27.5c0.5-3.2,1.8-5.3,4.1-7.4c27.6-24.9,55.2-49.9,82.9-74.9
		c7.9-7.2,16-14.2,23.7-21.5c2.4-2.3,3.6-2.5,6,0.1c2.3,2.6,1.7,3.7-0.5,5.6c-24.3,21.9-48.6,43.9-72.8,65.9
		c-10.9,9.8-21.7,19.7-32.6,29.5c-1.4,1.2-2.1,2.5-2.4,4.3c-2,11.3-4.3,22.6-6.2,34c-0.7,4.3-2.1,6.3-7.2,5.6
		c-17.7-2.6-35.5-4.6-53.3-6.9c-2.5-0.3-5.1-0.4-7.7-0.6c-0.6-0.1-1.2-0.3-1.7-0.4c-2.1-0.2-4.3-0.4-6.4-0.5
		C251.3,343,248.5,343.2,245.7,343.2z"/>
	<path class="st10" d="M432.4,115.8c13.1-13.1,27.2-25.1,40.9-37.6c4.3-3.9,8.8-7.6,13.3-11.4c10.8,11.6,21.7,23,32.3,34.7
		c7.3,8.2,15.2,15.9,21.7,24.8c-0.7,0.7-1.4,1.5-2.1,2.2c-17.2,15.8-34.4,31.6-51.7,47.4C468.2,156.2,450,136.3,432.4,115.8z
		 M486.1,84.2c-0.5,0.4-1.2,0.8-1.8,1.4c-11.9,10.9-23.8,21.9-35.8,32.7c-2.1,1.9-2.3,3.8-0.4,5.7c11.2,11.2,22.1,22.6,31.8,35.1
		c1.6,2.1,3.1,2,5.1,0.2c11.8-10.6,23.6-21,35.5-31.5c2.3-2,3-3.8,0.5-6.4c-10.9-11.7-21.5-23.6-32.3-35.4
		C488.1,85.3,487.6,84.3,486.1,84.2z"/>
	<path class="st3" d="M371.9,138.6c3.7-0.7,6.7,2.4,10.4,2.1c6.7,5.4,6.7,6.5-0.3,11.7c-1.1,0.8-2.1,1.7-3.1,2.7
		c-19.4,19.2-40.3,36.9-60.3,55.4c-8.7,8-17.8,15.7-26.1,24.2c-4.1,4.2-8.4,8.6-13.7,11.6c1.5-8.2,9.3-11.7,13.6-18.3
		c-3.6-0.2-5.5-2.3-6.3-6.5c-1.1,6.1-3.5,4.8-6.2,2.1c10.3-9.3,20.6-18.7,30.9-28c19.5-17.4,39.1-34.7,58.6-52.1
		C370.7,142.3,373.3,141.3,371.9,138.6z"/>
	<path class="st3" d="M487.6,195.4c0,2.2-1.2,3.2-2.3,4.2c-5.3,4.8-10.8,9.6-16.1,14.4c-1.6,1.4-2.9,0.9-4-0.4
		c-9.3-9.9-18.5-19.9-27.7-29.8c-1.6-1.8-0.7-3.1,0.7-4.4c5.6-5.3,11.3-10.6,17-15.8c1.5-1.4,3.1-1.4,4.6,0
		c9.6,9.4,18.3,19.6,26.9,29.8C487,194.1,487.3,195,487.6,195.4z"/>
	<path class="st11" d="M486.8,175.8c17.2-15.8,34.4-31.6,51.7-47.4c0.8-0.7,1.4-1.5,2.1-2.2c9.9,8.1,9.9,8.1,1,16.4
		c-14.3,13.1-28.6,26.2-42.7,39.5c-3,2.9-4.8,2.6-7-0.5C490.3,179.6,488.5,177.8,486.8,175.8z"/>
	<path class="st3" d="M271.5,246.2c-2.7,0.8-5.4,1.3-8.2,1c0.2-3.1,1-5.8,4.7-6.2c1.9-0.2,2.1-1.7,2.8-3.1c1.4-2.8,3.4-5.1,6.9-5.2
		c0.1-2.3-0.4-4.2-3.2-4.2c1.6-1.9,3.1-3.8,5.3-5c2.6,2.6,5,3.9,6.2-2.1c0.8,4.2,2.7,6.3,6.3,6.5c-4.2,6.6-12,10.1-13.6,18.3
		c-1.4,0-2.7-0.1-4.1-0.1c-0.2-0.9,0-2.2-1.3-2.3C271.9,243.7,271.8,245.1,271.5,246.2z"/>
	<path class="st4" d="M454.1,156.5c-1.3,1-2.3,1.7-3.1,2.5c-5.9,5.3-11.9,10.4-17.6,15.9c-2.5,2.4-3.6,1.1-5.2-0.8
		c-1.5-1.7-3.2-3-0.4-5.3c6.3-5.4,12.2-11.1,18.4-16.6c0.9-0.8,1.8-2.6,3.4-1.1C451,152.6,452.3,154.3,454.1,156.5z"/>
	<path class="st1" d="M251.8,334.4c-1.2-0.3-1.7-0.9-1.5-2.2c2.1-20.3-1-40.4-1.2-60.7c-0.1-9.1-0.4-9.1,9-9.2
		c-0.1,0.3-0.1,0.9-0.2,1c-7.2,2.9-5.7,9.3-6,15c-0.8,15.8,0.1,31.6,0.8,47.5C252.8,328.6,252.1,331.5,251.8,334.4z"/>
	<path class="st1" d="M260.4,344.8c0.6,0.1,1.2,0.3,1.7,0.4c3.2,2.6,7.7,0.2,10.8,3.3C268.9,346.9,263.5,349.9,260.4,344.8z"/>
	<path class="st1" d="M245.7,343.2c2.8,0,5.6-0.2,8.2,1.1c0,0.4,0,0.8,0,1.2l0,0c-2.5,0-5.1,0.1-7.6,0
		C243.9,345.4,245.3,344.1,245.7,343.2z"/>
	<path class="st3" d="M271.5,246.2c0.3-1.1,0.4-2.5,1.9-2.4c1.3,0.1,1.1,1.4,1.3,2.3c-0.4,0.1-0.7,0.2-1.1,0.3
		C272.9,246.3,272.2,246.3,271.5,246.2z"/>
	<path class="st1" d="M254,345.5c1.1,0,2.3,0,3.9,0C256.1,347.2,255,346.2,254,345.5C253.9,345.5,254,345.5,254,345.5z"/>
	<path class="st1" d="M242.6,342.3c0.4,0,0.7,0.1,0.9,0.3C243.3,342.5,242.9,342.4,242.6,342.3z"/>
	<path class="st12" d="M216.8,267.1c0,10.1-0.1,20.2,0,30.4c0.2,21,0.6,42,0.8,63c0,3.2,0.9,4.5,4.3,4.8c25.7,2.6,51.3,5.4,77,8.2
		c5.3,0.6,10.6,1.4,16.6,2.2c-2.9,4.5-7.3,6.7-10.5,10c-2.4,2.5-5.4,4.4-7.7,6.9c-4.3,4.8-9.5,5.8-15.8,5.5
		c-18.7-1-37.5-1.4-56.3-2.1c-7.9-0.3-15.8-0.7-23.7-0.9c-2.1-0.1-3.5-0.8-4.8-2.4c-2.6-3.4-5.2-6.9-8.7-9.5
		c-1.4-1.1-2.2-2.5-2.1-4.5c1.9-28.8,3.9-57.7,5.8-86.5c0.1-1.7,0.3-3.4,1.7-4.7c7.4-7,14.7-14,22-21
		C215.8,266.7,216.3,266.9,216.8,267.1z"/>
	<path class="st12" d="M378,329.7c-7.2,4.8-12.5,11.8-19.3,17.1c-2,1.6-3.4,3.9-6.5,5.2c2.2-9.9,4.3-19.2,6.4-28.5
		c0.4-1.7,1.8-2.9,3.1-4.1c24.5-22.5,48.9-45.1,73.3-67.7c5.6-5.1,11.1-10.4,16.7-15.4c1.6-1.5,3.3-4.7,5.8-2.8
		c2.5,2,4.7,4.6,4.1,8.8c-1.4,10.2-7.6,16.8-14.8,23.3c-17.3,15.6-34.3,31.4-51.3,47.3c-4.5,4.2-9.6,7.9-13.5,12.8
		C380.4,326.8,378.6,327.6,378,329.7z"/>
	<path class="st12" d="M279.9,223.6c-2.2,1.2-3.8,3.1-5.3,5c-8.4,1-16.7,2.1-25.1,3.1c-1.4,0.2-3.4,1-4.1-0.9
		c-0.5-1.4,1.3-2.2,2.3-3.1c23.3-20.7,46.5-41.4,69.8-62.1c10.1-9,20.3-18.1,30.4-27.1c4.2-3.7,16.9-5.2,21.8-2.6
		c0.2,1.3,1,2.2,2.2,2.8c1.4,2.8-1.2,3.7-2.5,4.9c-19.5,17.4-39.1,34.7-58.6,52.1C300.4,204.8,290.2,214.2,279.9,223.6z"/>
	<path class="st3" d="M345.7,370.1c-5.7,5-11.4,9.9-17.1,14.9c-0.3-4,4.1-7.3,2.1-11.6c-0.1-0.3,0.4-1.1,0.7-1.2
		c3.3-0.8,7-0.8,8.9-4.4c3.3,3,5.5-1.5,8.4-1.1c-0.3,0.5-0.6,1-0.9,1.6l0,0C347.2,368.8,346.5,369.4,345.7,370.1
		C345.8,370.1,345.7,370.1,345.7,370.1z"/>
	<path class="st3" d="M378,329.7c0.5-2.1,2.4-2.9,4-3.9c2.3,0.6,4.8,6.5,6.9-0.5c0.6-2,2.8,1.2,4.4,0.6c-0.1,0.3-0.1,0.6,0,0.9
		l0.2-0.1c-0.4,0.4-0.7,0.8-1.1,1.2l0.1-0.1c-0.4,0.3-0.8,0.7-1.3,1h-0.1c-5.6,4.8-11.2,9.6-16.9,14.4c-0.4-2.3,0.8-5,2-5.4
		C382.4,335.9,379.1,332.7,378,329.7z"/>
	<path class="st3" d="M234.3,279.3c0,1.1,0,2.1,0,3.2c-1.7-0.3-3.4-0.5-5.1-0.9c-3.3-0.8-5.3-2.2-1.8-5.4c0.9-0.9,1.6-2,0.8-3.2
		c-4.2-6.1,0.7-4.9,4-5.1c0.3,0,0.7,0,1,0c1.6,1.9,0.9,4.2,1,6.3C231.3,275.9,231.3,277.6,234.3,279.3z"/>
	<path class="st9" d="M236.3,315.5c0.3,0,0.8,0,1,0.2c3.7,2.6,3,18-0.9,20.5C235.9,329.3,234.1,322.4,236.3,315.5z"/>
	<path class="st9" d="M235.3,290.7c0.7,0.2,1.5,0.1,1.9,0.5c2.4,2.5,1.2,12.5-1.8,15C235.3,301,235.3,295.9,235.3,290.7z"/>
	<path class="st7" d="M433.6,290.2c-2.2,3.8-4.5,7.5-9.4,8.3C427,295.4,430,292.4,433.6,290.2z"/>
	<path class="st7" d="M456.3,269.5c-1.8,3.9-4.2,7-8.7,7.8C450.1,274.2,453,271.6,456.3,269.5z"/>
	<path class="st7" d="M313.9,399.3c-1.4,3.6-3.4,6.5-7.6,6.9C308.4,403.4,311,401.2,313.9,399.3z"/>
	<path class="st7" d="M408.1,313.4c-1.1,3.2-2.8,5.7-6.6,5.9C403.2,316.8,405.6,315,408.1,313.4z"/>
	<path class="st7" d="M447.5,277.4c-0.3,4-3.3,5.1-6.5,5.9C442.9,281.1,444.9,278.9,447.5,277.4z"/>
	<path class="st7" d="M419.5,303c-0.7,2.9-2.2,4.9-5.5,4.9C415.6,306,417.1,304.1,419.5,303z"/>
	<path class="st7" d="M441,283.2c-0.2,2.7-1.4,4.3-4.3,4C438.1,285.8,439.6,284.5,441,283.2z"/>
	<path class="st7" d="M399.9,320.7c-0.5,2.4-1.8,3.8-4.4,3.9C397,323.4,398.4,322.1,399.9,320.7z"/>
	<path class="st7" d="M324.2,389.9c-0.2,2.1-1.3,3.1-3.4,2.8C321.7,391.5,322.7,390.4,324.2,389.9z"/>
	<path class="st7" d="M318.7,394.8c0.2,2.7-1.8,3.1-3.7,3.5C315.9,396.8,317.2,395.7,318.7,394.8z"/>
	<path class="st7" d="M422.6,300c-0.3,1.9-1.3,2.9-3.2,3C420.1,301.6,421.3,300.7,422.6,300z"/>
	<path class="st7" d="M459.3,266.4c0.4,2.5-1.2,3-3.1,3.1C456.8,268.1,458.2,267.4,459.3,266.4z"/>
	<path class="st1" d="M169.7,323.8c0.2-1.7,0.4-3.4,0.6-5.1C171.4,320.5,171.6,322.3,169.7,323.8z"/>
	<path class="st7" d="M463.7,262.4c0,1.5-0.7,2.2-2.2,2.1C462.3,263.8,463,263.1,463.7,262.4z"/>
	<path class="st7" d="M461.6,264.4c0,1.5-0.7,2.2-2.2,1.9C460.1,265.7,460.9,265.1,461.6,264.4z"/>
	<path class="st7" d="M436.6,287.2c0.2,1.6-0.5,2.2-2.1,1.9C435.3,288.4,436,287.8,436.6,287.2z"/>
	<path class="st7" d="M320.8,392.7c0.1,1.5-0.6,2.2-2.1,2C319.4,394.1,320.1,393.4,320.8,392.7z"/>
	<path class="st7" d="M413.1,308.9c-0.2,1.3-1,2-2.3,2.1C411.1,309.9,411.8,309.1,413.1,308.9z"/>
	<path class="st7" d="M401.7,319.2c-0.3,0.9-0.9,1.3-1.8,1.5C400.5,320.2,401.1,319.7,401.7,319.2z"/>
	<path class="st7" d="M410.9,310.9c-0.2,0.9-0.9,1.4-1.8,1.5C409.4,311.5,410.1,311.2,410.9,310.9z"/>
	<path class="st7" d="M424.4,298.5c-0.2,0.9-0.9,1.4-1.8,1.5C423.2,299.5,423.8,299,424.4,298.5z"/>
	<path class="st7" d="M395.6,324.6c-0.4,0.4-0.7,0.8-1.1,1.2C394.9,325.4,395.2,325,395.6,324.6z"/>
	<path class="st7" d="M393.3,326.8c0-0.3,0-0.6,0-0.9c0.4-0.1,0.8-0.1,1.2-0.2C394.2,326.1,393.8,326.4,393.3,326.8z"/>
	<path class="st7" d="M434.5,289.1c-0.3,0.4-0.6,0.8-1,1.2C433.8,290,434.2,289.6,434.5,289.1z"/>
	<path class="st7" d="M315,398.3c-0.4,0.3-0.7,0.7-1.1,1C314.3,399,314.6,398.6,315,398.3z"/>
	<path class="st7" d="M414,307.9c-0.4,0.4-0.7,0.8-1.1,1.2C413.3,308.7,413.7,308.3,414,307.9z"/>
	<path class="st7" d="M465,261.5c-0.4,0.3-0.9,0.7-1.3,1C464.1,262.2,464.5,261.9,465,261.5z"/>
	<path class="st12" d="M151.2,502.5c11.3-10.8,22.7-21.6,34-32.4c5-4.8,10.1-9.4,14.9-14.3c2-2,4.2-2.9,6.9-2.6
		c7,0.8,14,1.5,21.1,2.2c0.8,0.1,1.9-0.1,2.3,0.9c0.5,1.2-0.5,1.9-1.2,2.6c-14.2,13.5-28.4,27.1-42.7,40.6c-0.7,0.7-1.8,1.3-2.7,1.4
		c-10.7,1.1-21.4,2.1-32.1,3.1C151.5,503.4,151.4,502.9,151.2,502.5z"/>
	<path class="st7" d="M254.9,454c-1.4,3.6-3.2,6.7-7.7,6.8C249.5,458.2,252,455.9,254.9,454z"/>
	<path class="st7" d="M244.6,463.4c-0.4,2.5-1.3,4.5-4.4,3.9C241.6,466,243.1,464.7,244.6,463.4z"/>
	<path class="st7" d="M149.9,516.7c1.3,0.8,2.5,1.7,3.8,2.5l-0.3,0.4c-1.6-0.3-3.1-0.8-4-2.2C149.6,517.2,149.7,517,149.9,516.7z"/>
	<path class="st7" d="M259.8,449.6c-0.2,1.7-1.2,2.4-2.8,2.5C257.7,450.9,258.4,449.9,259.8,449.6z"/>
	<path class="st7" d="M246.2,461.9c-0.1,1-0.7,1.5-1.6,1.6C245.1,462.9,245.6,462.4,246.2,461.9z"/>
	<path class="st7" d="M262.9,446.4c-0.4,0.4-0.7,0.8-1.1,1.2C262.1,447.3,262.5,446.9,262.9,446.4z"/>
	<path class="st7" d="M261.9,447.5c-0.4,0.3-0.9,0.6-1.3,0.9C261.1,448.1,261.5,447.8,261.9,447.5z"/>
	<path class="st7" d="M260.6,448.5c-0.3,0.4-0.6,0.8-0.9,1.2C260,449.3,260.3,448.9,260.6,448.5z"/>
	<path class="st7" d="M247.2,460.9c-0.1,0.7-0.4,1-1.1,1C246.5,461.6,246.9,461.2,247.2,460.9z"/>
	<path class="st7" d="M257,452c-0.4,0.3-0.8,0.7-1.2,1C256.2,452.7,256.6,452.4,257,452z"/>
	<path class="st12" d="M82.3,412.2c-3.4,1.3-5.4,4.6-9.6,7c1.6-9.2,3.3-17.2,4.4-25.4c0.9-7.4,3.9-12.9,10-17.6
		c13.7-11,26.8-22.8,40-34.3c0.9-0.8,1.8-2.3,3.1-1.9c1.8,0.6,1.1,2.4,1.1,3.8c0.1,4.5-0.5,9.2,0.1,13.6c1.4,8.9-2.6,14.4-9.2,19.7
		c-12.8,10.4-25,21.5-37.4,32.2C83.9,410.2,83.2,411.3,82.3,412.2L82.3,412.2z"/>
	<path class="st7" d="M392.4,327.8c0.4-0.4,0.7-0.8,1.1-1.2C393.1,327,392.8,327.4,392.4,327.8z"/>
	<path class="st7" d="M391.3,328.8c0.4-0.3,0.8-0.7,1.3-1C392.1,328.1,391.7,328.4,391.3,328.8z"/>
	<path class="st6" d="M149.4,517.4c0.9,1.5,2.4,2,4,2.2c1,1.9,2.8,1.9,4.5,1.8c8.9-0.6,17.9,1.4,26.6-1.2c1-0.3,1.9-0.2,2,0.9
		c0.1,3.1-2,6.3,0.4,9.4c0.2,0.3-1.3,0.9-2.2,0.7c-10.6-2.3-21.5-2.1-32-4.8c-0.3-0.3-0.6-0.6-1-1c0-2.5-1.5-4-3.3-5.5
		C146.9,518.6,146.5,517.3,149.4,517.4z"/>
	<path class="st7" d="M345.8,370.1c0.7-0.7,1.5-1.3,2.2-2C347.9,369.5,347.1,370.2,345.8,370.1z"/>
	<path class="st12" d="M267.5,289.9c-0.2-9.6-0.2-9.6,7.6-9.6c20.2,0,20-0.3,34.8-14c28.9-26.8,58.2-53.3,87.3-79.9
		c1.6-1.5,2.8-2.2,4.6,0c3.5,4.2,7.3,8.3,11.1,12.3c1.9,2,1.5,3.5-0.4,5.2c-17.9,16.1-35.8,32.3-53.7,48.4
		c-15.5,13.9-31,27.9-46.5,41.8c-1.6,1.5-2.4,3.1-2.6,5.4c-0.6,6.5-1.4,13-2.1,19.5c-0.4,3.5-1.4,5.1-5.6,4.3
		c-9.8-1.9-19.7-3.2-29.6-4.5c-2.5-0.3-3.7-0.9-3.7-3.7C268.7,306.1,268.5,297.1,267.5,289.9z"/>
	<path class="st13" d="M486.1,84.2c1.5,0.1,2,1.1,2.7,1.9c10.8,11.8,21.4,23.7,32.3,35.4c2.5,2.6,1.8,4.4-0.5,6.4
		c-11.9,10.5-23.7,20.9-35.5,31.5c-2,1.8-3.5,1.8-5.1-0.2c-9.7-12.5-20.7-23.9-31.8-35.1c-1.9-2-1.7-3.8,0.4-5.7
		c12-10.9,23.8-21.8,35.8-32.7C484.9,85,485.6,84.6,486.1,84.2z"/>
	<path class="st3" d="M234.3,279.3c-3-1.7-3-3.4,0-5.1C234.3,275.9,234.3,277.6,234.3,279.3z"/>
</g>
</svg>
